<svg xmlns="http://www.w3.org/2000/svg" viewBox="0 0 32 40" x="0px" y="0px"><defs><style>.cls-1{fill:none;}</style></defs><title>Moon</title><g><path class="cls-1" d="M21,10a1,1,0,0,1,1-1h2.48A11,11,0,0,0,16,5,10.86,10.86,0,0,0,9.7,7H13a1,1,0,0,1,0,2H7.52a11,11,0,0,0,0,14H13a1,1,0,0,1,0,2H9.7A10.86,10.86,0,0,0,16,27a11,11,0,0,0,7.53-3H21a1,1,0,0,1,0-2h4.21a10.94,10.94,0,0,0,.58-11H22A1,1,0,0,1,21,10Zm-9,9H11a1,1,0,0,1,0-2h1a1,1,0,0,1,0,2ZM17,9h1a1,1,0,0,1,0,2H17a1,1,0,0,1,0-2Zm4,10H16a1,1,0,0,1,0-2h5a1,1,0,0,1,0,2Z"/><path d="M31,10a1,1,0,0,0-1-1H26.94A13,13,0,0,0,6.64,7H2A1,1,0,0,0,2,9H5.06a12.92,12.92,0,0,0,0,14H2a1,1,0,0,0,0,2H6.64a13,13,0,0,0,19.59-1H30a1,1,0,0,0,0-2H27.52A12.95,12.95,0,0,0,28,11h2A1,1,0,0,0,31,10Zm-4,6a10.94,10.94,0,0,1-1.79,6H21a1,1,0,0,0,0,2h2.53A11,11,0,0,1,16,27a10.86,10.86,0,0,1-6.3-2H13a1,1,0,0,0,0-2H7.52a11,11,0,0,1,0-14H13a1,1,0,0,0,0-2H9.7A10.86,10.86,0,0,1,16,5a11,11,0,0,1,8.48,4H22a1,1,0,0,0,0,2h3.79A10.92,10.92,0,0,1,27,16Z"/><path d="M17,11h1a1,1,0,0,0,0-2H17a1,1,0,0,0,0,2Z"/><path d="M21,17H16a1,1,0,0,0,0,2h5a1,1,0,0,0,0-2Z"/><path d="M12,17H11a1,1,0,0,0,0,2h1a1,1,0,0,0,0-2Z"/></g><text x="0" y="47" fill="#000000" font-size="5px" font-weight="bold" font-family="'Helvetica Neue', Helvetica, Arial-Unicode, Arial, Sans-serif">Created by Bagus Kusnandar</text><text x="0" y="52" fill="#000000" font-size="5px" font-weight="bold" font-family="'Helvetica Neue', Helvetica, Arial-Unicode, Arial, Sans-serif">from the Noun Project</text></svg>