<?xml version="1.0" encoding="utf-8"?>
<!-- Generator: Adobe Illustrator 24.0.2, SVG Export Plug-In . SVG Version: 6.00 Build 0)  -->
<svg version="1.1" id="Layer_1" xmlns="http://www.w3.org/2000/svg" xmlns:xlink="http://www.w3.org/1999/xlink" x="0px" y="0px"
	 viewBox="0 0 399.2 176.1" style="enable-background:new 0 0 399.2 176.1;" xml:space="preserve">
<style type="text/css">
	.st0{fill:#FFFFFF;}
	.st1{enable-background:new    ;}
</style>
<title>Artboard 5</title>
<title>Artboard 5</title>
<g>
	<g>
		<g>
			<path class="st0" d="M20.6,39.9c-1.4,0.4-2.2,1.4-2.2,2.5c-0.1,1.2,0.9,2.3,2.5,2.3c1.5,0,2.5-0.9,2.5-2.2
				C23.3,41.1,22.3,40.4,20.6,39.9z"/>
			<path class="st0" d="M21.1,38.7c1.1-0.4,1.9-1.1,1.9-2.2c0-1-0.6-2-2.1-2c-1.4,0-2.1,0.9-2.1,2C18.7,37.7,19.6,38.3,21.1,38.7z"
				/>
			<path class="st0" d="M53.2,37.7c-1.6,0-2.7,1.3-2.7,3.5c0,1.8,0.9,3.3,2.7,3.3c1,0,1.9-0.6,2.3-1.7c0.1-0.3,0.1-0.6,0.1-0.9v-1.6
				c0-0.3,0-0.5-0.1-0.8C55.3,38.5,54.4,37.7,53.2,37.7z"/>
			<path class="st0" d="M64,24.5H1v147.6h63V24.5z M15,45.8H7.2v-1l1.3-1.3c3.1-3,4.5-4.6,4.6-6.4c0-1.2-0.6-2.4-2.4-2.4
				c-1.1,0-2,0.6-2.6,1l-0.5-1.2c0.8-0.7,2.1-1.2,3.5-1.2c2.6,0,3.8,1.8,3.8,3.6c0,2.3-1.6,4.1-4.2,6.6l-1,0.9H15
				C15,44.4,15,45.8,15,45.8z M20.8,46c-2.6,0-4.1-1.5-4.1-3.3c0-1.5,0.9-2.6,2.4-3.3v-0.1c-1.4-0.6-1.9-1.7-1.9-2.8
				c0-1.9,1.6-3.3,3.8-3.3c2.4,0,3.6,1.5,3.6,3c0,1-0.5,2.2-2,2.9v0.1c1.5,0.6,2.5,1.7,2.5,3.2C25,44.5,23.1,46,20.8,46z M27.2,48
				L26,48.1c0.4-1.1,0.9-3.1,1.1-4.5l1.8-0.2C28.5,45,27.7,47.1,27.2,48z M33.4,46c-1.3,0-2.5-0.4-3.1-0.8l0.4-1.3
				c0.5,0.3,1.5,0.7,2.6,0.7c1.6,0,2.9-1,2.9-2.7c0-1.6-1.1-2.7-3.5-2.7c-0.7,0-1.2,0.1-1.7,0.1l0.8-5.9h5.9v1.4H33L32.5,38
				c0.3,0,0.5-0.1,1-0.1c0.9,0,1.9,0.2,2.6,0.7c1,0.5,1.8,1.6,1.8,3.2C38,44.2,36.1,46,33.4,46z M46.3,45.9L46.3,45.9l-3.2-4.5
				l-0.8,0.9v3.4h-1.6V32.4h1.6v8.5c0.2-0.3,0.5-0.7,0.8-1l2.7-3.2h2l-3.5,3.8l4,5.4H46.3z M57.3,44.4c0,2.1-0.4,3.4-1.3,4.2
				s-2.2,1.1-3.3,1.1c-1.1,0-2.3-0.3-3-0.8l0.3-1.2c0.6,0.4,1.5,0.7,2.7,0.7c1.7,0,2.9-0.9,2.9-3.2v-1c-0.5,0.8-1.5,1.5-2.9,1.5
				c-2.3,0-3.9-1.9-3.9-4.5c0-3.1,2-4.9,4.1-4.9c1.6,0,2.5,0.8,2.9,1.6l0.1-1.4h1.5c-0.1,0.8-0.1,1.5-0.1,2.6V44.4z"/>
		</g>
		<g class="st1">
			<path class="st0" d="M0,16V5.2h1.5l5.6,8.4V5.2h1.4V16H7L1.4,7.5V16H0z"/>
			<path class="st0" d="M10.2,12.1c0-1.4,0.4-2.5,1.2-3.2C12.1,8.3,12.9,8,13.9,8c1.1,0,1.9,0.4,2.6,1.1c0.7,0.7,1,1.7,1,2.9
				c0,1-0.1,1.8-0.5,2.4c-0.3,0.6-0.7,1-1.3,1.3c-0.6,0.3-1.2,0.5-1.9,0.5c-1.1,0-2-0.3-2.6-1S10.2,13.4,10.2,12.1z M11.6,12.1
				c0,1,0.2,1.7,0.7,2.2c0.4,0.5,1,0.7,1.6,0.7c0.7,0,1.2-0.2,1.6-0.7s0.7-1.3,0.7-2.3s-0.2-1.7-0.7-2.2c-0.4-0.5-1-0.7-1.6-0.7
				c-0.7,0-1.2,0.2-1.6,0.7S11.6,11.1,11.6,12.1z"/>
			<path class="st0" d="M19,16V8.2h1.2v1.2c0.3-0.6,0.6-0.9,0.8-1.1C21.3,8.1,21.6,8,21.9,8c0.4,0,0.9,0.1,1.4,0.4l-0.5,1.2
				c-0.3-0.2-0.6-0.3-1-0.3c-0.3,0-0.5,0.1-0.8,0.3c-0.2,0.2-0.4,0.4-0.5,0.7c-0.1,0.5-0.2,1-0.2,1.5V16H19z"/>
			<path class="st0" d="M25.5,16l-2.4-7.8h1.4l1.2,4.5l0.5,1.7c0-0.1,0.2-0.6,0.4-1.6l1.2-4.6h1.4l1.2,4.5l0.4,1.5l0.4-1.5l1.3-4.5
				h1.3L31.3,16h-1.4l-1.2-4.7L28.4,10l-1.6,6H25.5z"/>
			<path class="st0" d="M40.2,13.5l1.4,0.2c-0.2,0.8-0.6,1.4-1.2,1.9c-0.6,0.5-1.3,0.7-2.2,0.7c-1.1,0-2-0.4-2.7-1.1
				c-0.7-0.7-1-1.7-1-2.9c0-1.3,0.3-2.3,1-3C36.2,8.6,37,8,38.1,8c1,0,1.9,0.4,2.5,1.1c0.7,0.7,1,1.7,1,3c0,0.1,0,0.2,0,0.4h-5.8
				c0,0.9,0.3,1.5,0.7,2s1,0.7,1.6,0.7c0.5,0,0.9-0.1,1.2-0.4C39.6,14.5,40,14,40.2,13.5z M35.9,11.3h4.3c-0.1-0.7-0.2-1.1-0.5-1.5
				c-0.4-0.5-1-0.8-1.6-0.8S37,9.2,36.6,9.6C36.1,10.1,35.9,10.7,35.9,11.3z"/>
			<path class="st0" d="M43,16.6l1.3,0.2c0.1,0.4,0.2,0.7,0.4,0.9c0.3,0.2,0.8,0.4,1.3,0.4c0.6,0,1.1-0.1,1.4-0.4s0.6-0.6,0.7-1
				c0.1-0.3,0.1-0.8,0.1-1.7c-0.6,0.7-1.3,1-2.2,1c-1.1,0-1.9-0.4-2.5-1.2s-0.9-1.7-0.9-2.8c0-0.7,0.1-1.4,0.4-2.1
				c0.3-0.6,0.7-1.1,1.2-1.5C44.8,8.2,45.4,8,46.1,8c0.9,0,1.7,0.4,2.3,1.1V8.2h1.2v6.7c0,1.2-0.1,2.1-0.4,2.6
				C49,18,48.6,18.4,48,18.7c-0.5,0.3-1.2,0.4-2,0.4c-0.9,0-1.7-0.2-2.2-0.6C43.2,18.1,43,17.5,43,16.6z M44.1,12
				c0,1,0.2,1.8,0.6,2.2c0.4,0.4,0.9,0.7,1.5,0.7s1.1-0.2,1.5-0.7s0.6-1.2,0.6-2.2s-0.2-1.7-0.6-2.2c-0.4-0.5-0.9-0.7-1.5-0.7
				s-1.1,0.2-1.5,0.7C44.3,10.3,44.1,11,44.1,12z"/>
			<path class="st0" d="M56.9,13.5l1.4,0.2c-0.2,0.8-0.6,1.4-1.2,1.9c-0.6,0.5-1.3,0.7-2.2,0.7c-1.1,0-2-0.4-2.7-1.1
				c-0.7-0.7-1-1.7-1-2.9c0-1.3,0.3-2.3,1-3C52.9,8.6,53.7,8,54.7,8s1.9,0.4,2.5,1.1c0.7,0.7,1,1.7,1,3c0,0.1,0,0.2,0,0.4h-5.8
				c0,0.9,0.3,1.5,0.7,2s1,0.7,1.6,0.7c0.5,0,0.9-0.1,1.2-0.4S56.7,14,56.9,13.5z M52.6,11.3h4.3c-0.1-0.7-0.2-1.1-0.5-1.5
				C56,9.3,55.4,9,54.8,9s-1.1,0.2-1.5,0.6C52.8,10.1,52.6,10.7,52.6,11.3z"/>
			<path class="st0" d="M59.9,16V8.2h1.2v1.1C61.7,8.5,62.5,8,63.6,8c0.5,0,0.9,0.1,1.3,0.3s0.7,0.4,0.9,0.7c0.2,0.3,0.3,0.6,0.4,1
				c0,0.2,0.1,0.7,0.1,1.3V16H65v-4.7c0-0.5-0.1-0.9-0.2-1.2s-0.3-0.5-0.5-0.6c-0.3-0.2-0.6-0.2-0.9-0.2c-0.6,0-1,0.2-1.5,0.5
				c-0.4,0.4-0.6,1-0.6,2V16H59.9z"/>
		</g>
	</g>
	<g>
		<g class="st1">
			<path class="st0" d="M73.8,58.3V47.5h3.7c0.8,0,1.5,0.1,1.9,0.2c0.6,0.1,1.1,0.4,1.6,0.8c0.6,0.5,1,1.1,1.3,1.8s0.4,1.6,0.4,2.6
				c0,0.8-0.1,1.5-0.3,2.2c-0.2,0.6-0.4,1.2-0.7,1.6c-0.3,0.4-0.6,0.7-1,1c-0.4,0.2-0.8,0.4-1.3,0.5s-1.1,0.2-1.7,0.2L73.8,58.3
				L73.8,58.3z M75.2,57h2.3c0.7,0,1.3-0.1,1.7-0.2c0.4-0.1,0.7-0.3,1-0.6s0.6-0.8,0.8-1.4c0.2-0.6,0.3-1.3,0.3-2.1
				c0-1.1-0.2-2-0.6-2.6s-0.8-1-1.3-1.2c-0.4-0.1-1-0.2-1.8-0.2h-2.3L75.2,57L75.2,57z"/>
			<path class="st0" d="M89.8,55.8l1.4,0.2c-0.2,0.8-0.6,1.4-1.2,1.9s-1.3,0.7-2.2,0.7c-1.1,0-2-0.4-2.7-1.1c-0.7-0.7-1-1.7-1-2.9
				c0-1.3,0.3-2.3,1-3s1.5-1.1,2.6-1.1c1,0,1.9,0.4,2.5,1.1c0.7,0.7,1,1.7,1,3c0,0.1,0,0.2,0,0.4h-5.8c0,0.9,0.3,1.5,0.7,2
				c0.4,0.5,1,0.7,1.6,0.7c0.5,0,0.9-0.1,1.2-0.4S89.6,56.3,89.8,55.8z M85.4,53.6h4.3c-0.1-0.7-0.2-1.1-0.5-1.5
				c-0.4-0.5-1-0.8-1.6-0.8s-1.1,0.2-1.5,0.6C85.7,52.4,85.5,53,85.4,53.6z"/>
			<path class="st0" d="M97.9,58.3v-1.1c-0.6,0.9-1.4,1.3-2.5,1.3c-0.5,0-0.9-0.1-1.3-0.3s-0.7-0.4-0.9-0.7c-0.2-0.3-0.3-0.6-0.4-1
				c-0.1-0.3-0.1-0.7-0.1-1.2v-4.8H94v4.3c0,0.7,0,1.2,0.1,1.4c0.1,0.3,0.3,0.6,0.5,0.8c0.3,0.2,0.6,0.3,1,0.3s0.8-0.1,1.1-0.3
				c0.3-0.2,0.6-0.5,0.7-0.8s0.2-0.9,0.2-1.5v-4.2h1.3v7.8H97.9z"/>
			<path class="st0" d="M104,57.1l0.2,1.2c-0.4,0.1-0.7,0.1-1,0.1c-0.5,0-0.8-0.1-1.1-0.2c-0.3-0.2-0.4-0.3-0.6-0.6
				c-0.1-0.2-0.2-0.8-0.2-1.6v-4.5h-1v-1h1v-1.9l1.3-0.8v2.7h1.3v1h-1.3V56c0,0.4,0,0.6,0.1,0.7c0,0.1,0.1,0.2,0.2,0.3
				s0.3,0.1,0.5,0.1C103.6,57.2,103.8,57.1,104,57.1z"/>
			<path class="st0" d="M104.8,56l1.3-0.2c0.1,0.5,0.3,0.9,0.6,1.2c0.3,0.3,0.8,0.4,1.4,0.4s1.1-0.1,1.3-0.4
				c0.3-0.2,0.4-0.5,0.4-0.9c0-0.3-0.1-0.5-0.4-0.7c-0.2-0.1-0.6-0.3-1.3-0.4c-1-0.2-1.6-0.5-2-0.6c-0.4-0.2-0.7-0.4-0.8-0.7
				c-0.2-0.3-0.3-0.7-0.3-1s0.1-0.7,0.2-1c0.2-0.3,0.4-0.5,0.6-0.7s0.5-0.3,0.8-0.4c0.4-0.1,0.7-0.2,1.1-0.2c0.6,0,1.1,0.1,1.6,0.3
				s0.8,0.4,1,0.7s0.4,0.7,0.5,1.2l-1.3,0.2c-0.1-0.4-0.2-0.7-0.5-0.9s-0.7-0.3-1.2-0.3c-0.6,0-1,0.1-1.3,0.3s-0.4,0.4-0.4,0.7
				c0,0.2,0.1,0.3,0.2,0.5c0.1,0.1,0.3,0.3,0.5,0.4c0.1,0,0.5,0.2,1.2,0.3c0.9,0.2,1.6,0.5,2,0.6c0.4,0.2,0.7,0.4,0.9,0.7
				s0.3,0.7,0.3,1.1c0,0.4-0.1,0.9-0.4,1.2c-0.3,0.4-0.6,0.7-1.1,0.9s-1,0.3-1.6,0.3c-1,0-1.8-0.2-2.3-0.6
				C105.3,57.4,104.9,56.8,104.8,56z"/>
			<path class="st0" d="M117.9,55.4l1.3,0.2c-0.1,0.9-0.5,1.6-1.1,2.1s-1.3,0.8-2.1,0.8c-1.1,0-1.9-0.3-2.6-1c-0.6-0.7-1-1.7-1-3
				c0-0.8,0.1-1.6,0.4-2.2s0.7-1.1,1.3-1.4c0.6-0.3,1.2-0.5,1.9-0.5c0.8,0,1.5,0.2,2.1,0.6c0.5,0.4,0.9,1,1,1.8l-1.3,0.2
				c-0.1-0.5-0.3-0.9-0.6-1.2c-0.3-0.3-0.7-0.4-1.1-0.4c-0.7,0-1.2,0.2-1.6,0.7s-0.6,1.2-0.6,2.3c0,1,0.2,1.8,0.6,2.3
				s0.9,0.7,1.6,0.7c0.5,0,0.9-0.2,1.3-0.5C117.6,56.6,117.8,56.1,117.9,55.4z"/>
			<path class="st0" d="M120.3,58.3V47.5h1.3v3.9c0.6-0.7,1.4-1.1,2.3-1.1c0.6,0,1.1,0.1,1.5,0.3s0.7,0.5,0.9,0.9s0.3,1,0.3,1.7v4.9
				h-1.3v-4.9c0-0.7-0.1-1.1-0.4-1.4c-0.3-0.3-0.7-0.5-1.2-0.5c-0.4,0-0.8,0.1-1.1,0.3s-0.6,0.5-0.7,0.8c-0.1,0.3-0.2,0.8-0.2,1.4
				v4.3h-1.4V58.3z"/>
			<path class="st0" d="M128.6,58.3V47.5h1.3v10.7L128.6,58.3L128.6,58.3z"/>
			<path class="st0" d="M137,57.3c-0.5,0.4-1,0.7-1.4,0.9c-0.5,0.2-0.9,0.3-1.5,0.3c-0.9,0-1.5-0.2-2-0.6c-0.5-0.4-0.7-1-0.7-1.6
				c0-0.4,0.1-0.7,0.3-1s0.4-0.6,0.7-0.8s0.6-0.3,0.9-0.4c0.3-0.1,0.6-0.1,1.2-0.2c1.1-0.1,1.8-0.3,2.4-0.5c0-0.2,0-0.3,0-0.3
				c0-0.5-0.1-0.9-0.4-1.1c-0.3-0.3-0.8-0.4-1.5-0.4c-0.6,0-1.1,0.1-1.4,0.3c-0.3,0.2-0.5,0.6-0.7,1.2l-1.3-0.2
				c0.1-0.6,0.3-1,0.6-1.3s0.7-0.6,1.2-0.8s1.1-0.3,1.8-0.3s1.2,0.1,1.6,0.2s0.7,0.4,0.9,0.6c0.2,0.2,0.3,0.5,0.4,0.9
				c0,0.2,0.1,0.6,0.1,1.2V55c0,1.2,0,2,0.1,2.3s0.2,0.6,0.3,0.9h-1.4C137.2,58,137.1,57.7,137,57.3z M136.9,54.4
				c-0.5,0.2-1.2,0.4-2.2,0.5c-0.5,0.1-0.9,0.2-1.2,0.3c-0.2,0.1-0.4,0.2-0.5,0.4s-0.2,0.4-0.2,0.6c0,0.4,0.1,0.6,0.4,0.9
				c0.3,0.2,0.7,0.4,1.2,0.4s1-0.1,1.4-0.3s0.7-0.5,0.9-0.9c0.1-0.3,0.2-0.7,0.2-1.3L136.9,54.4L136.9,54.4z"/>
			<path class="st0" d="M140.3,58.3v-7.8h1.2v1.1c0.6-0.9,1.4-1.3,2.5-1.3c0.5,0,0.9,0.1,1.3,0.3c0.4,0.2,0.7,0.4,0.9,0.7
				s0.3,0.6,0.4,1c0,0.2,0.1,0.7,0.1,1.3v4.8h-1.3v-4.7c0-0.5-0.1-0.9-0.2-1.2c-0.1-0.3-0.3-0.5-0.5-0.6c-0.3-0.2-0.6-0.2-0.9-0.2
				c-0.6,0-1,0.2-1.5,0.5c-0.4,0.4-0.6,1-0.6,2v4.2L140.3,58.3L140.3,58.3z"/>
			<path class="st0" d="M153.7,58.3v-1c-0.5,0.8-1.2,1.2-2.2,1.2c-0.6,0-1.2-0.2-1.7-0.5s-0.9-0.8-1.2-1.4c-0.3-0.6-0.4-1.3-0.4-2.1
				s0.1-1.5,0.4-2.1c0.3-0.6,0.6-1.1,1.2-1.5c0.5-0.3,1.1-0.5,1.7-0.5c0.5,0,0.9,0.1,1.3,0.3c0.4,0.2,0.7,0.5,0.9,0.8v-3.9h1.3v10.7
				H153.7z M149.5,54.4c0,1,0.2,1.7,0.6,2.2c0.4,0.5,0.9,0.7,1.5,0.7s1.1-0.2,1.5-0.7s0.6-1.2,0.6-2.2c0-1.1-0.2-1.8-0.6-2.3
				s-0.9-0.7-1.5-0.7s-1.1,0.2-1.5,0.7C149.7,52.6,149.5,53.4,149.5,54.4z"/>
		</g>
		<g>
			<path class="st0" d="M116.4,81c1.1-0.4,1.9-1.1,1.9-2.2c0-1-0.6-2-2.1-2c-1.4,0-2.1,0.9-2.1,2C114,80,115,80.7,116.4,81z"/>
			<path class="st0" d="M115.9,82.2c-1.4,0.4-2.2,1.4-2.2,2.5c-0.1,1.2,0.9,2.3,2.5,2.3c1.5,0,2.5-0.9,2.5-2.2
				C118.6,83.4,117.6,82.7,115.9,82.2z"/>
			<path class="st0" d="M145.7,66.8h-63v105.3h63V66.8z M96.9,88.1h-0.2h-7.8v-1l1.3-1.3c3.1-3,4.5-4.6,4.6-6.4
				c0-1.2-0.6-2.4-2.4-2.4c-1.1,0-2,0.6-2.6,1l-0.5-1.2c0.8-0.7,2.1-1.2,3.5-1.2c2.6,0,3.8,1.8,3.8,3.6c0,2.3-1.6,4.1-4.2,6.6
				l-1,0.9h5.5C96.9,86.7,96.9,88.1,96.9,88.1z M106.6,88.1h-0.2h-7.8v-1l1.3-1.3c3.1-3,4.5-4.6,4.6-6.4c0-1.2-0.6-2.4-2.4-2.4
				c-1.1,0-2,0.6-2.6,1L99,76.8c0.8-0.7,2.1-1.2,3.5-1.2c2.6,0,3.8,1.8,3.8,3.6c0,2.3-1.6,4.1-4.2,6.6l-1,0.9h5.5
				C106.6,86.7,106.6,88.1,106.6,88.1z M108.9,90.3l-1.2,0.1c0.4-1.1,0.9-3.1,1.1-4.5l1.8-0.2C110.2,87.3,109.4,89.4,108.9,90.3z
				 M116.1,88.3c-2.6,0-4.1-1.5-4.1-3.3c0-1.5,0.9-2.6,2.4-3.3v-0.1c-1.4-0.6-1.9-1.7-1.9-2.8c0-1.9,1.6-3.3,3.8-3.3
				c2.4,0,3.6,1.5,3.6,3c0,1-0.5,2.2-2,2.9v0.1c1.5,0.6,2.5,1.7,2.5,3.2C120.3,86.9,118.4,88.3,116.1,88.3z M128,88.1l-3.2-4.4
				l-0.8,0.9V88h-1.6V74.6h1.6v8.5c0.2-0.3,0.5-0.7,0.8-1l2.7-3.2h2l-3.5,3.8l4,5.4C130,88.1,128,88.1,128,88.1z M139,86.8
				c0,2.1-0.4,3.4-1.3,4.2s-2.2,1.1-3.3,1.1s-2.3-0.3-3-0.8l0.4-1.3c0.6,0.4,1.5,0.7,2.7,0.7c1.7,0,2.9-0.9,2.9-3.2v-1
				c-0.5,0.8-1.5,1.5-2.9,1.5c-2.3,0-3.9-1.9-3.9-4.5c0-3.1,2-4.9,4.1-4.9c1.6,0,2.5,0.8,2.9,1.6l0.1-1.4h1.5
				c-0.2,0.8-0.2,1.6-0.2,2.7V86.8z"/>
			<path class="st0" d="M134.9,80.1c-1.6,0-2.7,1.3-2.7,3.5c0,1.8,0.9,3.3,2.7,3.3c1,0,1.9-0.6,2.3-1.7c0.1-0.3,0.1-0.6,0.1-0.9
				v-1.6c0-0.3,0-0.5-0.1-0.8C137,80.9,136.2,80.1,134.9,80.1z"/>
		</g>
	</g>
	<g>
		<g class="st1">
			<path class="st0" d="M188.4,68.4h1.4v6.2c0,1.1-0.1,1.9-0.4,2.6s-0.7,1.2-1.3,1.5c-0.6,0.4-1.5,0.6-2.5,0.6s-1.8-0.2-2.5-0.5
				s-1.1-0.8-1.4-1.5c-0.3-0.7-0.4-1.6-0.4-2.7v-6.2h1.4v6.2c0,0.9,0.1,1.6,0.3,2.1c0.2,0.4,0.5,0.8,0.9,1s0.9,0.4,1.5,0.4
				c1,0,1.8-0.2,2.2-0.7s0.7-1.4,0.7-2.7v-6.3H188.4z"/>
			<path class="st0" d="M191.7,75.7l1.3-0.1c0.1,0.5,0.2,1,0.4,1.3s0.6,0.6,1.1,0.8c0.5,0.2,1,0.3,1.6,0.3c0.5,0,1-0.1,1.4-0.2
				s0.7-0.4,0.9-0.7c0.2-0.3,0.3-0.6,0.3-0.9s-0.1-0.6-0.3-0.9s-0.5-0.5-1-0.6c-0.3-0.1-0.9-0.3-1.9-0.5s-1.7-0.5-2.1-0.7
				c-0.5-0.3-0.9-0.6-1.1-1c-0.3-0.4-0.4-0.8-0.4-1.3s0.2-1,0.5-1.5s0.8-0.8,1.3-1.1c0.6-0.2,1.2-0.4,2-0.4s1.5,0.1,2.1,0.4
				s1.1,0.6,1.4,1.1s0.5,1.1,0.5,1.7l-1.4,0.1c-0.1-0.7-0.3-1.2-0.7-1.5s-1-0.5-1.9-0.5s-1.5,0.2-1.9,0.5s-0.6,0.7-0.6,1.1
				s0.1,0.7,0.4,1c0.3,0.2,1,0.5,2.1,0.8c1.2,0.3,1.9,0.5,2.4,0.7c0.6,0.3,1.1,0.7,1.4,1.1c0.3,0.4,0.4,1,0.4,1.5
				c0,0.6-0.2,1.1-0.5,1.6s-0.8,0.9-1.4,1.2c-0.6,0.3-1.3,0.4-2.1,0.4c-1,0-1.8-0.1-2.4-0.4c-0.7-0.3-1.2-0.7-1.5-1.3
				C192,77.1,191.8,76.4,191.7,75.7z"/>
			<path class="st0" d="M201.1,79.1l4.1-10.7h1.5l4.4,10.7h-1.6l-1.3-3.3h-4.5l-1.2,3.3H201.1z M204.2,74.7h3.6l-1.1-3
				c-0.3-0.9-0.6-1.6-0.8-2.2c-0.1,0.7-0.3,1.4-0.6,2.1L204.2,74.7z"/>
		</g>
		<g>
			<path class="st0" d="M215.8,100.9c-1.6,0-2.7,1.3-2.7,3.5c0,1.8,0.9,3.3,2.7,3.3c1,0,1.9-0.6,2.3-1.7c0.1-0.3,0.1-0.6,0.1-0.9
				v-1.6c0-0.3,0-0.5-0.1-0.8C217.8,101.7,217,100.9,215.8,100.9z"/>
			<path class="st0" d="M197.1,100.1l-3,4.2l0,0h4v-4.1c0-0.6,0-1.3,0.1-1.9h-0.1C197.7,99,197.4,99.5,197.1,100.1z"/>
			<path class="st0" d="M183.3,97.7c-1.4,0-2.4,1.2-2.4,3c0,1.5,0.9,2.6,2.4,2.6c1.1,0,2-0.5,2.4-1.3c0.1-0.2,0.2-0.3,0.2-0.6
				C185.9,99.3,185.1,97.7,183.3,97.7z"/>
			<path class="st0" d="M226.5,87.6h-63v85h63V87.6z M175,108.9L175,108.9h-1.7V98.2l-2.1,1.2l-0.3-1.3l2.7-1.4h1.4L175,108.9
				L175,108.9z M185.4,107.4c-0.9,0.9-2.2,1.5-3.6,1.6c-0.6,0.1-1.1,0.1-1.5,0.1v-1.4c0.4,0,0.8,0,1.3-0.1c1-0.1,1.9-0.5,2.6-1.2
				c0.8-0.7,1.4-1.8,1.6-3.3h-0.1c-0.7,0.8-1.7,1.3-2.9,1.3c-2.2,0-3.6-1.7-3.6-3.8c0-2.3,1.7-4.4,4.2-4.4s4.1,2,4.1,5.2
				C187.5,104.3,186.6,106.2,185.4,107.4z M189.7,111.1l-1.2,0.1c0.4-1.1,0.9-3.1,1.1-4.5l1.8-0.2
				C191.1,108.1,190.2,110.2,189.7,111.1z M201.4,105.6h-1.7v3.3h-1.6v-3.3h-5.7v-1.1l5.5-7.8h1.8v7.6h1.7V105.6z M208.8,109
				L208.8,109l-3.2-4.5l-0.8,0.9v3.4h-1.6V95.5h1.6v8.5c0.2-0.3,0.5-0.7,0.8-1l2.7-3.2h2l-3.5,3.8l4,5.4
				C210.8,109,208.8,109,208.8,109z M219.8,107.6c0,2.1-0.4,3.4-1.3,4.2c-0.9,0.8-2.2,1.1-3.3,1.1s-2.3-0.3-3-0.8l0.4-1.3
				c0.6,0.4,1.5,0.7,2.7,0.7c1.7,0,2.9-0.9,2.9-3.2v-1c-0.5,0.8-1.5,1.5-2.9,1.5c-2.3,0-3.9-1.9-3.9-4.5c0-3.1,2-4.9,4.1-4.9
				c1.6,0,2.5,0.8,2.9,1.6l0.1-1.4h1.5c-0.1,0.8-0.2,1.6-0.2,2.7V107.6z"/>
		</g>
	</g>
	<g>
		<g class="st1">
			<path class="st0" d="M265,132.4l1.4,0.4c-0.3,1.2-0.8,2.1-1.6,2.7c-0.8,0.6-1.7,0.9-2.8,0.9c-1.2,0-2.1-0.2-2.8-0.7
				c-0.7-0.5-1.3-1.2-1.7-2c-0.4-0.9-0.6-1.9-0.6-2.9c0-1.1,0.2-2.1,0.6-2.9c0.4-0.8,1-1.5,1.8-1.9s1.7-0.6,2.6-0.6
				c1.1,0,2,0.3,2.7,0.8s1.2,1.3,1.5,2.3l-1.4,0.3c-0.2-0.8-0.6-1.4-1.1-1.7s-1.1-0.5-1.8-0.5c-0.8,0-1.5,0.2-2.1,0.6
				s-0.9,0.9-1.2,1.6c-0.2,0.7-0.3,1.4-0.3,2.1c0,0.9,0.1,1.7,0.4,2.4s0.7,1.2,1.2,1.5s1.2,0.5,1.8,0.5c0.8,0,1.5-0.2,2-0.7
				S264.8,133.3,265,132.4z"/>
			<path class="st0" d="M268,136.2v-10.7h1.3v3.9c0.6-0.7,1.4-1.1,2.3-1.1c0.6,0,1.1,0.1,1.5,0.3s0.7,0.5,0.9,0.9
				c0.2,0.4,0.3,1,0.3,1.7v4.9H273v-4.9c0-0.7-0.1-1.1-0.4-1.4c-0.3-0.3-0.7-0.5-1.2-0.5c-0.4,0-0.8,0.1-1.1,0.3
				c-0.3,0.2-0.6,0.5-0.7,0.8s-0.2,0.8-0.2,1.4v4.3H268V136.2z"/>
			<path class="st0" d="M276.4,127v-1.5h1.3v1.5H276.4z M276.4,136.2v-7.8h1.3v7.8H276.4z"/>
			<path class="st0" d="M279.7,136.2v-7.8h1.2v1.1c0.6-0.9,1.4-1.3,2.5-1.3c0.5,0,0.9,0.1,1.3,0.3s0.7,0.4,0.9,0.7
				c0.2,0.3,0.3,0.6,0.4,1c0,0.2,0.1,0.7,0.1,1.3v4.8h-1.3v-4.7c0-0.5-0.1-0.9-0.2-1.2s-0.3-0.5-0.5-0.6c-0.3-0.2-0.6-0.2-0.9-0.2
				c-0.6,0-1,0.2-1.5,0.5c-0.4,0.4-0.6,1-0.6,2v4.2h-1.4V136.2z"/>
			<path class="st0" d="M293.1,135.2c-0.5,0.4-1,0.7-1.4,0.9c-0.5,0.2-0.9,0.3-1.5,0.3c-0.9,0-1.5-0.2-2-0.6c-0.5-0.4-0.7-1-0.7-1.6
				c0-0.4,0.1-0.7,0.3-1c0.2-0.3,0.4-0.6,0.7-0.8c0.3-0.2,0.6-0.3,0.9-0.4c0.3-0.1,0.6-0.1,1.2-0.2c1.1-0.1,1.8-0.3,2.4-0.5
				c0-0.2,0-0.3,0-0.3c0-0.5-0.1-0.9-0.4-1.1c-0.3-0.3-0.8-0.4-1.5-0.4c-0.6,0-1.1,0.1-1.4,0.3s-0.5,0.6-0.7,1.2l-1.3-0.2
				c0.1-0.6,0.3-1,0.6-1.3c0.3-0.3,0.7-0.6,1.2-0.8s1.1-0.3,1.8-0.3c0.7,0,1.2,0.1,1.6,0.2s0.7,0.4,0.9,0.6c0.2,0.2,0.3,0.5,0.4,0.9
				c0,0.2,0.1,0.6,0.1,1.2v1.8c0,1.2,0,2,0.1,2.3s0.2,0.6,0.3,0.9h-1.3C293.2,135.9,293.1,135.6,293.1,135.2z M293,132.3
				c-0.5,0.2-1.2,0.4-2.2,0.5c-0.5,0.1-0.9,0.2-1.1,0.3s-0.4,0.2-0.5,0.4s-0.2,0.4-0.2,0.6c0,0.4,0.1,0.6,0.4,0.9
				c0.3,0.2,0.7,0.4,1.2,0.4s1-0.1,1.4-0.3s0.7-0.5,0.9-0.9c0.1-0.3,0.2-0.7,0.2-1.3L293,132.3L293,132.3z"/>
		</g>
		<g>
			<path class="st0" d="M292.4,157.8c-1.6,0-2.7,1.3-2.7,3.5c0,1.8,0.9,3.3,2.7,3.3c1,0,1.9-0.6,2.3-1.7c0.1-0.3,0.1-0.6,0.1-0.9
				v-1.6c0-0.3,0-0.5-0.1-0.8C294.5,158.6,293.6,157.8,292.4,157.8z"/>
			<path class="st0" d="M308,144.5h-63v27.9h63V144.5z M259,166c-1.3,0-2.5-0.4-3.1-0.8l0.4-1.3c0.5,0.3,1.5,0.7,2.6,0.7
				c1.6,0,2.9-1,2.9-2.7c0-1.6-1.1-2.7-3.5-2.7c-0.7,0-1.2,0.1-1.7,0.1l0.8-5.9h5.9v1.4h-4.7l-0.5,3.2c0.3,0,0.5-0.1,1-0.1
				c0.9,0,1.9,0.2,2.6,0.7c1,0.5,1.8,1.6,1.8,3.2C263.6,164.2,261.7,166,259,166z M266.4,168l-1.2,0.1c0.4-1.1,0.9-3.1,1.1-4.5
				l1.8-0.2C267.7,165.1,266.9,167.2,266.4,168z M277.5,165.8h-7.8v-1l1.3-1.3c3.1-3,4.5-4.6,4.6-6.4c0-1.2-0.6-2.4-2.4-2.4
				c-1.1,0-2,0.6-2.6,1l-0.7-1.1c0.8-0.7,2.1-1.2,3.5-1.2c2.6,0,3.8,1.8,3.8,3.6c0,2.3-1.6,4.1-4.2,6.6l-1,0.9h5.5L277.5,165.8
				L277.5,165.8z M285.5,165.8L285.5,165.8l-3.2-4.4l-0.8,0.9v3.4h-1.6v-13.4h1.6v8.5c0.2-0.3,0.5-0.7,0.8-1l2.7-3.2h2l-3.5,3.8
				l4,5.4H285.5z M296.5,164.5c0,2.1-0.4,3.4-1.3,4.2s-2.2,1.1-3.3,1.1s-2.3-0.3-3-0.8l0.4-1.3c0.6,0.4,1.5,0.7,2.7,0.7
				c1.7,0,2.9-0.9,2.9-3.2v-1c-0.5,0.8-1.5,1.5-2.9,1.5c-2.3,0-3.9-1.9-3.9-4.5c0-3.1,2-4.9,4.1-4.9c1.6,0,2.5,0.8,2.9,1.6l0.1-1.4
				h1.5c-0.2,0.9-0.2,1.6-0.2,2.7L296.5,164.5L296.5,164.5z"/>
		</g>
	</g>
	<g>
		<g class="st1">
			<path class="st0" d="M336.9,149.6l4.1-10.7h1.5l4.4,10.7h-1.6l-1.3-3.3h-4.5l-1.2,3.3H336.9z M340,145.2h3.6l-1.1-3
				c-0.3-0.9-0.6-1.6-0.8-2.2c-0.1,0.7-0.3,1.4-0.6,2.1L340,145.2z"/>
			<path class="st0" d="M348.2,149.6v-6.8H347v-1h1.2V141c0-0.5,0-0.9,0.1-1.2s0.3-0.6,0.7-0.8c0.3-0.2,0.8-0.3,1.3-0.3
				c0.4,0,0.8,0,1.2,0.1l-0.1,1.2c-0.3,0-0.5-0.1-0.8-0.1c-0.4,0-0.7,0.1-0.8,0.3s-0.2,0.5-0.2,1v0.7h1.5v1h-1.5v6.8L348.2,149.6
				L348.2,149.6z"/>
			<path class="st0" d="M352,149.6v-7.8h1.2v1.2c0.3-0.6,0.6-0.9,0.8-1.1c0.3-0.2,0.5-0.3,0.8-0.3c0.4,0,0.9,0.1,1.4,0.4l-0.5,1.2
				c-0.3-0.2-0.6-0.3-1-0.3c-0.3,0-0.5,0.1-0.8,0.3c-0.2,0.2-0.4,0.4-0.5,0.7c-0.1,0.5-0.2,1-0.2,1.5v4.1H352V149.6z"/>
			<path class="st0" d="M357.1,140.4v-1.5h1.3v1.5H357.1z M357.1,149.6v-7.8h1.3v7.8H357.1z"/>
			<path class="st0" d="M360.4,149.6v-10.7h1.3v6.1l3.1-3.2h1.7l-3,2.9l3.3,4.9h-1.6l-2.6-4l-0.9,0.9v3.1H360.4z"/>
			<path class="st0" d="M373,148.7c-0.5,0.4-1,0.7-1.4,0.9c-0.5,0.2-0.9,0.3-1.5,0.3c-0.9,0-1.5-0.2-2-0.6c-0.5-0.4-0.7-1-0.7-1.6
				c0-0.4,0.1-0.7,0.3-1c0.2-0.3,0.4-0.6,0.7-0.8c0.3-0.2,0.6-0.3,0.9-0.4c0.3-0.1,0.6-0.1,1.2-0.2c1.1-0.1,1.8-0.3,2.4-0.5
				c0-0.2,0-0.3,0-0.3c0-0.5-0.1-0.9-0.4-1.1c-0.3-0.3-0.8-0.4-1.5-0.4c-0.6,0-1.1,0.1-1.4,0.3s-0.5,0.6-0.7,1.2l-1.3-0.2
				c0.1-0.6,0.3-1,0.6-1.3c0.3-0.3,0.7-0.6,1.2-0.8s1.1-0.3,1.8-0.3c0.7,0,1.2,0.1,1.6,0.2s0.7,0.4,0.9,0.6c0.2,0.2,0.3,0.5,0.4,0.9
				c0,0.2,0.1,0.6,0.1,1.2v1.8c0,1.2,0,2,0.1,2.3s0.2,0.6,0.3,0.9h-1.4C373.1,149.4,373,149,373,148.7z M372.8,145.7
				c-0.5,0.2-1.2,0.4-2.2,0.5c-0.5,0.1-0.9,0.2-1.2,0.3c-0.2,0.1-0.4,0.2-0.5,0.4s-0.2,0.4-0.2,0.6c0,0.4,0.1,0.6,0.4,0.9
				c0.3,0.2,0.7,0.4,1.2,0.4s1-0.1,1.4-0.3s0.7-0.5,0.9-0.9c0.1-0.3,0.2-0.7,0.2-1.3L372.8,145.7L372.8,145.7z"/>
		</g>
		<g>
			<path class="st0" d="M325.6,158.2v14.4h63v-14.4H325.6z"/>
		</g>
	</g>
</g>
</svg>
