<?xml version="1.0" encoding="utf-8"?>
<!-- Generator: Adobe Illustrator 24.0.2, SVG Export Plug-In . SVG Version: 6.00 Build 0)  -->
<svg version="1.1" id="Layer_1" xmlns="http://www.w3.org/2000/svg" xmlns:xlink="http://www.w3.org/1999/xlink" x="0px" y="0px"
	 viewBox="0 0 409.8 176.1" style="enable-background:new 0 0 409.8 176.1;" xml:space="preserve">
<style type="text/css">
	.st0{fill:#FFFFFF;}
	.st1{enable-background:new    ;}
</style>
<title>Artboard 5</title>
<title>Artboard 5</title>
<g>
	<g>
		<g>
			<path class="st0" d="M31.2,39.9c-1.4,0.4-2.2,1.4-2.2,2.5c-0.1,1.2,0.9,2.3,2.5,2.3c1.5,0,2.5-0.9,2.5-2.2
				C33.9,41.1,32.9,40.4,31.2,39.9z"/>
			<path class="st0" d="M31.7,38.7c1.1-0.4,1.9-1.1,1.9-2.2c0-1-0.6-2-2.1-2c-1.4,0-2.1,0.9-2.1,2C29.3,37.7,30.2,38.3,31.7,38.7z"
				/>
			<path class="st0" d="M63.8,37.7c-1.6,0-2.7,1.3-2.7,3.5c0,1.8,0.9,3.3,2.7,3.3c1,0,1.9-0.6,2.3-1.7c0.1-0.3,0.1-0.6,0.1-0.9v-1.6
				c0-0.3,0-0.5-0.1-0.8C65.9,38.5,65,37.7,63.8,37.7z"/>
			<path class="st0" d="M74.6,24.5h-63v147.6h63V24.5z M25.6,45.8h-7.8v-1l1.3-1.3c3.1-3,4.5-4.6,4.6-6.4c0-1.2-0.6-2.4-2.4-2.4
				c-1.1,0-2,0.6-2.6,1l-0.5-1.2c0.8-0.7,2.1-1.2,3.5-1.2c2.6,0,3.8,1.8,3.8,3.6c0,2.3-1.6,4.1-4.2,6.6l-1,0.9h5.3
				C25.6,44.4,25.6,45.8,25.6,45.8z M31.4,46c-2.6,0-4.1-1.5-4.1-3.3c0-1.5,0.9-2.6,2.4-3.3v-0.1c-1.4-0.6-1.9-1.7-1.9-2.8
				c0-1.9,1.6-3.3,3.8-3.3c2.4,0,3.6,1.5,3.6,3c0,1-0.5,2.2-2,2.9v0.1c1.5,0.6,2.5,1.7,2.5,3.2C35.6,44.5,33.7,46,31.4,46z M37.8,48
				l-1.2,0.1c0.4-1.1,0.9-3.1,1.1-4.5l1.8-0.2C39.1,45,38.3,47.1,37.8,48z M44,46c-1.3,0-2.5-0.4-3.1-0.8l0.4-1.3
				c0.5,0.3,1.5,0.7,2.6,0.7c1.6,0,2.9-1,2.9-2.7c0-1.6-1.1-2.7-3.5-2.7c-0.7,0-1.2,0.1-1.7,0.1l0.8-5.9h5.9v1.4h-4.7L43.1,38
				c0.3,0,0.5-0.1,1-0.1c0.9,0,1.9,0.2,2.6,0.7c1,0.5,1.8,1.6,1.8,3.2C48.6,44.2,46.7,46,44,46z M56.9,45.9L56.9,45.9l-3.2-4.5
				l-0.8,0.9v3.4h-1.6V32.4h1.6v8.5c0.2-0.3,0.5-0.7,0.8-1l2.7-3.2h2l-3.5,3.8l4,5.4H56.9z M67.9,44.4c0,2.1-0.4,3.4-1.3,4.2
				c-0.9,0.8-2.2,1.1-3.3,1.1s-2.3-0.3-3-0.8l0.3-1.2c0.6,0.4,1.5,0.7,2.7,0.7c1.7,0,2.9-0.9,2.9-3.2v-1c-0.5,0.8-1.5,1.5-2.9,1.5
				c-2.3,0-3.9-1.9-3.9-4.5c0-3.1,2-4.9,4.1-4.9c1.6,0,2.5,0.8,2.9,1.6l0.1-1.4H68c-0.1,0.8-0.1,1.5-0.1,2.6V44.4z"/>
		</g>
		<g class="st1">
			<path class="st0" d="M10.6,16V5.2h1.5l5.6,8.4V5.2h1.4V16h-1.5L12,7.5V16H10.6z"/>
			<path class="st0" d="M20.8,12.1c0-1.4,0.4-2.5,1.2-3.2C22.7,8.3,23.5,8,24.5,8c1.1,0,1.9,0.4,2.6,1.1c0.7,0.7,1,1.7,1,2.9
				c0,1-0.1,1.8-0.5,2.4c-0.3,0.6-0.7,1-1.3,1.3c-0.6,0.3-1.2,0.5-1.9,0.5c-1.1,0-2-0.3-2.6-1S20.8,13.4,20.8,12.1z M22.2,12.1
				c0,1,0.2,1.7,0.7,2.2c0.4,0.5,1,0.7,1.6,0.7c0.7,0,1.2-0.2,1.6-0.7s0.7-1.3,0.7-2.3c0-1-0.2-1.7-0.7-2.2c-0.4-0.5-1-0.7-1.6-0.7
				c-0.7,0-1.2,0.2-1.6,0.7S22.2,11.1,22.2,12.1z"/>
			<path class="st0" d="M29.6,16V8.2h1.2v1.2c0.3-0.6,0.6-0.9,0.8-1.1C31.9,8.1,32.2,8,32.5,8c0.4,0,0.9,0.1,1.4,0.4l-0.5,1.2
				c-0.3-0.2-0.6-0.3-1-0.3c-0.3,0-0.5,0.1-0.8,0.3c-0.2,0.2-0.4,0.4-0.5,0.7c-0.1,0.5-0.2,1-0.2,1.5V16H29.6z"/>
			<path class="st0" d="M36.1,16l-2.4-7.8h1.4l1.2,4.5l0.5,1.7c0-0.1,0.2-0.6,0.4-1.6l1.2-4.6h1.4l1.2,4.5l0.4,1.5l0.4-1.5l1.3-4.5
				h1.3L41.9,16h-1.4l-1.2-4.7L39,10l-1.6,6H36.1z"/>
			<path class="st0" d="M50.8,13.5l1.4,0.2c-0.2,0.8-0.6,1.4-1.2,1.9s-1.3,0.7-2.2,0.7c-1.1,0-2-0.4-2.7-1.1c-0.7-0.7-1-1.7-1-2.9
				c0-1.3,0.3-2.3,1-3S47.6,8,48.7,8c1,0,1.9,0.4,2.5,1.1c0.7,0.7,1,1.7,1,3c0,0.1,0,0.2,0,0.4h-5.8c0,0.9,0.3,1.5,0.7,2
				c0.4,0.5,1,0.7,1.6,0.7c0.5,0,0.9-0.1,1.2-0.4S50.6,14,50.8,13.5z M46.5,11.3h4.3c-0.1-0.7-0.2-1.1-0.5-1.5
				c-0.4-0.5-1-0.8-1.6-0.8c-0.6,0-1.1,0.2-1.5,0.6C46.7,10.1,46.5,10.7,46.5,11.3z"/>
			<path class="st0" d="M53.6,16.6l1.3,0.2c0.1,0.4,0.2,0.7,0.4,0.9c0.3,0.2,0.8,0.4,1.3,0.4c0.6,0,1.1-0.1,1.4-0.4s0.6-0.6,0.7-1
				c0.1-0.3,0.1-0.8,0.1-1.7c-0.6,0.7-1.3,1-2.2,1c-1.1,0-1.9-0.4-2.5-1.2s-0.9-1.7-0.9-2.8c0-0.7,0.1-1.4,0.4-2.1
				c0.3-0.6,0.7-1.1,1.2-1.5C55.4,8.2,56,8,56.7,8c0.9,0,1.7,0.4,2.3,1.1V8.2h1.2v6.7c0,1.2-0.1,2.1-0.4,2.6
				c-0.2,0.5-0.6,0.9-1.2,1.2c-0.5,0.3-1.2,0.4-2,0.4c-0.9,0-1.7-0.2-2.2-0.6C53.8,18.1,53.6,17.5,53.6,16.6z M54.7,12
				c0,1,0.2,1.8,0.6,2.2s0.9,0.7,1.5,0.7c0.6,0,1.1-0.2,1.5-0.7c0.4-0.5,0.6-1.2,0.6-2.2c0-1-0.2-1.7-0.6-2.2s-0.9-0.7-1.5-0.7
				c-0.6,0-1.1,0.2-1.5,0.7C54.9,10.3,54.7,11,54.7,12z"/>
			<path class="st0" d="M67.5,13.5l1.4,0.2c-0.2,0.8-0.6,1.4-1.2,1.9s-1.3,0.7-2.2,0.7c-1.1,0-2-0.4-2.7-1.1c-0.7-0.7-1-1.7-1-2.9
				c0-1.3,0.3-2.3,1-3S64.3,8,65.3,8c1,0,1.9,0.4,2.5,1.1c0.7,0.7,1,1.7,1,3c0,0.1,0,0.2,0,0.4h-5.8c0,0.9,0.3,1.5,0.7,2
				c0.4,0.5,1,0.7,1.6,0.7c0.5,0,0.9-0.1,1.2-0.4S67.3,14,67.5,13.5z M63.2,11.3h4.3c-0.1-0.7-0.2-1.1-0.5-1.5
				c-0.4-0.5-1-0.8-1.6-0.8c-0.6,0-1.1,0.2-1.5,0.6C63.4,10.1,63.2,10.7,63.2,11.3z"/>
			<path class="st0" d="M70.5,16V8.2h1.2v1.1C72.3,8.5,73.1,8,74.2,8c0.5,0,0.9,0.1,1.3,0.3c0.4,0.2,0.7,0.4,0.9,0.7
				c0.2,0.3,0.3,0.6,0.4,1c0,0.2,0.1,0.7,0.1,1.3V16h-1.3v-4.7c0-0.5-0.1-0.9-0.2-1.2c-0.1-0.3-0.3-0.5-0.5-0.6
				c-0.3-0.2-0.6-0.2-0.9-0.2c-0.6,0-1,0.2-1.5,0.5c-0.4,0.4-0.6,1-0.6,2V16H70.5z"/>
		</g>
	</g>
	<g>
		<g class="st1">
			<path class="st0" d="M84.4,58.3V47.5h3.7c0.8,0,1.5,0.1,1.9,0.2c0.6,0.1,1.1,0.4,1.6,0.8c0.6,0.5,1,1.1,1.3,1.8
				c0.3,0.7,0.4,1.6,0.4,2.6c0,0.8-0.1,1.5-0.3,2.2c-0.2,0.6-0.4,1.2-0.7,1.6c-0.3,0.4-0.6,0.7-1,1c-0.4,0.2-0.8,0.4-1.3,0.5
				c-0.5,0.1-1.1,0.2-1.7,0.2H84.4z M85.8,57h2.3c0.7,0,1.3-0.1,1.7-0.2c0.4-0.1,0.7-0.3,1-0.6c0.3-0.3,0.6-0.8,0.8-1.4
				c0.2-0.6,0.3-1.3,0.3-2.1c0-1.1-0.2-2-0.6-2.6c-0.4-0.6-0.8-1-1.3-1.2c-0.4-0.1-1-0.2-1.8-0.2h-2.3V57z"/>
			<path class="st0" d="M100.4,55.8l1.4,0.2c-0.2,0.8-0.6,1.4-1.2,1.9s-1.3,0.7-2.2,0.7c-1.1,0-2-0.4-2.7-1.1c-0.7-0.7-1-1.7-1-2.9
				c0-1.3,0.3-2.3,1-3s1.5-1.1,2.6-1.1c1,0,1.9,0.4,2.5,1.1c0.7,0.7,1,1.7,1,3c0,0.1,0,0.2,0,0.4H96c0,0.9,0.3,1.5,0.7,2
				c0.4,0.5,1,0.7,1.6,0.7c0.5,0,0.9-0.1,1.2-0.4S100.2,56.3,100.4,55.8z M96,53.6h4.3c-0.1-0.7-0.2-1.1-0.5-1.5
				c-0.4-0.5-1-0.8-1.6-0.8c-0.6,0-1.1,0.2-1.5,0.6C96.3,52.4,96.1,53,96,53.6z"/>
			<path class="st0" d="M108.5,58.3v-1.1c-0.6,0.9-1.4,1.3-2.5,1.3c-0.5,0-0.9-0.1-1.3-0.3c-0.4-0.2-0.7-0.4-0.9-0.7
				c-0.2-0.3-0.3-0.6-0.4-1c-0.1-0.3-0.1-0.7-0.1-1.2v-4.8h1.3v4.3c0,0.7,0,1.2,0.1,1.4c0.1,0.3,0.3,0.6,0.5,0.8
				c0.3,0.2,0.6,0.3,1,0.3s0.8-0.1,1.1-0.3c0.3-0.2,0.6-0.5,0.7-0.8c0.1-0.3,0.2-0.9,0.2-1.5v-4.2h1.3v7.8H108.5z"/>
			<path class="st0" d="M114.6,57.1l0.2,1.2c-0.4,0.1-0.7,0.1-1,0.1c-0.5,0-0.8-0.1-1.1-0.2c-0.3-0.2-0.4-0.3-0.6-0.6
				c-0.1-0.2-0.2-0.8-0.2-1.6v-4.5h-1v-1h1v-1.9l1.3-0.8v2.7h1.3v1h-1.3v4.5c0,0.4,0,0.6,0.1,0.7c0,0.1,0.1,0.2,0.2,0.3
				c0.1,0.1,0.3,0.1,0.5,0.1C114.2,57.2,114.4,57.1,114.6,57.1z"/>
			<path class="st0" d="M115.4,56l1.3-0.2c0.1,0.5,0.3,0.9,0.6,1.2c0.3,0.3,0.8,0.4,1.4,0.4c0.6,0,1.1-0.1,1.3-0.4
				c0.3-0.2,0.4-0.5,0.4-0.9c0-0.3-0.1-0.5-0.4-0.7c-0.2-0.1-0.6-0.3-1.3-0.4c-1-0.2-1.6-0.5-2-0.6c-0.4-0.2-0.7-0.4-0.8-0.7
				c-0.2-0.3-0.3-0.7-0.3-1c0-0.3,0.1-0.7,0.2-1c0.2-0.3,0.4-0.5,0.6-0.7c0.2-0.2,0.5-0.3,0.8-0.4c0.4-0.1,0.7-0.2,1.1-0.2
				c0.6,0,1.1,0.1,1.6,0.3c0.5,0.2,0.8,0.4,1,0.7c0.2,0.3,0.4,0.7,0.5,1.2l-1.3,0.2c-0.1-0.4-0.2-0.7-0.5-0.9
				c-0.3-0.2-0.7-0.3-1.2-0.3c-0.6,0-1,0.1-1.3,0.3c-0.3,0.2-0.4,0.4-0.4,0.7c0,0.2,0.1,0.3,0.2,0.5c0.1,0.1,0.3,0.3,0.5,0.4
				c0.1,0,0.5,0.2,1.2,0.3c0.9,0.2,1.6,0.5,2,0.6c0.4,0.2,0.7,0.4,0.9,0.7s0.3,0.7,0.3,1.1c0,0.4-0.1,0.9-0.4,1.2
				c-0.3,0.4-0.6,0.7-1.1,0.9c-0.5,0.2-1,0.3-1.6,0.3c-1,0-1.8-0.2-2.3-0.6C115.9,57.4,115.5,56.8,115.4,56z"/>
			<path class="st0" d="M128.5,55.4l1.3,0.2c-0.1,0.9-0.5,1.6-1.1,2.1c-0.6,0.5-1.3,0.8-2.1,0.8c-1.1,0-1.9-0.3-2.6-1
				c-0.6-0.7-1-1.7-1-3c0-0.8,0.1-1.6,0.4-2.2s0.7-1.1,1.3-1.4c0.6-0.3,1.2-0.5,1.9-0.5c0.8,0,1.5,0.2,2.1,0.6c0.5,0.4,0.9,1,1,1.8
				l-1.3,0.2c-0.1-0.5-0.3-0.9-0.6-1.2c-0.3-0.3-0.7-0.4-1.1-0.4c-0.7,0-1.2,0.2-1.6,0.7c-0.4,0.5-0.6,1.2-0.6,2.3
				c0,1,0.2,1.8,0.6,2.3c0.4,0.5,0.9,0.7,1.6,0.7c0.5,0,0.9-0.2,1.3-0.5C128.2,56.6,128.4,56.1,128.5,55.4z"/>
			<path class="st0" d="M130.9,58.3V47.5h1.3v3.9c0.6-0.7,1.4-1.1,2.3-1.1c0.6,0,1.1,0.1,1.5,0.3c0.4,0.2,0.7,0.5,0.9,0.9
				c0.2,0.4,0.3,1,0.3,1.7v4.9h-1.3v-4.9c0-0.7-0.1-1.1-0.4-1.4c-0.3-0.3-0.7-0.5-1.2-0.5c-0.4,0-0.8,0.1-1.1,0.3
				c-0.3,0.2-0.6,0.5-0.7,0.8c-0.1,0.3-0.2,0.8-0.2,1.4v4.3H130.9z"/>
			<path class="st0" d="M139.2,58.3V47.5h1.3v10.7H139.2z"/>
			<path class="st0" d="M147.6,57.3c-0.5,0.4-1,0.7-1.4,0.9c-0.5,0.2-0.9,0.3-1.5,0.3c-0.9,0-1.5-0.2-2-0.6c-0.5-0.4-0.7-1-0.7-1.6
				c0-0.4,0.1-0.7,0.3-1c0.2-0.3,0.4-0.6,0.7-0.8c0.3-0.2,0.6-0.3,0.9-0.4c0.3-0.1,0.6-0.1,1.2-0.2c1.1-0.1,1.8-0.3,2.4-0.5
				c0-0.2,0-0.3,0-0.3c0-0.5-0.1-0.9-0.4-1.1c-0.3-0.3-0.8-0.4-1.5-0.4c-0.6,0-1.1,0.1-1.4,0.3c-0.3,0.2-0.5,0.6-0.7,1.2l-1.3-0.2
				c0.1-0.6,0.3-1,0.6-1.3c0.3-0.3,0.7-0.6,1.2-0.8c0.5-0.2,1.1-0.3,1.8-0.3c0.7,0,1.2,0.1,1.6,0.2s0.7,0.4,0.9,0.6
				c0.2,0.2,0.3,0.5,0.4,0.9c0,0.2,0.1,0.6,0.1,1.2V55c0,1.2,0,2,0.1,2.3c0.1,0.3,0.2,0.6,0.3,0.9h-1.4
				C147.8,58,147.7,57.7,147.6,57.3z M147.5,54.4c-0.5,0.2-1.2,0.4-2.2,0.5c-0.5,0.1-0.9,0.2-1.2,0.3c-0.2,0.1-0.4,0.2-0.5,0.4
				c-0.1,0.2-0.2,0.4-0.2,0.6c0,0.4,0.1,0.6,0.4,0.9c0.3,0.2,0.7,0.4,1.2,0.4c0.5,0,1-0.1,1.4-0.3c0.4-0.2,0.7-0.5,0.9-0.9
				c0.1-0.3,0.2-0.7,0.2-1.3V54.4z"/>
			<path class="st0" d="M150.9,58.3v-7.8h1.2v1.1c0.6-0.9,1.4-1.3,2.5-1.3c0.5,0,0.9,0.1,1.3,0.3c0.4,0.2,0.7,0.4,0.9,0.7
				c0.2,0.3,0.3,0.6,0.4,1c0,0.2,0.1,0.7,0.1,1.3v4.8h-1.3v-4.7c0-0.5-0.1-0.9-0.2-1.2c-0.1-0.3-0.3-0.5-0.5-0.6
				c-0.3-0.2-0.6-0.2-0.9-0.2c-0.6,0-1,0.2-1.5,0.5c-0.4,0.4-0.6,1-0.6,2v4.2H150.9z"/>
			<path class="st0" d="M164.3,58.3v-1c-0.5,0.8-1.2,1.2-2.2,1.2c-0.6,0-1.2-0.2-1.7-0.5c-0.5-0.3-0.9-0.8-1.2-1.4
				c-0.3-0.6-0.4-1.3-0.4-2.1c0-0.8,0.1-1.5,0.4-2.1c0.3-0.6,0.6-1.1,1.2-1.5c0.5-0.3,1.1-0.5,1.7-0.5c0.5,0,0.9,0.1,1.3,0.3
				c0.4,0.2,0.7,0.5,0.9,0.8v-3.9h1.3v10.7H164.3z M160.1,54.4c0,1,0.2,1.7,0.6,2.2c0.4,0.5,0.9,0.7,1.5,0.7c0.6,0,1.1-0.2,1.5-0.7
				c0.4-0.5,0.6-1.2,0.6-2.2c0-1.1-0.2-1.8-0.6-2.3s-0.9-0.7-1.5-0.7c-0.6,0-1.1,0.2-1.5,0.7C160.3,52.6,160.1,53.4,160.1,54.4z"/>
		</g>
		<g>
			<path class="st0" d="M127,81c1.1-0.4,1.9-1.1,1.9-2.2c0-1-0.6-2-2.1-2c-1.4,0-2.1,0.9-2.1,2C124.6,80,125.6,80.7,127,81z"/>
			<path class="st0" d="M126.5,82.2c-1.4,0.4-2.2,1.4-2.2,2.5c-0.1,1.2,0.9,2.3,2.5,2.3c1.5,0,2.5-0.9,2.5-2.2
				C129.2,83.4,128.2,82.7,126.5,82.2z"/>
			<path class="st0" d="M156.3,66.8h-63v105.3h63V66.8z M107.5,88.1h-0.2h-7.8v-1l1.3-1.3c3.1-3,4.5-4.6,4.6-6.4
				c0-1.2-0.6-2.4-2.4-2.4c-1.1,0-2,0.6-2.6,1l-0.5-1.2c0.8-0.7,2.1-1.2,3.5-1.2c2.6,0,3.8,1.8,3.8,3.6c0,2.3-1.6,4.1-4.2,6.6
				l-1,0.9h5.5C107.5,86.7,107.5,88.1,107.5,88.1z M117.2,88.1H117h-7.8v-1l1.3-1.3c3.1-3,4.5-4.6,4.6-6.4c0-1.2-0.6-2.4-2.4-2.4
				c-1.1,0-2,0.6-2.6,1l-0.5-1.2c0.8-0.7,2.1-1.2,3.5-1.2c2.6,0,3.8,1.8,3.8,3.6c0,2.3-1.6,4.1-4.2,6.6l-1,0.9h5.5
				C117.2,86.7,117.2,88.1,117.2,88.1z M119.5,90.3l-1.2,0.1c0.4-1.1,0.9-3.1,1.1-4.5l1.8-0.2C120.8,87.3,120,89.4,119.5,90.3z
				 M126.7,88.3c-2.6,0-4.1-1.5-4.1-3.3c0-1.5,0.9-2.6,2.4-3.3v-0.1c-1.4-0.6-1.9-1.7-1.9-2.8c0-1.9,1.6-3.3,3.8-3.3
				c2.4,0,3.6,1.5,3.6,3c0,1-0.5,2.2-2,2.9v0.1c1.5,0.6,2.5,1.7,2.5,3.2C130.9,86.9,129,88.3,126.7,88.3z M138.6,88.1l-3.2-4.4
				l-0.8,0.9V88H133V74.6h1.6v8.5c0.2-0.3,0.5-0.7,0.8-1l2.7-3.2h2l-3.5,3.8l4,5.4C140.6,88.1,138.6,88.1,138.6,88.1z M149.6,86.8
				c0,2.1-0.4,3.4-1.3,4.2s-2.2,1.1-3.3,1.1s-2.3-0.3-3-0.8l0.4-1.3c0.6,0.4,1.5,0.7,2.7,0.7c1.7,0,2.9-0.9,2.9-3.2v-1
				c-0.5,0.8-1.5,1.5-2.9,1.5c-2.3,0-3.9-1.9-3.9-4.5c0-3.1,2-4.9,4.1-4.9c1.6,0,2.5,0.8,2.9,1.6l0.1-1.4h1.5
				c-0.2,0.8-0.2,1.6-0.2,2.7V86.8z"/>
			<path class="st0" d="M145.5,80.1c-1.6,0-2.7,1.3-2.7,3.5c0,1.8,0.9,3.3,2.7,3.3c1,0,1.9-0.6,2.3-1.7c0.1-0.3,0.1-0.6,0.1-0.9
				v-1.6c0-0.3,0-0.5-0.1-0.8C147.6,80.9,146.8,80.1,145.5,80.1z"/>
		</g>
	</g>
	<g>
		<g class="st1">
			<path class="st0" d="M199,68.4h1.4v6.2c0,1.1-0.1,1.9-0.4,2.6s-0.7,1.2-1.3,1.5c-0.6,0.4-1.5,0.6-2.5,0.6c-1,0-1.8-0.2-2.5-0.5
				s-1.1-0.8-1.4-1.5c-0.3-0.7-0.4-1.6-0.4-2.7v-6.2h1.4v6.2c0,0.9,0.1,1.6,0.3,2.1c0.2,0.4,0.5,0.8,0.9,1c0.4,0.2,0.9,0.4,1.5,0.4
				c1,0,1.8-0.2,2.2-0.7s0.7-1.4,0.7-2.7V68.4z"/>
			<path class="st0" d="M202.3,75.7l1.3-0.1c0.1,0.5,0.2,1,0.4,1.3c0.2,0.3,0.6,0.6,1.1,0.8c0.5,0.2,1,0.3,1.6,0.3
				c0.5,0,1-0.1,1.4-0.2s0.7-0.4,0.9-0.7c0.2-0.3,0.3-0.6,0.3-0.9c0-0.3-0.1-0.6-0.3-0.9c-0.2-0.3-0.5-0.5-1-0.6
				c-0.3-0.1-0.9-0.3-1.9-0.5c-1-0.2-1.7-0.5-2.1-0.7c-0.5-0.3-0.9-0.6-1.1-1c-0.3-0.4-0.4-0.8-0.4-1.3c0-0.5,0.2-1,0.5-1.5
				c0.3-0.5,0.8-0.8,1.3-1.1c0.6-0.2,1.2-0.4,2-0.4c0.8,0,1.5,0.1,2.1,0.4c0.6,0.3,1.1,0.6,1.4,1.1s0.5,1.1,0.5,1.7l-1.4,0.1
				c-0.1-0.7-0.3-1.2-0.7-1.5c-0.4-0.3-1-0.5-1.9-0.5c-0.9,0-1.5,0.2-1.9,0.5c-0.4,0.3-0.6,0.7-0.6,1.1c0,0.4,0.1,0.7,0.4,1
				c0.3,0.2,1,0.5,2.1,0.8c1.2,0.3,1.9,0.5,2.4,0.7c0.6,0.3,1.1,0.7,1.4,1.1c0.3,0.4,0.4,1,0.4,1.5c0,0.6-0.2,1.1-0.5,1.6
				c-0.3,0.5-0.8,0.9-1.4,1.2c-0.6,0.3-1.3,0.4-2.1,0.4c-1,0-1.8-0.1-2.4-0.4c-0.7-0.3-1.2-0.7-1.5-1.3
				C202.6,77.1,202.4,76.4,202.3,75.7z"/>
			<path class="st0" d="M211.7,79.1l4.1-10.7h1.5l4.4,10.7h-1.6l-1.3-3.3h-4.5l-1.2,3.3H211.7z M214.8,74.7h3.6l-1.1-3
				c-0.3-0.9-0.6-1.6-0.8-2.2c-0.1,0.7-0.3,1.4-0.6,2.1L214.8,74.7z"/>
		</g>
		<g>
			<path class="st0" d="M226.4,100.9c-1.6,0-2.7,1.3-2.7,3.5c0,1.8,0.9,3.3,2.7,3.3c1,0,1.9-0.6,2.3-1.7c0.1-0.3,0.1-0.6,0.1-0.9
				v-1.6c0-0.3,0-0.5-0.1-0.8C228.4,101.7,227.6,100.9,226.4,100.9z"/>
			<path class="st0" d="M207.7,100.1l-3,4.2l0,0h4v-4.1c0-0.6,0-1.3,0.1-1.9h-0.1C208.3,99,208,99.5,207.7,100.1z"/>
			<path class="st0" d="M193.9,97.7c-1.4,0-2.4,1.2-2.4,3c0,1.5,0.9,2.6,2.4,2.6c1.1,0,2-0.5,2.4-1.3c0.1-0.2,0.2-0.3,0.2-0.6
				C196.5,99.3,195.7,97.7,193.9,97.7z"/>
			<path class="st0" d="M237.1,87.6h-63v85h63V87.6z M185.6,108.9L185.6,108.9h-1.7V98.2l-2.1,1.2l-0.3-1.3l2.7-1.4h1.4L185.6,108.9
				L185.6,108.9z M196,107.4c-0.9,0.9-2.2,1.5-3.6,1.6c-0.6,0.1-1.1,0.1-1.5,0.1v-1.4c0.4,0,0.8,0,1.3-0.1c1-0.1,1.9-0.5,2.6-1.2
				c0.8-0.7,1.4-1.8,1.6-3.3h-0.1c-0.7,0.8-1.7,1.3-2.9,1.3c-2.2,0-3.6-1.7-3.6-3.8c0-2.3,1.7-4.4,4.2-4.4s4.1,2,4.1,5.2
				C198.1,104.3,197.2,106.2,196,107.4z M200.3,111.1l-1.2,0.1c0.4-1.1,0.9-3.1,1.1-4.5l1.8-0.2
				C201.7,108.1,200.8,110.2,200.3,111.1z M212,105.6h-1.7v3.3h-1.6v-3.3H203v-1.1l5.5-7.8h1.8v7.6h1.7V105.6z M219.4,109L219.4,109
				l-3.2-4.5l-0.8,0.9v3.4h-1.6V95.5h1.6v8.5c0.2-0.3,0.5-0.7,0.8-1l2.7-3.2h2l-3.5,3.8l4,5.4C221.4,109,219.4,109,219.4,109z
				 M230.4,107.6c0,2.1-0.4,3.4-1.3,4.2c-0.9,0.8-2.2,1.1-3.3,1.1s-2.3-0.3-3-0.8l0.4-1.3c0.6,0.4,1.5,0.7,2.7,0.7
				c1.7,0,2.9-0.9,2.9-3.2v-1c-0.5,0.8-1.5,1.5-2.9,1.5c-2.3,0-3.9-1.9-3.9-4.5c0-3.1,2-4.9,4.1-4.9c1.6,0,2.5,0.8,2.9,1.6l0.1-1.4
				h1.5c-0.1,0.8-0.2,1.6-0.2,2.7V107.6z"/>
		</g>
	</g>
	<g>
		<g class="st1">
			<path class="st0" d="M275.6,132.4l1.4,0.4c-0.3,1.2-0.8,2.1-1.6,2.7c-0.8,0.6-1.7,0.9-2.8,0.9c-1.2,0-2.1-0.2-2.8-0.7
				c-0.7-0.5-1.3-1.2-1.7-2c-0.4-0.9-0.6-1.9-0.6-2.9c0-1.1,0.2-2.1,0.6-2.9c0.4-0.8,1-1.5,1.8-1.9c0.8-0.4,1.7-0.6,2.6-0.6
				c1.1,0,2,0.3,2.7,0.8s1.2,1.3,1.5,2.3l-1.4,0.3c-0.2-0.8-0.6-1.4-1.1-1.7s-1.1-0.5-1.8-0.5c-0.8,0-1.5,0.2-2.1,0.6
				s-0.9,0.9-1.2,1.6c-0.2,0.7-0.3,1.4-0.3,2.1c0,0.9,0.1,1.7,0.4,2.4c0.3,0.7,0.7,1.2,1.2,1.5s1.2,0.5,1.8,0.5c0.8,0,1.5-0.2,2-0.7
				S275.4,133.3,275.6,132.4z"/>
			<path class="st0" d="M278.6,136.2v-10.7h1.3v3.9c0.6-0.7,1.4-1.1,2.3-1.1c0.6,0,1.1,0.1,1.5,0.3c0.4,0.2,0.7,0.5,0.9,0.9
				c0.2,0.4,0.3,1,0.3,1.7v4.9h-1.3v-4.9c0-0.7-0.1-1.1-0.4-1.4c-0.3-0.3-0.7-0.5-1.2-0.5c-0.4,0-0.8,0.1-1.1,0.3
				c-0.3,0.2-0.6,0.5-0.7,0.8c-0.1,0.3-0.2,0.8-0.2,1.4v4.3H278.6z"/>
			<path class="st0" d="M287,127v-1.5h1.3v1.5H287z M287,136.2v-7.8h1.3v7.8H287z"/>
			<path class="st0" d="M290.3,136.2v-7.8h1.2v1.1c0.6-0.9,1.4-1.3,2.5-1.3c0.5,0,0.9,0.1,1.3,0.3c0.4,0.2,0.7,0.4,0.9,0.7
				c0.2,0.3,0.3,0.6,0.4,1c0,0.2,0.1,0.7,0.1,1.3v4.8h-1.3v-4.7c0-0.5-0.1-0.9-0.2-1.2c-0.1-0.3-0.3-0.5-0.5-0.6
				c-0.3-0.2-0.6-0.2-0.9-0.2c-0.6,0-1,0.2-1.5,0.5c-0.4,0.4-0.6,1-0.6,2v4.2H290.3z"/>
			<path class="st0" d="M303.7,135.2c-0.5,0.4-1,0.7-1.4,0.9c-0.5,0.2-0.9,0.3-1.5,0.3c-0.9,0-1.5-0.2-2-0.6c-0.5-0.4-0.7-1-0.7-1.6
				c0-0.4,0.1-0.7,0.3-1c0.2-0.3,0.4-0.6,0.7-0.8c0.3-0.2,0.6-0.3,0.9-0.4c0.3-0.1,0.6-0.1,1.2-0.2c1.1-0.1,1.8-0.3,2.4-0.5
				c0-0.2,0-0.3,0-0.3c0-0.5-0.1-0.9-0.4-1.1c-0.3-0.3-0.8-0.4-1.5-0.4c-0.6,0-1.1,0.1-1.4,0.3c-0.3,0.2-0.5,0.6-0.7,1.2l-1.3-0.2
				c0.1-0.6,0.3-1,0.6-1.3c0.3-0.3,0.7-0.6,1.2-0.8c0.5-0.2,1.1-0.3,1.8-0.3c0.7,0,1.2,0.1,1.6,0.2s0.7,0.4,0.9,0.6
				c0.2,0.2,0.3,0.5,0.4,0.9c0,0.2,0.1,0.6,0.1,1.2v1.8c0,1.2,0,2,0.1,2.3c0.1,0.3,0.2,0.6,0.3,0.9H304
				C303.8,135.9,303.7,135.6,303.7,135.2z M303.6,132.3c-0.5,0.2-1.2,0.4-2.2,0.5c-0.5,0.1-0.9,0.2-1.1,0.3
				c-0.2,0.1-0.4,0.2-0.5,0.4c-0.1,0.2-0.2,0.4-0.2,0.6c0,0.4,0.1,0.6,0.4,0.9c0.3,0.2,0.7,0.4,1.2,0.4c0.5,0,1-0.1,1.4-0.3
				c0.4-0.2,0.7-0.5,0.9-0.9c0.1-0.3,0.2-0.7,0.2-1.3V132.3z"/>
		</g>
		<g>
			<path class="st0" d="M303,157.8c-1.6,0-2.7,1.3-2.7,3.5c0,1.8,0.9,3.3,2.7,3.3c1,0,1.9-0.6,2.3-1.7c0.1-0.3,0.1-0.6,0.1-0.9v-1.6
				c0-0.3,0-0.5-0.1-0.8C305.1,158.6,304.2,157.8,303,157.8z"/>
			<path class="st0" d="M318.6,144.5h-63v27.9h63V144.5z M269.6,166c-1.3,0-2.5-0.4-3.1-0.8l0.4-1.3c0.5,0.3,1.5,0.7,2.6,0.7
				c1.6,0,2.9-1,2.9-2.7c0-1.6-1.1-2.7-3.5-2.7c-0.7,0-1.2,0.1-1.7,0.1l0.8-5.9h5.9v1.4h-4.7l-0.5,3.2c0.3,0,0.5-0.1,1-0.1
				c0.9,0,1.9,0.2,2.6,0.7c1,0.5,1.8,1.6,1.8,3.2C274.2,164.2,272.3,166,269.6,166z M277,168l-1.2,0.1c0.4-1.1,0.9-3.1,1.1-4.5
				l1.8-0.2C278.3,165.1,277.5,167.2,277,168z M288.1,165.8h-7.8v-1l1.3-1.3c3.1-3,4.5-4.6,4.6-6.4c0-1.2-0.6-2.4-2.4-2.4
				c-1.1,0-2,0.6-2.6,1l-0.7-1.1c0.8-0.7,2.1-1.2,3.5-1.2c2.6,0,3.8,1.8,3.8,3.6c0,2.3-1.6,4.1-4.2,6.6l-1,0.9h5.5L288.1,165.8
				L288.1,165.8z M296.1,165.8L296.1,165.8l-3.2-4.4l-0.8,0.9v3.4h-1.6v-13.4h1.6v8.5c0.2-0.3,0.5-0.7,0.8-1l2.7-3.2h2l-3.5,3.8
				l4,5.4H296.1z M307.1,164.5c0,2.1-0.4,3.4-1.3,4.2c-0.9,0.8-2.2,1.1-3.3,1.1s-2.3-0.3-3-0.8l0.4-1.3c0.6,0.4,1.5,0.7,2.7,0.7
				c1.7,0,2.9-0.9,2.9-3.2v-1c-0.5,0.8-1.5,1.5-2.9,1.5c-2.3,0-3.9-1.9-3.9-4.5c0-3.1,2-4.9,4.1-4.9c1.6,0,2.5,0.8,2.9,1.6l0.1-1.4
				h1.5c-0.2,0.9-0.2,1.6-0.2,2.7L307.1,164.5L307.1,164.5z"/>
		</g>
	</g>
	<g>
		<g class="st1">
			<path class="st0" d="M347.5,149.6l4.1-10.7h1.5l4.4,10.7h-1.6l-1.3-3.3h-4.5l-1.2,3.3H347.5z M350.6,145.2h3.6l-1.1-3
				c-0.3-0.9-0.6-1.6-0.8-2.2c-0.1,0.7-0.3,1.4-0.6,2.1L350.6,145.2z"/>
			<path class="st0" d="M358.8,149.6v-6.8h-1.2v-1h1.2V141c0-0.5,0-0.9,0.1-1.2c0.1-0.3,0.3-0.6,0.7-0.8c0.3-0.2,0.8-0.3,1.3-0.3
				c0.4,0,0.8,0,1.2,0.1L362,140c-0.3,0-0.5-0.1-0.8-0.1c-0.4,0-0.7,0.1-0.8,0.3s-0.2,0.5-0.2,1v0.7h1.5v1h-1.5v6.8H358.8z"/>
			<path class="st0" d="M362.6,149.6v-7.8h1.2v1.2c0.3-0.6,0.6-0.9,0.8-1.1c0.3-0.2,0.5-0.3,0.8-0.3c0.4,0,0.9,0.1,1.4,0.4l-0.5,1.2
				c-0.3-0.2-0.6-0.3-1-0.3c-0.3,0-0.5,0.1-0.8,0.3c-0.2,0.2-0.4,0.4-0.5,0.7c-0.1,0.5-0.2,1-0.2,1.5v4.1H362.6z"/>
			<path class="st0" d="M367.7,140.4v-1.5h1.3v1.5H367.7z M367.7,149.6v-7.8h1.3v7.8H367.7z"/>
			<path class="st0" d="M371,149.6v-10.7h1.3v6.1l3.1-3.2h1.7l-3,2.9l3.3,4.9h-1.6l-2.6-4l-0.9,0.9v3.1H371z"/>
			<path class="st0" d="M383.6,148.7c-0.5,0.4-1,0.7-1.4,0.9c-0.5,0.2-0.9,0.3-1.5,0.3c-0.9,0-1.5-0.2-2-0.6c-0.5-0.4-0.7-1-0.7-1.6
				c0-0.4,0.1-0.7,0.3-1c0.2-0.3,0.4-0.6,0.7-0.8c0.3-0.2,0.6-0.3,0.9-0.4c0.3-0.1,0.6-0.1,1.2-0.2c1.1-0.1,1.8-0.3,2.4-0.5
				c0-0.2,0-0.3,0-0.3c0-0.5-0.1-0.9-0.4-1.1c-0.3-0.3-0.8-0.4-1.5-0.4c-0.6,0-1.1,0.1-1.4,0.3c-0.3,0.2-0.5,0.6-0.7,1.2l-1.3-0.2
				c0.1-0.6,0.3-1,0.6-1.3c0.3-0.3,0.7-0.6,1.2-0.8c0.5-0.2,1.1-0.3,1.8-0.3c0.7,0,1.2,0.1,1.6,0.2s0.7,0.4,0.9,0.6
				c0.2,0.2,0.3,0.5,0.4,0.9c0,0.2,0.1,0.6,0.1,1.2v1.8c0,1.2,0,2,0.1,2.3c0.1,0.3,0.2,0.6,0.3,0.9h-1.4
				C383.7,149.4,383.6,149,383.6,148.7z M383.4,145.7c-0.5,0.2-1.2,0.4-2.2,0.5c-0.5,0.1-0.9,0.2-1.2,0.3c-0.2,0.1-0.4,0.2-0.5,0.4
				c-0.1,0.2-0.2,0.4-0.2,0.6c0,0.4,0.1,0.6,0.4,0.9c0.3,0.2,0.7,0.4,1.2,0.4c0.5,0,1-0.1,1.4-0.3c0.4-0.2,0.7-0.5,0.9-0.9
				c0.1-0.3,0.2-0.7,0.2-1.3V145.7z"/>
		</g>
		<g>
			<path class="st0" d="M336.2,158.2v14.4h63v-14.4H336.2z"/>
		</g>
	</g>
</g>
</svg>
