<?xml version="1.0" encoding="utf-8"?>
<!-- Generator: Adobe Illustrator 24.0.2, SVG Export Plug-In . SVG Version: 6.00 Build 0)  -->
<svg version="1.1" id="Layer_1" xmlns="http://www.w3.org/2000/svg" xmlns:xlink="http://www.w3.org/1999/xlink" x="0px" y="0px"
	 viewBox="0 0 409.8 176.1" style="enable-background:new 0 0 409.8 176.1;" xml:space="preserve">
<style type="text/css">
	.st0{fill:#FFFFFF;}
	.st1{font-family:'ArialMT';}
	.st2{font-size:15px;}
</style>
<title>Artboard 5</title>
<title>Artboard 5</title>
<g>
	<g>
		<g>
			<path class="st0" d="M27.5,43.4c-1.4,0.4-2.2,1.4-2.2,2.5c-0.1,1.2,0.9,2.3,2.5,2.3c1.5,0,2.5-0.9,2.5-2.2
				C30.2,44.6,29.2,43.9,27.5,43.4z"/>
			<path class="st0" d="M28,42.2c1.1-0.4,1.9-1.1,1.9-2.2c0-1-0.6-2-2.1-2c-1.4,0-2.1,0.9-2.1,2C25.6,41.2,26.5,41.8,28,42.2z"/>
			<path class="st0" d="M60.1,41.2c-1.6,0-2.7,1.3-2.7,3.5c0,1.8,0.9,3.3,2.7,3.3c1,0,1.9-0.6,2.3-1.7c0.1-0.3,0.1-0.6,0.1-0.9v-1.6
				c0-0.3,0-0.5-0.1-0.8C62.2,42,61.3,41.2,60.1,41.2z"/>
			<path class="st0" d="M70.9,28h-63v147.6h63V28z M21.9,49.3h-7.8v-1l1.3-1.3c3.1-3,4.5-4.6,4.6-6.4c0-1.2-0.6-2.4-2.4-2.4
				c-1.1,0-2,0.6-2.6,1L14.5,38c0.8-0.7,2.1-1.2,3.5-1.2c2.6,0,3.8,1.8,3.8,3.6c0,2.3-1.6,4.1-4.2,6.6l-1,0.9h5.3V49.3z M27.7,49.5
				c-2.6,0-4.1-1.5-4.1-3.3c0-1.5,0.9-2.6,2.4-3.3v-0.1c-1.4-0.6-1.9-1.7-1.9-2.8c0-1.9,1.6-3.3,3.8-3.3c2.4,0,3.6,1.5,3.6,3
				c0,1-0.5,2.2-2,2.9v0.1c1.5,0.6,2.5,1.7,2.5,3.2C31.9,48,30,49.5,27.7,49.5z M34.1,51.5l-1.2,0.1c0.4-1.1,0.9-3.1,1.1-4.5
				l1.8-0.2C35.4,48.5,34.6,50.6,34.1,51.5z M40.3,49.5c-1.3,0-2.5-0.4-3.1-0.8l0.4-1.3c0.5,0.3,1.5,0.7,2.6,0.7
				c1.6,0,2.9-1,2.9-2.7c0-1.6-1.1-2.7-3.5-2.7c-0.7,0-1.2,0.1-1.7,0.1l0.8-5.9h5.9v1.4h-4.7l-0.5,3.2c0.3,0,0.5-0.1,1-0.1
				c0.9,0,1.9,0.2,2.6,0.7c1,0.5,1.8,1.6,1.8,3.2C44.9,47.7,43,49.5,40.3,49.5z M53.2,49.4L53.2,49.4L50,44.9l-0.8,0.9v3.4h-1.6
				V35.9h1.6v8.5c0.2-0.3,0.5-0.7,0.8-1l2.7-3.2h2L51.2,44l4,5.4H53.2z M64.2,47.9c0,2.1-0.4,3.4-1.3,4.2c-0.9,0.8-2.2,1.1-3.3,1.1
				s-2.3-0.3-3-0.8l0.3-1.2c0.6,0.4,1.5,0.7,2.7,0.7c1.7,0,2.9-0.9,2.9-3.2v-1c-0.5,0.8-1.5,1.5-2.9,1.5c-2.3,0-3.9-1.9-3.9-4.5
				c0-3.1,2-4.9,4.1-4.9c1.6,0,2.5,0.8,2.9,1.6l0.1-1.4h1.5c-0.1,0.8-0.1,1.5-0.1,2.6V47.9z"/>
		</g>
		<text transform="matrix(1 0 0 1 5.8028 19.4704)" class="st0 st1 st2">Norwegen</text>
	</g>
	<g>
		<text transform="matrix(1 0 0 1 79.5481 61.7697)" class="st0 st1 st2">Deutschland</text>
		<g>
			<path class="st0" d="M123.3,84.5c1.1-0.4,1.9-1.1,1.9-2.2c0-1-0.6-2-2.1-2c-1.4,0-2.1,0.9-2.1,2
				C120.9,83.5,121.9,84.2,123.3,84.5z"/>
			<path class="st0" d="M122.8,85.7c-1.4,0.4-2.2,1.4-2.2,2.5c-0.1,1.2,0.9,2.3,2.5,2.3c1.5,0,2.5-0.9,2.5-2.2
				C125.5,86.9,124.5,86.2,122.8,85.7z"/>
			<path class="st0" d="M152.6,70.3h-63v105.3h63V70.3z M103.8,91.6h-0.2h-7.8v-1l1.3-1.3c3.1-3,4.5-4.6,4.6-6.4
				c0-1.2-0.6-2.4-2.4-2.4c-1.1,0-2,0.6-2.6,1l-0.5-1.2c0.8-0.7,2.1-1.2,3.5-1.2c2.6,0,3.8,1.8,3.8,3.6c0,2.3-1.6,4.1-4.2,6.6
				l-1,0.9h5.5V91.6z M113.5,91.6h-0.2h-7.8v-1l1.3-1.3c3.1-3,4.5-4.6,4.6-6.4c0-1.2-0.6-2.4-2.4-2.4c-1.1,0-2,0.6-2.6,1l-0.5-1.2
				c0.8-0.7,2.1-1.2,3.5-1.2c2.6,0,3.8,1.8,3.8,3.6c0,2.3-1.6,4.1-4.2,6.6l-1,0.9h5.5V91.6z M115.8,93.8l-1.2,0.1
				c0.4-1.1,0.9-3.1,1.1-4.5l1.8-0.2C117.1,90.8,116.3,92.9,115.8,93.8z M123,91.8c-2.6,0-4.1-1.5-4.1-3.3c0-1.5,0.9-2.6,2.4-3.3
				v-0.1c-1.4-0.6-1.9-1.7-1.9-2.8c0-1.9,1.6-3.3,3.8-3.3c2.4,0,3.6,1.5,3.6,3c0,1-0.5,2.2-2,2.9V85c1.5,0.6,2.5,1.7,2.5,3.2
				C127.2,90.4,125.3,91.8,123,91.8z M134.9,91.6l-3.2-4.4l-0.8,0.9v3.4h-1.6V78.1h1.6v8.5c0.2-0.3,0.5-0.7,0.8-1l2.7-3.2h2
				l-3.5,3.8l4,5.4H134.9z M145.9,90.3c0,2.1-0.4,3.4-1.3,4.2s-2.2,1.1-3.3,1.1c-1.1,0-2.3-0.3-3-0.8l0.4-1.3
				c0.6,0.4,1.5,0.7,2.7,0.7c1.7,0,2.9-0.9,2.9-3.2v-1c-0.5,0.8-1.5,1.5-2.9,1.5c-2.3,0-3.9-1.9-3.9-4.5c0-3.1,2-4.9,4.1-4.9
				c1.6,0,2.5,0.8,2.9,1.6l0.1-1.4h1.5c-0.2,0.8-0.2,1.6-0.2,2.7V90.3z"/>
			<path class="st0" d="M141.8,83.6c-1.6,0-2.7,1.3-2.7,3.5c0,1.8,0.9,3.3,2.7,3.3c1,0,1.9-0.6,2.3-1.7c0.1-0.3,0.1-0.6,0.1-0.9
				v-1.6c0-0.3,0-0.5-0.1-0.8C143.9,84.4,143.1,83.6,141.8,83.6z"/>
		</g>
	</g>
	<g>
		<text transform="matrix(1 0 0 1 187.1599 82.6293)" class="st0 st1 st2">USA</text>
		<g>
			<path class="st0" d="M222.7,104.4c-1.6,0-2.7,1.3-2.7,3.5c0,1.8,0.9,3.3,2.7,3.3c1,0,1.9-0.6,2.3-1.7c0.1-0.3,0.1-0.6,0.1-0.9
				V107c0-0.3,0-0.5-0.1-0.8C224.7,105.2,223.9,104.4,222.7,104.4z"/>
			<path class="st0" d="M204,103.6l-3,4.2l0,0h4v-4.1c0-0.6,0-1.3,0.1-1.9H205C204.6,102.5,204.3,103,204,103.6z"/>
			<path class="st0" d="M190.2,101.2c-1.4,0-2.4,1.2-2.4,3c0,1.5,0.9,2.6,2.4,2.6c1.1,0,2-0.5,2.4-1.3c0.1-0.2,0.2-0.3,0.2-0.6
				C192.8,102.8,192,101.2,190.2,101.2z"/>
			<path class="st0" d="M233.4,91.1h-63v85h63V91.1z M181.9,112.4L181.9,112.4h-1.7v-10.7l-2.1,1.2l-0.3-1.3l2.7-1.4h1.4V112.4z
				 M192.3,110.9c-0.9,0.9-2.2,1.5-3.6,1.6c-0.6,0.1-1.1,0.1-1.5,0.1v-1.4c0.4,0,0.8,0,1.3-0.1c1-0.1,1.9-0.5,2.6-1.2
				c0.8-0.7,1.4-1.8,1.6-3.3h-0.1c-0.7,0.8-1.7,1.3-2.9,1.3c-2.2,0-3.6-1.7-3.6-3.8c0-2.3,1.7-4.4,4.2-4.4s4.1,2,4.1,5.2
				C194.4,107.8,193.5,109.7,192.3,110.9z M196.6,114.6l-1.2,0.1c0.4-1.1,0.9-3.1,1.1-4.5l1.8-0.2
				C198,111.6,197.1,113.7,196.6,114.6z M208.3,109.1h-1.7v3.3H205v-3.3h-5.7V108l5.5-7.8h1.8v7.6h1.7V109.1z M215.7,112.5
				L215.7,112.5l-3.2-4.5l-0.8,0.9v3.4h-1.6V99h1.6v8.5c0.2-0.3,0.5-0.7,0.8-1l2.7-3.2h2l-3.5,3.8l4,5.4H215.7z M226.7,111.1
				c0,2.1-0.4,3.4-1.3,4.2c-0.9,0.8-2.2,1.1-3.3,1.1c-1.1,0-2.3-0.3-3-0.8l0.4-1.3c0.6,0.4,1.5,0.7,2.7,0.7c1.7,0,2.9-0.9,2.9-3.2
				v-1c-0.5,0.8-1.5,1.5-2.9,1.5c-2.3,0-3.9-1.9-3.9-4.5c0-3.1,2-4.9,4.1-4.9c1.6,0,2.5,0.8,2.9,1.6l0.1-1.4h1.5
				c-0.1,0.8-0.2,1.6-0.2,2.7V111.1z"/>
		</g>
	</g>
	<g>
		<text transform="matrix(1 0 0 1 263.1134 139.6836)" class="st0 st1 st2">China</text>
		<g>
			<path class="st0" d="M299.3,161.3c-1.6,0-2.7,1.3-2.7,3.5c0,1.8,0.9,3.3,2.7,3.3c1,0,1.9-0.6,2.3-1.7c0.1-0.3,0.1-0.6,0.1-0.9
				v-1.6c0-0.3,0-0.5-0.1-0.8C301.4,162.1,300.5,161.3,299.3,161.3z"/>
			<path class="st0" d="M314.9,148h-63v27.9h63V148z M265.9,169.5c-1.3,0-2.5-0.4-3.1-0.8l0.4-1.3c0.5,0.3,1.5,0.7,2.6,0.7
				c1.6,0,2.9-1,2.9-2.7c0-1.6-1.1-2.7-3.5-2.7c-0.7,0-1.2,0.1-1.7,0.1l0.8-5.9h5.9v1.4h-4.7l-0.5,3.2c0.3,0,0.5-0.1,1-0.1
				c0.9,0,1.9,0.2,2.6,0.7c1,0.5,1.8,1.6,1.8,3.2C270.5,167.7,268.6,169.5,265.9,169.5z M273.3,171.5l-1.2,0.1
				c0.4-1.1,0.9-3.1,1.1-4.5l1.8-0.2C274.6,168.6,273.8,170.7,273.3,171.5z M284.4,169.3h-7.8v-1l1.3-1.3c3.1-3,4.5-4.6,4.6-6.4
				c0-1.2-0.6-2.4-2.4-2.4c-1.1,0-2,0.6-2.6,1l-0.7-1.1c0.8-0.7,2.1-1.2,3.5-1.2c2.6,0,3.8,1.8,3.8,3.6c0,2.3-1.6,4.1-4.2,6.6
				l-1,0.9h5.5V169.3z M292.4,169.3L292.4,169.3l-3.2-4.4l-0.8,0.9v3.4h-1.6v-13.4h1.6v8.5c0.2-0.3,0.5-0.7,0.8-1l2.7-3.2h2
				l-3.5,3.8l4,5.4H292.4z M303.4,168c0,2.1-0.4,3.4-1.3,4.2c-0.9,0.8-2.2,1.1-3.3,1.1s-2.3-0.3-3-0.8l0.4-1.3
				c0.6,0.4,1.5,0.7,2.7,0.7c1.7,0,2.9-0.9,2.9-3.2v-1c-0.5,0.8-1.5,1.5-2.9,1.5c-2.3,0-3.9-1.9-3.9-4.5c0-3.1,2-4.9,4.1-4.9
				c1.6,0,2.5,0.8,2.9,1.6l0.1-1.4h1.5c-0.2,0.9-0.2,1.6-0.2,2.7V168z"/>
		</g>
	</g>
	<g>
		<text transform="matrix(1 0 0 1 343.8176 153.1241)" class="st0 st1 st2">Afrika</text>
		<g>
			<path class="st0" d="M332.5,161.7v14.4h63v-14.4H332.5z"/>
		</g>
	</g>
</g>
</svg>
