<?xml version="1.0" encoding="utf-8"?>
<!-- Generator: Adobe Illustrator 24.1.0, SVG Export Plug-In . SVG Version: 6.00 Build 0)  -->
<svg version="1.1" id="Layer_1" xmlns="http://www.w3.org/2000/svg" xmlns:xlink="http://www.w3.org/1999/xlink" x="0px" y="0px"
	 viewBox="0 0 451 360" style="enable-background:new 0 0 451 360;" xml:space="preserve">
<style type="text/css">
	.st0{fill:#FFFFFF;}
</style>
<path class="st0" d="M54.8,318.2V317l1.6-1.6c3.9-3.7,5.6-5.7,5.7-8c0.2-1.5-0.9-2.8-2.4-3c-0.2,0-0.4,0-0.6,0
	c-1.2,0-2.3,0.5-3.2,1.3l-0.7-1.5c1.2-1,2.7-1.6,4.3-1.5c2.3-0.2,4.4,1.5,4.6,3.9c0,0.2,0,0.4,0,0.6c0,2.8-2,5.1-5.2,8.2l-1.2,1.1
	l0,0h6.8v1.7L54.8,318.2z"/>
<path class="st0" d="M74.4,312.1L74.4,312.1c0.3-0.4,0.7-0.9,1-1.3l3.3-3.9h2.5l-4.4,4.6l5,6.7h-2.5l-3.9-5.4l-1,1.2v4.3h-2v-16.6h2
	L74.4,312.1z"/>
<path class="st0" d="M93.1,306.9c0,0.8-0.1,1.7-0.1,3.1v6.6c0,2.6-0.5,4.2-1.6,5.2c-1.2,1-2.6,1.4-4.1,1.4c-1.3,0-2.6-0.3-3.8-0.9
	l0.5-1.6c1,0.6,2.2,0.9,3.3,0.9c2.1,0,3.7-1.1,3.7-4v-1.3l0,0c-0.8,1.2-2.1,2-3.6,1.9c-2.8,0-4.8-2.4-4.8-5.5c0-3.8,2.5-6,5.1-6
	c1.5-0.1,2.8,0.7,3.5,2l0,0l0.1-1.7L93.1,306.9z M91,311.4c0.1-1.7-1.2-3-2.9-3.1c0,0-0.1,0-0.1,0c-2,0-3.4,1.7-3.4,4.3
	c0,2.2,1.1,4.1,3.3,4.1c1.3,0,2.5-0.9,2.8-2.1c0.1-0.4,0.2-0.7,0.2-1.1L91,311.4z"/>
<path class="st0" d="M104,313.3l-1.6,5h-2.1l5.3-15.8h2.5l5.4,15.8h-2.1l-1.7-5H104z M109.2,311.7l-1.5-4.5c-0.3-1-0.6-2-0.8-2.9
	l0,0c-0.2,0.9-0.5,1.9-0.8,2.9l-1.6,4.6L109.2,311.7z"/>
<path class="st0" d="M115.7,310c0-1.2,0-2.1-0.1-3.1h1.8l0.1,1.9h0.1c0.8-1.4,2.2-2.2,3.7-2.1c1.6,0,4,0.9,4,4.8v6.8h-2.1v-6.6
	c0-1.8-0.7-3.3-2.6-3.3c-1.3,0-2.4,0.9-2.8,2.1c-0.1,0.3-0.1,0.7-0.1,1v6.8h-2L115.7,310z"/>
<path class="st0" d="M138.4,301.6v13.7c0,1,0,2.2,0.1,2.9h-1.9l-0.1-2l0,0c-0.8,1.4-2.3,2.3-3.9,2.2c-2.7,0-4.8-2.3-4.8-5.8
	c0-3.8,2.3-6.1,5.1-6.1c1.4-0.1,2.7,0.6,3.4,1.7l0,0v-6.8L138.4,301.6z M136.3,311.5c0-0.3,0-0.6-0.1-0.9c-0.3-1.4-1.6-2.4-3-2.4
	c-2.1,0-3.4,1.9-3.4,4.4c0,2.3,1.1,4.2,3.3,4.2c1.5,0,2.7-1,3-2.5c0.1-0.3,0.1-0.6,0.1-0.9L136.3,311.5z"/>
<path class="st0" d="M143,312.9c-0.2,2,1.3,3.8,3.3,3.9c0.2,0,0.4,0,0.6,0c1.1,0,2.1-0.2,3.1-0.6l0.4,1.5c-1.2,0.5-2.5,0.7-3.8,0.7
	c-3.5,0-5.6-2.3-5.6-5.7s2-6.1,5.3-6.1c3.7,0,4.7,3.2,4.7,5.3c0,0.3,0,0.7-0.1,1L143,312.9z M149,311.5c0-1.3-0.5-3.4-2.9-3.4
	c-2.1,0-3,1.9-3.1,3.4H149z"/>
<path class="st0" d="M153.5,310.4c0-1.3,0-2.5-0.1-3.5h1.8l0.1,2.2h0.1c0.4-1.4,1.7-2.4,3.1-2.5c0.2,0,0.4,0,0.6,0.1v1.9
	c-1.5-0.3-3.1,0.6-3.4,2.1c0,0.1-0.1,0.3-0.1,0.4c-0.1,0.3-0.1,0.7-0.1,1v6h-2L153.5,310.4z"/>
<path class="st0" d="M162.1,312.9c-0.2,2,1.3,3.8,3.3,3.9c0.2,0,0.4,0,0.6,0c1.1,0,2.1-0.2,3.1-0.6l0.4,1.5
	c-1.2,0.5-2.5,0.7-3.8,0.7c-3.5,0-5.6-2.3-5.6-5.7s2-6.1,5.3-6.1c3.7,0,4.7,3.2,4.7,5.3c0,0.3,0,0.7-0.1,1L162.1,312.9z
	 M168.1,311.5c0-1.3-0.5-3.4-2.9-3.4c-2.1,0-3,1.9-3.1,3.4H168.1z"/>
<rect x="24.4" y="278.9" class="st0" width="17.6" height="63"/>
<path class="st0" d="M179.9,103c-0.7,0-1.4,0.4-1.7,1.1c-0.2-0.1-0.4-0.1-0.7-0.1c-1.1,0-1.9,0.8-1.9,1.9c0,0.7,0.4,1.4,1,1.7
	c-1,0.9-2,1.9-2.7,3.1c-0.9,1.6-1.8,3.2-2.5,4.9c-0.8,1.6-1.2,3.5-2.5,4.9c-1,1.1-2.3,2-3.7,2.4c-1.2,0.3-2.5,0.3-3.7,0
	c-1.7-0.2-3.2-1-4.9-1.2c-1.2-0.1-2.6,0.5-3.7,0c-1.6-0.6-2.3-2.6-3.7-3.6c-1.6-0.9-3.2-1.8-4.9-2.4v2.5l-3.7-2.4v4.9l1.2,2.4v3.6
	l2.4,2.4l1.2,4.9c1.4,1.1,2.6,2.3,3.7,3.6c0.7,1.1,0.6,2.6,1.2,3.7c1.2,2,2.9,3.6,4.9,4.9c0.2,0.1,0.5,0.3,0.8,0.4l-2.1,5.8
	l-0.2-0.1c-0.2-0.1-0.4-0.2-0.6-0.2c-0.5,0.1-1,0.5-0.9,1.1c0,0.2,0.1,0.5,0.3,0.6l0.6,0.5l0.8,0.7l0.4,3.5
	c-0.1,0.5,0.3,1.1,0.8,1.1c0.5,0.1,1.1-0.3,1.1-0.8c0-0.2,0-0.3-0.1-0.5l0,0l-0.2-1.6l2.4,1.9c0.3,0.5,0.9,0.6,1.4,0.2
	c0.5-0.3,0.6-0.9,0.2-1.4c-0.1-0.2-0.2-0.3-0.4-0.3l0,0l-2-1.6h1c0.5,0.1,1.1-0.2,1.2-0.7s-0.2-1.1-0.7-1.2c-0.2,0-0.3,0-0.5,0h-3.2
	l2.2-6c1.3,0.6,2.7,1,4.1,1.1l1,5.9h-0.8c-0.6,0-1,0.4-1,1s0.4,1,1,1h1.6l3.1,2.7c0.4,0.3,1,0.3,1.4-0.1c0.3-0.4,0.3-1-0.1-1.4l0,0
	l-1.4-1.2h3.1c0.5-0.1,0.8-0.7,0.7-1.2c-0.1-0.3-0.4-0.6-0.7-0.7h-3.3l1.5-1.2c0.4-0.3,0.5-0.9,0.2-1.4c-0.3-0.4-1-0.5-1.4-0.1
	l-2.1,1.7l-0.9-5c0.9-0.2,1.7-0.6,2.5-1c1.8-0.9,3.2-2.5,4.9-3.6c2-1.3,4.4-2.1,6.1-3.6c1.6-1.4,2.9-3.1,3.8-5
	c0.7-1.5,1.1-3.2,1.2-4.9c0.2-3.3-1-6.5-1.2-9.7c-0.2-1.6-0.2-3.3,0-4.9c0.2-1.3,0.2-2.9,1.2-3.6c0.3-0.2,0.8,0,1.2,0h2.5
	c-0.6-1.3-1.5-2.6-2.5-3.6c-0.2-0.2-0.5-0.4-0.8-0.5c0.8-0.3,1.3-1,1.3-1.8c0-1.1-0.9-1.9-1.9-1.9l0,0c-0.2,0-0.5,0-0.7,0.1
	C181.3,103.4,180.7,103,179.9,103L179.9,103z"/>
<path class="st0" d="M213.9,234.1c0,0,4.9,0,3.7,4.6s2.1,9.7,2.1,9.7s-1.7,3.3-6.1,1.9s-8.6-7.5-8.8-9.7s-2-5.7-3.7-5.6
	s-4.1,2.3-3.6,4.6s1.3,8,2.4,8.4s3,3.1,3,3.1h-5.1c0,0-2.3-2.9-2.4-4.1s-2.3-10.3-3.7-10.1c-1.6,0.1-3.2-0.3-4.6-1.1
	c-1-0.9-2.1,3.1-3.6,4.7s-2.4,7.3-1.4,7.8c1,0.8,2,1.7,2.8,2.8H180l-2-3.1c0,0,0.9-6.9,1.1-7.9s1-8-0.7-7.8s-9.1,3.6-14.3,2.7
	s-8.1-3.7-10.4-0.3s-5.4,6.7-4.4,8.3s5.3,5.3,5.3,5.3l0.9,2.8h-4.7l-2.3-2.8c0,0-6.3-10.4-7.4-10.4s-2.7,5.3-2.6,7
	c0.1,0.9,0.3,1.8,0.6,2.7l2.1,1.7v1.8h-4.9l-1.6-3.1l0.4-13.5l3.1-5.9c0,0-3.8-12.6-3.9-15.8c0-0.5,0.6-6.6,0.6-6.6l-1.6,1.4
	l-2.1,20.9c0,0,0.6,3.1,1.3,3.9s-0.4,3.7-0.4,3.7l-2.1-3.4l-1.3-4c0,0,0.8-21.6,1.6-22.5s3.6-7.3,10-6.4s18.1,1.3,22.5,0
	s14.5-4.1,22.2-2s13.7,4.6,16.4,9c1.8,3,3.1,6.2,4.1,9.5l5.6,10.5l1.7-2.9c0,0,2.9,0.7,3,2.6S213.9,234.1,213.9,234.1z"/>
<path class="st0" d="M421.3,30.4c-0.7,0.5-1.3,1.1-1.9,1.8c-0.3,0.4-1,0.7-1.4,0.4s-1.1-0.7-2.6-1.8s-3.7-3.4-4.8-4.4
	c-1.8-1.6-3.8-2.9-6-4c-2.6-1.4-8.2-2.6-10.6-3s-8.2-0.6-10.5-1s-8.2-0.4-14.7,0.1c-4.7,0.3-9.3,1.7-13.5,3.9
	c-2.4,1.5-4.7,3.1-6.8,4.9c-1.6,1.5-2.5,5.4-3.1,8c-0.9,3.9-1.2,7.9-0.9,11.9c0.5,3.9,0.2,4-0.1,5.1c-0.3,1.5-0.4,3-0.4,4.5
	c0.1,1.3,0.1-1.1,0.4,1s0.6-1.8,0.6,0.6s0.4-0.4,0.6,0s0.1,1.8,0.3-0.1c0-3.3-0.1-6.6-0.5-9.8c-0.1-1.5-0.3-3.2-0.4-4.8
	c0.1-2.3,0.4-4.6,0.8-6.8c0.1-0.7,0.2-1.8,0.4,0.1s3.6,8.4,4.8,10.1s0.9,2.6,0.5,3.1s-0.7,1.2-0.4,1.7s0.6,1.9,1,4.2
	c0.3,1.5,0.3,3,0.1,4.5c-0.2,0.7,0.6,1.4,0.8,2s0.7-0.1,1,0.5c0.2,0.6,0.8,1,1.5,0.9c0.7-0.1,3.1,0.1,3.4-0.2s-1.7-1.4-1.8-1.8
	c-0.4-0.8-0.6-1.6-0.9-2.5c0-1.4,0-2.9,0.2-4.3c0.1-0.7,0.5-1,0.7-0.3s1.2,4,1.5,4.8s0,2.1,0.1,2.1s0.8,0.7,0.9-0.7s0.4,0.1,0.6,0.7
	s2.1,0.9,3.8,0.9s0.2-0.7-0.3-1c-1-0.8-1.8-1.8-2.3-3c-0.8-1.6-0.7-5.1-0.5-6.8s2.1-4.4,2.9-5.4s2.7-0.4,3.7-0.1s2.3,1.5,3.4,1.4
	s1.4-1,2.4-1.2s9.3,0,12.5,0c2-0.1,4,0.2,5.9,0.8c1.9,0.6,2,2.3,2.1,3.7s1.2,2.6,1.8,3.9s0.8,4.5,1,5.6c0.2,0.9,0.6,1.8,1.1,2.6
	c0.3,0.7,0.3,0.9,0.6,0.8s0.1-1.8,0.1-1.8c0.1,0.5,0.3,1,0.5,1.5c0.2,0.4,3.1,0.1,3.8,0.1s0.9,0.1,0.7-0.3S401,61,401,60.4
	c-0.4-1.1-0.7-2.3-0.9-3.4c0-1.8,0.1-3.6,0.3-5.4c0.1-1.6,0.4-2.5,1-2.6c1,0,2,0.3,2.8,0.8c1,0.7,3.1,2.1,4.2,2.3
	c1.2,0.3,2.4,0.8,3.5,1.4c1.4,0.7,5.1,0.2,5.8,0.1s1.9,0.5,3.7,0.6s1.6-0.8,1.6-0.8c1.4-0.4,2.5-1.6,2.7-3.1
	c0.1-0.7-0.6-0.9-1.7-1.6s-2.3-4.4-2.3-5.1s0.5-1.4,0.2-1.8c-0.3-0.6-0.2-1.4,0.2-1.9c0.4-0.5,0.3-2.6,0.3-2.6
	c0.6,0,1.2-0.2,1.7-0.5c0.4-0.4,1.3-1.2,2.1-2s0.4-2.6,0.5-3s0.2-1.2-0.4-1c-1,0.4-1.8,1.3-2.2,2.4c-0.2,0.8-1,1.3-1.8,1.1
	C422.2,32.8,421.9,31.5,421.3,30.4z"/>
<path class="st0" d="M164.5,42.8c-1.2,0-2.2,0.7-2.7,1.7c-0.1,0.3-0.2,0.6-0.2,0.9c0,2.3,1.1,4,3.1,4c1.6,0,2.8-1.4,2.8-3.4
	S166.2,42.8,164.5,42.8z"/>
<path class="st0" d="M190.7,41.4c-1.8,0-3.1,1.5-3.1,4c0,2.1,1,3.8,3.1,3.8c1.2,0,2.3-0.8,2.6-2c0.1-0.3,0.2-0.7,0.1-1v-1.9
	c0-0.3,0-0.6-0.1-0.9C193.1,42.2,192,41.4,190.7,41.4z"/>
<path class="st0" d="M24.4,9.9v63h300v-63H24.4z M152.3,50.9c-1.3,0-2.6-0.3-3.7-1l0.5-1.5c0.9,0.6,2,0.9,3.1,0.9
	c2.5,0,3.2-1.6,3.2-2.7c0-2-1.8-2.8-3.6-2.8h-1.1v-1.4h1.1c1.4,0,3.1-0.7,3.1-2.4c0-1.1-0.7-2.1-2.5-2.1c-1,0-2,0.4-2.8,0.9
	l-0.5-1.4c1.1-0.7,2.4-1.1,3.7-1.1c2.8,0,4,1.6,4,3.4c0,1.6-1.1,2.9-2.6,3.3l0,0c1.8,0.3,3.1,1.8,3.2,3.6
	C157.5,48.9,155.7,50.9,152.3,50.9L152.3,50.9z M164.6,50.9c-3,0-5-2.4-5-6c-0.1-2.4,0.8-4.6,2.4-6.4c1.2-1.2,2.8-1.9,4.5-2.1
	c0.5-0.1,0.9-0.1,1.4-0.1v1.6c-0.5,0-1,0-1.4,0.1c-2.6,0.4-4.6,2.4-4.9,5h0.1c0.8-1.1,2.1-1.7,3.4-1.6c2.5,0,4.3,1.8,4.3,4.6
	c0.1,2.6-1.9,4.8-4.5,4.9C164.8,50.9,164.7,50.9,164.6,50.9L164.6,50.9z M182.7,50.7l-3.6-5l-1,1.1v4h-1.9V35.2h1.9v9.7l0,0
	c0.3-0.4,0.6-0.8,0.9-1.2l3.1-3.6h2.3l-4.1,4.3l4.6,6.2L182.7,50.7z M195.4,43v6.1c0,2.4-0.5,3.9-1.5,4.8c-1.1,0.9-2.4,1.3-3.8,1.3
	c-1.2,0-2.4-0.3-3.5-0.9l0.5-1.4c0.9,0.5,2,0.8,3.1,0.8c2,0,3.4-1,3.4-3.7v-1.2l0,0c-0.7,1.1-2,1.8-3.4,1.8c-2.6,0-4.5-2.2-4.5-5.1
	c0-3.6,2.3-5.6,4.7-5.6c1.4-0.1,2.6,0.6,3.3,1.8l0,0l0.1-1.6h1.7C195.5,40.9,195.4,41.7,195.4,43z"/>
<path class="st0" d="M91.7,129.4c-1.8,0-3.1,1.5-3.1,4c0,2.1,1,3.8,3.1,3.8c1.2,0,2.3-0.8,2.7-2c0.1-0.3,0.2-0.7,0.2-1v-1.9
	c0-0.3,0-0.6-0.1-0.9C94.1,130.2,93,129.4,91.7,129.4z"/>
<path class="st0" d="M24.4,99.9v63H125v-63H24.4z M55.7,138.6h-1.9v-12.4l0,0l-2.5,1.3l-0.4-1.5l3.1-1.6h1.6V138.6z M69.9,138.6h-9
	v-1.2l1.5-1.5c3.6-3.4,5.2-5.3,5.3-7.4c0.1-1.4-0.9-2.6-2.3-2.8c-0.2,0-0.4,0-0.5,0c-1.1,0-2.2,0.5-3,1.2l-0.6-1.4
	c1.1-0.9,2.5-1.4,4-1.4c2.2-0.2,4.1,1.5,4.3,3.7c0,0.1,0,0.3,0,0.4c0,2.6-1.9,4.7-4.9,7.6l-1.1,1l0,0h6.4L69.9,138.6z M83.7,138.6
	l-3.6-5l-1,1.1v4h-1.9v-15.5h1.9v9.7l0,0c0.3-0.4,0.6-0.8,0.9-1.2l3.1-3.6h2.3l-4.1,4.3l4.6,6.2H83.7z M96.4,131v6.1
	c0,2.4-0.5,3.9-1.5,4.8c-1.1,0.9-2.4,1.3-3.8,1.3c-1.2,0-2.4-0.3-3.5-0.9l0.5-1.5c0.9,0.5,2,0.8,3.1,0.8c2,0,3.4-1,3.4-3.7v-1.2l0,0
	c-0.7,1.1-2,1.8-3.3,1.8c-2.6,0-4.5-2.2-4.5-5.1c0-3.6,2.3-5.6,4.7-5.6c1.4-0.1,2.6,0.6,3.3,1.8l0,0l0.1-1.6h1.7
	C96.5,128.9,96.4,129.7,96.4,131z"/>
<path class="st0" d="M82.7,223.4c-1.8,0-3.1,1.5-3.1,4c0,2.1,1,3.8,3.1,3.8c1.2,0,2.3-0.8,2.7-2c0.1-0.3,0.2-0.7,0.2-1v-1.9
	c0-0.3,0-0.6-0.1-0.9C85.1,224.2,84,223.4,82.7,223.4z"/>
<path class="st0" d="M56.5,219.8c-1.7,0-2.9,2-2.9,5.9c0,3.7,1.1,5.8,2.9,5.8c2,0,2.9-2.3,2.9-5.9S58.5,219.8,56.5,219.8z"/>
<path class="st0" d="M24.4,192.9v63H110v-63H24.4z M46.7,232.6h-1.9v-12.4l0,0l-2.5,1.3l-0.4-1.5l3.1-1.6h1.6V232.6z M56.4,232.9
	c-2.8,0-4.6-2.6-4.7-7.3s2-7.4,4.9-7.4s4.7,2.6,4.7,7.1C61.3,230.2,59.5,232.9,56.4,232.9z M74.7,232.6l-3.6-5l-1,1.1v4h-1.9v-15.5
	h1.9v9.7l0,0c0.3-0.4,0.6-0.8,0.9-1.2l3.1-3.6h2.3l-4.1,4.3l4.6,6.2H74.7z M87.4,225v6.1c0,2.4-0.5,3.9-1.5,4.8
	c-1.1,0.9-2.4,1.3-3.8,1.3c-1.2,0-2.4-0.3-3.5-0.9l0.5-1.5c0.9,0.5,2,0.8,3.1,0.8c2,0,3.4-1,3.4-3.7v-1.2l0,0
	c-0.7,1.1-2,1.8-3.3,1.8c-2.6,0-4.5-2.2-4.5-5.1c0-3.6,2.3-5.6,4.7-5.6c1.4-0.1,2.6,0.6,3.3,1.8l0,0l0.1-1.6h1.7
	C87.5,222.9,87.4,223.7,87.4,225z"/>
</svg>
