<svg id="Layer_1" data-name="Layer 1" xmlns="http://www.w3.org/2000/svg" viewBox="0 0 451 605"><defs><style>.cls-1{fill:#fff;}</style></defs><title>Artboard 5</title><path class="cls-1" d="M54.79,436.23V435l1.61-1.56c3.89-3.7,5.64-5.66,5.66-8a2.71,2.71,0,0,0-3-3,5.15,5.15,0,0,0-3.23,1.29l-.66-1.45a6.68,6.68,0,0,1,4.31-1.54,4.27,4.27,0,0,1,4.65,4.42c0,2.8-2,5.07-5.24,8.16l-1.21,1.12v0H64.5v1.71Z"/><path class="cls-1" d="M74.44,430.1h0c.28-.4.68-.89,1-1.29l3.32-3.9h2.48l-4.37,4.65,5,6.67H79.4l-3.91-5.43-1,1.17v4.26h-2V419.62h2Z"/><path class="cls-1" d="M93.12,424.91c0,.81-.09,1.73-.09,3.11v6.57c0,2.6-.51,4.19-1.61,5.17a6,6,0,0,1-4.12,1.36,7.32,7.32,0,0,1-3.77-.94l.52-1.57a6.37,6.37,0,0,0,3.32.89c2.1,0,3.65-1.1,3.65-3.95v-1.26h0a4,4,0,0,1-3.6,1.89c-2.81,0-4.82-2.39-4.82-5.52,0-3.84,2.5-6,5.1-6a3.76,3.76,0,0,1,3.53,2h0l.09-1.7ZM91,429.37a3,3,0,0,0-3-3.11c-2,0-3.37,1.66-3.37,4.28,0,2.23,1.13,4.07,3.35,4.07a3,3,0,0,0,2.85-2.1,3.5,3.5,0,0,0,.17-1.1Z"/><path class="cls-1" d="M104,431.27l-1.64,5h-2.1l5.35-15.77h2.46l5.38,15.77H111.3l-1.69-5Zm5.17-1.59-1.54-4.54c-.35-1-.59-2-.82-2.88h0c-.23.94-.49,1.9-.79,2.86l-1.55,4.56Z"/><path class="cls-1" d="M115.65,428c0-1.17,0-2.13-.1-3.06h1.83l.11,1.87h.05a4.15,4.15,0,0,1,3.74-2.13c1.57,0,4,.93,4,4.82v6.76h-2.06V429.7c0-1.82-.67-3.34-2.62-3.34a2.93,2.93,0,0,0-2.76,2.1,3.08,3.08,0,0,0-.14,1v6.81h-2Z"/><path class="cls-1" d="M138.4,419.62V433.3c0,1,0,2.16.1,2.93h-1.85l-.1-2h0a4.17,4.17,0,0,1-3.86,2.22c-2.74,0-4.84-2.31-4.84-5.75,0-3.77,2.31-6.08,5.07-6.08a3.81,3.81,0,0,1,3.42,1.73h0v-6.76Zm-2.06,9.89a3.65,3.65,0,0,0-.09-.86,3,3,0,0,0-3-2.39c-2.13,0-3.39,1.87-3.39,4.38,0,2.29,1.12,4.18,3.34,4.18a3.09,3.09,0,0,0,3-2.45,3.58,3.58,0,0,0,.09-.89Z"/><path class="cls-1" d="M143,430.94a3.63,3.63,0,0,0,3.89,3.93,7.56,7.56,0,0,0,3.13-.58l.35,1.47a9.1,9.1,0,0,1-3.77.7c-3.48,0-5.56-2.29-5.56-5.71s2-6.1,5.31-6.1c3.69,0,4.68,3.25,4.68,5.33a8.55,8.55,0,0,1-.07,1Zm6-1.47c0-1.31-.54-3.35-2.86-3.35-2.08,0-3,1.92-3.15,3.35Z"/><path class="cls-1" d="M153.53,428.44c0-1.33,0-2.48-.09-3.53h1.8l.07,2.22h.09a3.41,3.41,0,0,1,3.14-2.48,2,2,0,0,1,.58.07v1.94a2.84,2.84,0,0,0-3.46,2.57,5.5,5.5,0,0,0-.09,1v6h-2Z"/><path class="cls-1" d="M162.09,430.94a3.63,3.63,0,0,0,3.89,3.93,7.56,7.56,0,0,0,3.13-.58l.35,1.47a9.08,9.08,0,0,1-3.76.7c-3.49,0-5.57-2.29-5.57-5.71s2-6.1,5.31-6.1c3.69,0,4.68,3.25,4.68,5.33a8.55,8.55,0,0,1-.07,1Zm6-1.47c0-1.31-.54-3.35-2.86-3.35-2.08,0-3,1.92-3.15,3.35Z"/><rect class="cls-1" x="24.44" y="396.91" width="17.56" height="63"/><path class="cls-1" d="M179.93,221a2,2,0,0,0-1.74,1.09,2,2,0,0,0-.68-.12,1.92,1.92,0,0,0-.89,3.63,13.64,13.64,0,0,0-2.7,3.06,34.07,34.07,0,0,0-2.46,4.86c-.82,1.62-1.24,3.51-2.46,4.87a8.38,8.38,0,0,1-3.68,2.43,9.22,9.22,0,0,1-3.7,0c-1.67-.21-3.24-1-4.92-1.22-1.22-.14-2.55.47-3.68,0-1.61-.65-2.28-2.64-3.7-3.65a33,33,0,0,0-4.92-2.43V236l-3.68-2.43v4.87l1.23,2.43v3.65l2.45,2.43,1.24,4.86a21.38,21.38,0,0,1,3.68,3.65c.69,1.09.55,2.56,1.23,3.65a15.23,15.23,0,0,0,4.92,4.86c.24.15.5.27.75.41l-2.14,5.79-.18-.14a1,1,0,0,0-.63-.22,1,1,0,0,0-.58,1.73l.59.48.84.67.44,3.5a1,1,0,1,0,1.92-.22v0l-.2-1.6,2.42,1.94a1,1,0,1,0,1.22-1.49h0l-2-1.62h1a1,1,0,1,0,0-1.94h-3.17l2.2-6a12.77,12.77,0,0,0,4.12,1.09l1,5.87h-.79a1,1,0,0,0-1,1,1,1,0,0,0,1,1h1.6l3.12,2.67a1,1,0,0,0,1.37-.08,1,1,0,0,0-.09-1.37l0,0-1.4-1.2H170a1,1,0,0,0,0-1.93h-3.32l1.47-1.18a1,1,0,0,0,.17-1.36,1,1,0,0,0-1.38-.15l-2.13,1.7-.85-5a12,12,0,0,0,2.51-1c1.82-.94,3.22-2.52,4.92-3.65,2-1.32,4.38-2.07,6.15-3.65A15.63,15.63,0,0,0,181.3,253a13.06,13.06,0,0,0,1.23-4.87c.2-3.26-1-6.46-1.23-9.72a22,22,0,0,1,0-4.87c.21-1.26.18-2.89,1.23-3.64.33-.24.82,0,1.23,0h2.46a16.14,16.14,0,0,0-2.46-3.65,4.55,4.55,0,0,0-.78-.51,1.92,1.92,0,0,0,1.31-1.81,1.94,1.94,0,0,0-1.94-1.94,2,2,0,0,0-.68.12,1.94,1.94,0,0,0-1.74-1.09Z"/><path class="cls-1" d="M213.89,352.11s4.85,0,3.71,4.56,2.14,9.69,2.14,9.69-1.71,3.28-6.13,1.85-8.55-7.55-8.84-9.68-2-5.71-3.7-5.57-4.13,2.29-3.57,4.57,1.29,8,2.43,8.41,3,3.06,3,3.06h-5.13s-2.28-2.92-2.42-4.06-2.28-10.26-3.71-10.12a7.11,7.11,0,0,1-4.56-1.14c-1-.86-2.14,3.13-3.56,4.7s-2.43,7.27-1.43,7.84a16.25,16.25,0,0,1,2.78,2.78H180l-2-3.06s.85-6.85,1.14-7.85,1-8-.71-7.83-9.13,3.56-14.26,2.7-8.12-3.7-10.4-.28-5.42,6.7-4.42,8.27,5.28,5.27,5.28,5.27l.87,2.78h-4.73l-2.28-2.78s-6.27-10.41-7.41-10.41-2.71,5.28-2.57,7a9.43,9.43,0,0,0,.57,2.68l2.14,1.72V369h-4.85l-1.56-3.09.43-13.51,3.13-5.85s-3.81-12.65-3.91-15.75c0-.51.63-6.62.63-6.62l-1.59,1.42-2.07,20.94s.56,3.15,1.27,3.86-.41,3.73-.41,3.73l-2.06-3.4-1.26-4s.76-21.56,1.56-22.51,3.57-7.27,10-6.41,18.09,1.28,22.51,0,14.54-4.14,22.24-2,13.68,4.57,16.39,9a42,42,0,0,1,4.1,9.48l5.59,10.48,1.71-2.85s2.85.71,3,2.56S213.89,352.11,213.89,352.11Z"/><path class="cls-1" d="M421.3,148.39a12.33,12.33,0,0,0-1.9,1.76c-.3.44-1,.74-1.4.44s-1.1-.66-2.56-1.83-3.74-3.37-4.77-4.4a28.31,28.31,0,0,0-6-4c-2.64-1.39-8.21-2.64-10.63-3s-8.21-.58-10.48-1-8.22-.37-14.74.07a34.24,34.24,0,0,0-13.49,3.88,59.42,59.42,0,0,0-6.82,4.92c-1.61,1.46-2.49,5.42-3.08,8a39.59,39.59,0,0,0-.88,11.88c.51,3.88.22,4-.07,5.13a18.22,18.22,0,0,0-.37,4.54c.07,1.32.15-1.09.37,1s.58-1.76.58.59.37-.44.59,0,.07,1.83.29-.08a83,83,0,0,0-.51-9.82c-.15-1.54-.29-3.23-.37-4.84a48.43,48.43,0,0,1,.81-6.82c.15-.73.22-1.83.37.15s3.59,8.43,4.84,10.12.88,2.56.51,3.15-.73,1.17-.37,1.69.59,1.9,1,4.18a11.3,11.3,0,0,1,.07,4.47c-.22.73.59,1.39.81,2s.73-.08.95.51a1.38,1.38,0,0,0,1.47.88c.66-.07,3.15.07,3.37-.22s-1.69-1.39-1.83-1.83a19,19,0,0,1-.88-2.49,27.74,27.74,0,0,1,.22-4.33c.14-.66.51-1,.66-.29s1.24,4,1.46,4.76,0,2.05.15,2.05.8.66.88-.66.37.08.58.74,2.13.88,3.82.88.22-.66-.3-1a8.64,8.64,0,0,1-2.34-3c-.81-1.61-.66-5.05-.52-6.81s2.13-4.4,2.94-5.36,2.71-.36,3.74-.14,2.34,1.54,3.37,1.39,1.39-1,2.42-1.17,9.31,0,12.46,0a15.57,15.57,0,0,1,5.87.8c1.9.59,2,2.28,2.12,3.67s1.25,2.57,1.84,3.89.8,4.47.95,5.64a7.87,7.87,0,0,0,1.1,2.57c.29.66.29.88.59.8s.14-1.83.14-1.83a9.27,9.27,0,0,0,.52,1.47c.22.37,3.15.14,3.81.14s.88.08.73-.29-2.35-2.34-2.42-2.93a20.57,20.57,0,0,1-.88-3.45,49.6,49.6,0,0,1,.29-5.42c.15-1.62.37-2.5,1-2.57a4.72,4.72,0,0,1,2.79.81c1,.66,3.15,2.12,4.25,2.34a15.6,15.6,0,0,1,3.45,1.4c1.39.66,5.13.22,5.79.07s1.9.51,3.66.59,1.62-.81,1.62-.81a3.69,3.69,0,0,0,2.71-3.08c.07-.66-.59-.88-1.69-1.61s-2.34-4.4-2.34-5.13.51-1.4.22-1.84a1.81,1.81,0,0,1,.22-1.9c.44-.52.29-2.64.29-2.64a3.45,3.45,0,0,0,1.69-.52c.43-.44,1.31-1.24,2.12-2s.44-2.56.51-3,.23-1.25-.36-1a4,4,0,0,0-2.2,2.35,1.54,1.54,0,0,1-1.84,1.1A8.35,8.35,0,0,0,421.3,148.39Z"/><path class="cls-1" d="M164.48,160.77a3.14,3.14,0,0,0-2.74,1.74,1.64,1.64,0,0,0-.22.85c0,2.32,1.11,4,3.11,4,1.65,0,2.76-1.37,2.76-3.39S166.24,160.77,164.48,160.77Z"/><path class="cls-1" d="M190.74,159.38c-1.83,0-3.13,1.54-3.13,4,0,2.06,1,3.78,3.11,3.78a2.79,2.79,0,0,0,2.65-2,3.23,3.23,0,0,0,.15-1v-1.89a2.63,2.63,0,0,0-.11-.87A2.74,2.74,0,0,0,190.74,159.38Z"/><path class="cls-1" d="M24.44,127.91v63h300v-63Zm127.88,41a7.16,7.16,0,0,1-3.67-1l.52-1.48a6.38,6.38,0,0,0,3.13.89c2.46,0,3.22-1.56,3.2-2.73,0-2-1.81-2.83-3.65-2.83h-1.07v-1.44h1.07c1.39,0,3.15-.71,3.15-2.39,0-1.13-.72-2.13-2.48-2.13a5.17,5.17,0,0,0-2.83.94l-.5-1.4a6.77,6.77,0,0,1,3.7-1.08c2.78,0,4,1.65,4,3.37a3.51,3.51,0,0,1-2.61,3.32v0a3.69,3.69,0,0,1,3.16,3.63C157.48,166.9,155.72,168.88,152.32,168.88Zm12.31,0c-3,0-5-2.35-5-6a8.88,8.88,0,0,1,2.39-6.37,7.66,7.66,0,0,1,4.52-2.09,8.92,8.92,0,0,1,1.39-.11v1.56a6.79,6.79,0,0,0-1.43.09,5.74,5.74,0,0,0-4.91,5h.06a4.21,4.21,0,0,1,3.41-1.63c2.5,0,4.27,1.81,4.27,4.57A4.73,4.73,0,0,1,164.63,168.88Zm18.11-.24-3.63-5-1,1.09v4h-1.89V153.2h1.89v9.74h0c.26-.37.63-.82.94-1.19l3.09-3.63h2.3l-4.07,4.32,4.64,6.2ZM195.41,161v6.11c0,2.41-.47,3.89-1.5,4.8a5.55,5.55,0,0,1-3.82,1.26,6.73,6.73,0,0,1-3.5-.87l.47-1.45a6,6,0,0,0,3.09.82c2,0,3.39-1,3.39-3.67v-1.18h0a3.77,3.77,0,0,1-3.35,1.77c-2.61,0-4.48-2.22-4.48-5.14,0-3.56,2.33-5.58,4.74-5.58a3.51,3.51,0,0,1,3.29,1.82h0l.09-1.58h1.67C195.46,158.88,195.41,159.72,195.41,161Z"/><path class="cls-1" d="M91.74,247.38c-1.83,0-3.13,1.54-3.13,4,0,2.06,1,3.78,3.11,3.78a2.79,2.79,0,0,0,2.65-2,3.23,3.23,0,0,0,.15-1v-1.89a2.63,2.63,0,0,0-.11-.87A2.74,2.74,0,0,0,91.74,247.38Z"/><path class="cls-1" d="M24.44,217.91v63H125v-63Zm31.28,38.73H53.87V244.29h0l-2.45,1.33L51,244.16l3.09-1.65h1.63Zm14.17,0h-9v-1.17l1.5-1.46c3.61-3.44,5.24-5.26,5.26-7.39a2.53,2.53,0,0,0-2.8-2.77,4.86,4.86,0,0,0-3,1.2l-.61-1.35a6.26,6.26,0,0,1,4-1.43,4,4,0,0,1,4.32,4.11c0,2.61-1.89,4.71-4.87,7.58l-1.13,1v0h6.35Zm13.85,0-3.63-5-1,1.09v4H77.24V241.2h1.89v9.74h0c.26-.37.63-.82.94-1.19l3.09-3.63h2.3l-4.07,4.32,4.64,6.2ZM96.41,249v6.11c0,2.41-.47,3.89-1.5,4.8a5.55,5.55,0,0,1-3.82,1.26,6.73,6.73,0,0,1-3.5-.87l.47-1.45a6,6,0,0,0,3.09.82c2,0,3.39-1,3.39-3.67v-1.18h0a3.77,3.77,0,0,1-3.35,1.77c-2.61,0-4.48-2.22-4.48-5.14,0-3.56,2.33-5.58,4.74-5.58a3.51,3.51,0,0,1,3.29,1.82h0l.09-1.58H96.5C96.46,246.88,96.41,247.72,96.41,249Z"/><path class="cls-1" d="M82.74,341.38c-1.83,0-3.13,1.54-3.13,4,0,2.06,1,3.78,3.11,3.78a2.79,2.79,0,0,0,2.65-2,3.23,3.23,0,0,0,.15-1v-1.89a2.63,2.63,0,0,0-.11-.87A2.74,2.74,0,0,0,82.74,341.38Z"/><path class="cls-1" d="M56.48,337.75c-1.68,0-2.89,2-2.89,5.89,0,3.67,1.13,5.76,2.87,5.76,1.95,0,2.89-2.28,2.89-5.89S58.46,337.75,56.48,337.75Z"/><path class="cls-1" d="M24.44,310.91v63H110v-63Zm22.28,39.73H44.87V338.29h0l-2.45,1.33L42,338.16l3.09-1.65h1.63Zm9.63.24c-2.76,0-4.64-2.59-4.68-7.26s2-7.35,4.92-7.35,4.67,2.65,4.67,7.15C61.26,348.23,59.48,350.88,56.35,350.88Zm18.39-.24-3.63-5.05-1,1.09v4H68.24V335.2h1.89v9.74h0c.26-.37.63-.82.94-1.19l3.09-3.63h2.3l-4.07,4.32,4.64,6.2ZM87.41,343v6.11c0,2.41-.47,3.89-1.5,4.8a5.55,5.55,0,0,1-3.82,1.26,6.73,6.73,0,0,1-3.5-.87l.47-1.45a6,6,0,0,0,3.09.82c2,0,3.39-1,3.39-3.67v-1.18h0a3.77,3.77,0,0,1-3.35,1.77c-2.61,0-4.48-2.22-4.48-5.14,0-3.56,2.33-5.58,4.74-5.58a3.51,3.51,0,0,1,3.29,1.82h0l.09-1.58H87.5C87.46,340.88,87.41,341.72,87.41,343Z"/></svg>