<?xml version="1.0" encoding="utf-8"?>
<!-- Generator: Adobe Illustrator 24.1.0, SVG Export Plug-In . SVG Version: 6.00 Build 0)  -->
<svg version="1.1" id="Layer_1" xmlns="http://www.w3.org/2000/svg" xmlns:xlink="http://www.w3.org/1999/xlink" x="0px" y="0px"
	 viewBox="0 0 451 547" style="enable-background:new 0 0 451 547;" xml:space="preserve">
<style type="text/css">
	.st0{fill:#FFFFFF;}
	.st1{fill-rule:evenodd;clip-rule:evenodd;fill:#FFFFFF;}
</style>
<path class="st0" d="M201.1,44c-1.9,0-3.3,1.6-3.3,4.2c0,2.2,1.1,4,3.3,4c1.3,0,2.4-0.9,2.8-2.1c0.1-0.3,0.2-0.7,0.2-1.1v-2
	c0.1-1.6-1.2-3-2.8-3.1C201.2,44,201.2,44,201.1,44z"/>
<path class="st0" d="M189,40.1c-1.8,0-3.1,2.2-3.1,6.2c0,3.9,1.2,6.1,3,6.1c2.1,0,3.1-2.4,3.1-6.2S191.1,40.1,189,40.1z"/>
<path class="st0" d="M31.4,14.9v63h300v-63H31.4z M170.1,53.7h-9.5v-1.2l1.6-1.5c3.8-3.6,5.5-5.6,5.6-7.8c0.2-1.5-0.9-2.8-2.4-2.9
	c-0.2,0-0.4,0-0.6,0c-1.2,0-2.3,0.5-3.2,1.3l-0.6-1.4c1.2-1,2.7-1.5,4.2-1.5c2.3-0.2,4.4,1.5,4.6,3.8c0,0.2,0,0.4,0,0.5
	c0,2.8-2,5-5.1,8l-1.2,1.1l0,0h6.7L170.1,53.7z M176.2,54c-1.4,0-2.7-0.3-3.9-1l0.6-1.6c1,0.6,2.1,0.9,3.3,0.9
	c2.6,0,3.4-1.7,3.4-2.9c0-2.1-1.9-3-3.9-3h-1.1V45h1.1c1.5,0,3.3-0.8,3.3-2.5c0-1.2-0.8-2.2-2.6-2.2c-1.1,0-2.1,0.4-3,1l-0.5-1.5
	c1.2-0.8,2.5-1.2,3.9-1.2c2.9,0,4.3,1.8,4.3,3.6c0,1.7-1.2,3.1-2.8,3.5l0,0c1.9,0.3,3.3,1.9,3.3,3.8C181.6,51.9,179.7,54,176.2,54
	L176.2,54z M188.9,54c-2.9,0-4.9-2.7-4.9-7.7s2.2-7.8,5.2-7.8s4.9,2.8,4.9,7.6C194.1,51.1,192.2,54,188.9,54L188.9,54z M206.1,45.6
	v6.5c0,2.6-0.5,4.1-1.6,5.1c-1.1,0.9-2.6,1.4-4.1,1.3c-1.3,0-2.6-0.3-3.7-0.9l0.5-1.5c1,0.6,2.1,0.9,3.3,0.9c2.1,0,3.6-1.1,3.6-3.9
	v-1.2l0,0c-0.8,1.2-2.1,1.9-3.5,1.9c-2.8,0-4.7-2.3-4.7-5.4c0-3.8,2.5-5.9,5-5.9c1.4-0.1,2.8,0.7,3.5,1.9l0,0l0.1-1.7h1.8
	C206.1,43.4,206.1,44.3,206.1,45.6z"/>
<path class="st0" d="M133.6,134.3c-1.9,0-3.3,1.6-3.3,4.2c0,2.2,1.1,4,3.3,4c1.3,0,2.4-0.8,2.8-2.1c0.1-0.3,0.2-0.7,0.2-1.1v-2
	c0-0.3,0-0.6-0.1-0.9C136.1,135.1,134.9,134.3,133.6,134.3z"/>
<path class="st0" d="M109.8,133.3l-3.7,5.1l0,0h4.9v-5c0-0.8,0-1.6,0.1-2.3h-0.1C110.6,132,110.2,132.6,109.8,133.3z"/>
<path class="st0" d="M31.4,104.9v63h171v-63H31.4z M99.3,144.1h-1.9V131h-0.1l-2.6,1.4l-0.4-1.5l3.3-1.8h1.7V144.1z M115.1,140H113
	v4.1h-1.9V140h-6.9v-1.3l6.7-9.6h2.2v9.3h2.1L115.1,140z M126.3,130.4l-6.5,13.6h-2.1l6.5-13.2l0,0h-7.3v-1.7h9.4L126.3,130.4z
	 M138.5,136v6.5c0,2.6-0.5,4.1-1.6,5.1c-1.1,0.9-2.6,1.4-4.1,1.3c-1.3,0-2.6-0.3-3.7-0.9l0.5-1.5c1,0.6,2.1,0.9,3.3,0.9
	c2.1,0,3.6-1.1,3.6-3.9v-1.2l0,0c-0.8,1.2-2.1,1.9-3.5,1.9c-2.8,0-4.7-2.3-4.7-5.4c0-3.8,2.5-5.9,5-5.9c1.4-0.1,2.8,0.7,3.5,1.9l0,0
	l0.1-1.7h1.8C138.6,133.7,138.5,134.6,138.5,136z"/>
<path class="st0" d="M68.8,401.3c-1.9,0-3.3,1.6-3.3,4.2c0,2.2,1.1,4,3.3,4c1.3,0,2.4-0.8,2.8-2.1c0.1-0.3,0.2-0.7,0.2-1.1v-2
	C71.7,402.7,70.4,401.4,68.8,401.3C68.8,401.3,68.8,401.3,68.8,401.3z"/>
<path class="st0" d="M31.4,369.9v63H81v-63H31.4z M43.8,411.4c-1.4,0-2.7-0.3-3.9-1l0.5-1.6c1,0.6,2.1,1,3.3,1
	c2.6,0,3.4-1.7,3.4-2.9c0-2.1-1.9-3-3.9-3h-1.1v-1.5h1.1c1.5,0,3.3-0.8,3.3-2.5c0-1.2-0.8-2.2-2.6-2.2c-1.1,0-2.1,0.4-3,1l-0.5-1.5
	c1.2-0.8,2.5-1.2,3.9-1.2c3,0,4.3,1.7,4.3,3.6c0,1.7-1.2,3.1-2.8,3.5v0c1.9,0.3,3.3,1.9,3.3,3.8C49.2,409.3,47.4,411.4,43.8,411.4z
	 M61.3,411.1h-9.5v-1.2l1.6-1.5c3.8-3.6,5.5-5.6,5.6-7.8c0.2-1.5-0.9-2.8-2.4-2.9c-0.2,0-0.4,0-0.6,0c-1.2,0-2.3,0.5-3.2,1.3
	l-0.7-1.4c1.2-1,2.7-1.5,4.3-1.5c2.3-0.2,4.4,1.5,4.6,3.8c0,0.2,0,0.4,0,0.5c0,2.8-2,5-5.2,8l-1.2,1.1v0h6.7L61.3,411.1z
	 M73.7,403.1v6.5c0,2.5-0.5,4.1-1.6,5.1c-1.1,0.9-2.6,1.4-4.1,1.4c-1.3,0-2.6-0.3-3.7-0.9l0.5-1.5c1,0.6,2.1,0.9,3.3,0.9
	c2.1,0,3.6-1.1,3.6-3.9v-1.2l0,0c-0.8,1.2-2.1,1.9-3.5,1.9c-2.8,0-4.7-2.3-4.7-5.4c0-3.8,2.5-5.9,5-5.9c1.4-0.1,2.8,0.7,3.5,1.9l0,0
	L72,400h1.8C73.8,400.8,73.7,401.7,73.7,403.1z"/>
<path class="st0" d="M68,491.1c-1.9,0-3.3,1.6-3.3,4.2c0,2.2,1.1,4,3.3,4c1.3,0,2.4-0.9,2.8-2.1c0.1-0.4,0.2-0.7,0.2-1.1v-2
	c0-0.3,0-0.6-0.1-0.9C70.5,492,69.3,491.1,68,491.1z"/>
<path class="st0" d="M55.8,487.2c-1.7,0-2.9,1.5-2.9,3.6c-0.2,1.6,1,3,2.6,3.2c0.1,0,0.2,0,0.3,0c1.2,0,2.3-0.6,2.9-1.6
	c0.1-0.2,0.2-0.5,0.2-0.7C58.9,489.2,58,487.2,55.8,487.2z"/>
<path class="st0" d="M31.4,458.9v63H80v-63H31.4z M48.7,500.9h-9.5v-1.2l1.6-1.5c3.8-3.6,5.5-5.6,5.6-7.8c0.2-1.5-0.9-2.8-2.4-2.9
	c-0.2,0-0.4,0-0.6,0c-1.2,0-2.3,0.5-3.2,1.3l-0.6-1.4c1.2-1,2.7-1.5,4.2-1.5c2.3-0.2,4.4,1.5,4.6,3.8c0,0.2,0,0.4,0,0.5
	c0,2.8-2,5-5.2,8l-1.2,1.2l0,0h6.7L48.7,500.9z M58.4,499c-1.2,1.1-2.7,1.8-4.3,2c-0.6,0.1-1.2,0.1-1.9,0.1v-1.7
	c0.5,0,1.1,0,1.6-0.1c1.2-0.1,2.3-0.6,3.1-1.4c1.1-1.1,1.8-2.5,2-4h-0.1c-1.6,1.9-4.4,2.2-6.3,0.6c-1-0.9-1.6-2.2-1.6-3.6
	c-0.1-2.8,2.1-5.2,4.9-5.3c0.1,0,0.1,0,0.2,0c3.1,0,5,2.5,5,6.3C61.2,494.6,60.2,497.1,58.4,499L58.4,499z M72.9,492.8v6.5
	c0,2.5-0.5,4.1-1.6,5.1c-1.1,0.9-2.5,1.4-4,1.3c-1.3,0-2.6-0.3-3.7-0.9l0.5-1.5c1,0.6,2.1,0.9,3.3,0.9c2.1,0,3.6-1.1,3.6-3.9V499
	l0,0c-0.8,1.2-2.1,1.9-3.5,1.9c-2.8,0-4.7-2.3-4.7-5.4c0-3.8,2.5-5.9,5-5.9c1.4-0.1,2.8,0.7,3.5,1.9l0,0l0.1-1.7H73
	C73,490.6,72.9,491.5,72.9,492.8L72.9,492.8z"/>
<path class="st0" d="M67.8,230.7c-1.5,0.3-2.6,1.5-2.7,3.1c-0.1,1.5,1.1,2.8,2.7,2.9c0.1,0,0.2,0,0.3,0c1.5,0.2,2.8-0.9,3-2.4
	c0-0.1,0-0.2,0-0.3C71.1,232.2,69.8,231.3,67.8,230.7z"/>
<path class="st0" d="M79.9,224.2c-1.8,0-3.1,2.2-3.1,6.2c0,3.9,1.2,6.1,3,6.1c2.1,0,3.1-2.4,3.1-6.2S82,224.2,79.9,224.2z"/>
<path class="st0" d="M92,228.1c-1.9,0-3.3,1.6-3.3,4.2c0,2.2,1.1,4,3.3,4c1.3,0,2.4-0.8,2.8-2.1c0.1-0.3,0.2-0.7,0.2-1.1v-2
	c0-0.3,0-0.6-0.1-0.9C94.5,228.9,93.3,228.1,92,228.1z"/>
<path class="st0" d="M31.4,197.9v63h101v-63H31.4z M68.1,238.1c-3.1,0-5-1.9-5-4c0-1.8,1.2-3.5,3-4V230c-1.4-0.5-2.3-1.9-2.4-3.4
	c0-2.4,2-4,4.6-4c2.9,0,4.3,1.8,4.3,3.7c0,1.6-1,2.9-2.5,3.5v0.1c1.9,0.7,3,2,3,3.9C73.2,236.4,70.9,238.1,68.1,238.1z M79.8,238.1
	c-2.9,0-4.9-2.7-4.9-7.7s2.2-7.8,5.2-7.8s5,2.8,5,7.6C85,235.3,83.1,238.1,79.8,238.1z M97,229.8v6.5c0,2.5-0.5,4.1-1.6,5.1
	c-1.1,0.9-2.5,1.4-4,1.3c-1.3,0-2.6-0.3-3.7-0.9l0.5-1.5c1,0.6,2.1,0.9,3.3,0.9c2.1,0,3.6-1.1,3.6-3.9V236l0,0
	c-0.8,1.2-2.1,1.9-3.5,1.9c-2.8,0-4.7-2.3-4.7-5.4c0-3.8,2.5-5.9,5-5.9c1.4-0.1,2.8,0.7,3.5,1.9l0,0l0.1-1.7h1.8
	C97,227.5,97,228.4,97,229.8z"/>
<path class="st0" d="M68.4,229.3c1.3-0.3,2.2-1.4,2.3-2.7c0.1-1.3-0.9-2.4-2.2-2.4c-0.1,0-0.2,0-0.3,0c-1.3-0.1-2.5,0.8-2.6,2.1
	c0,0.1,0,0.2,0,0.3C65.5,228,66.7,228.8,68.4,229.3z"/>
<path class="st0" d="M71.6,313.5c-1.9,0-3.3,1.6-3.3,4.2c0,2.2,1.1,4,3.3,4c1.3,0,2.4-0.8,2.8-2.1c0.1-0.3,0.2-0.7,0.2-1.1v-2
	c0.1-1.6-1.2-3-2.8-3.1C71.6,313.5,71.6,313.5,71.6,313.5z"/>
<path class="st0" d="M59.7,314.7c1.3-0.3,2.2-1.4,2.3-2.7c0.1-1.3-0.9-2.4-2.2-2.4c-0.1,0-0.2,0-0.3,0c-1.3-0.1-2.5,0.8-2.6,2.1
	c0,0.1,0,0.2,0,0.3C56.9,313.5,58,314.3,59.7,314.7z"/>
<path class="st0" d="M59.2,316.2c-1.5,0.3-2.6,1.6-2.7,3.1c0,1.5,1.1,2.8,2.7,2.9c0.1,0,0.2,0,0.3,0c1.5,0.2,2.8-0.9,3-2.4
	c0-0.1,0-0.2,0-0.3C62.5,317.6,61.2,316.8,59.2,316.2z"/>
<path class="st0" d="M31.4,283.9v63h63v-63H31.4z M46.4,323.6c-1.3,0-2.6-0.3-3.7-0.9l0.5-1.5c1,0.5,2.1,0.8,3.2,0.8
	c1.8,0.2,3.4-1.2,3.6-3c0-0.1,0-0.2,0-0.2c0-1.9-1.3-3.3-4.3-3.3c-0.7,0-1.4,0.1-2.1,0.2l1-7.2h7.2v1.7H46l-0.6,3.9
	c0.4-0.1,0.8-0.1,1.2-0.1c1.1,0,2.2,0.3,3.2,0.8c1.4,0.8,2.2,2.3,2.1,3.8C52,321.4,49.7,323.6,46.4,323.6z M59.4,323.6
	c-3.1,0-5-1.9-5-4c0-1.8,1.2-3.5,3-4v-0.1c-1.4-0.5-2.4-1.8-2.4-3.4c0-2.4,2-4,4.6-4c2.9,0,4.3,1.8,4.3,3.7c0,1.6-1,2.9-2.5,3.5v0.1
	c1.9,0.7,3,2,3,3.9C64.5,321.8,62.3,323.6,59.4,323.6L59.4,323.6z M76.6,315.3v6.5c0,2.5-0.5,4.1-1.6,5.1c-1.1,0.9-2.5,1.4-4,1.3
	c-1.3,0-2.6-0.3-3.7-0.9l0.5-1.5c1,0.6,2.1,0.9,3.3,0.9c2.1,0,3.6-1.1,3.6-3.9v-1.2l0,0c-0.8,1.2-2.2,1.9-3.6,1.9
	c-2.8,0-4.7-2.4-4.7-5.4c0-3.8,2.5-5.9,5-5.9c1.4-0.1,2.8,0.7,3.5,1.9l0,0l0.1-1.7h1.8C76.6,313,76.5,314,76.6,315.3L76.6,315.3z"/>
<path class="st0" d="M114.5,514.8h5.1v1h-3.9v3.2h3.6v1h-3.6v4.3h-1.2L114.5,514.8z"/>
<path class="st0" d="M121.6,521.1c-0.1,1.2,0.8,2.2,2,2.3c0.1,0,0.2,0,0.3,0c0.6,0,1.3-0.1,1.9-0.3l0.2,0.9
	c-0.7,0.3-1.5,0.4-2.2,0.4c-1.7,0.1-3.2-1.2-3.3-2.9c0-0.2,0-0.3,0-0.5c0-2,1.2-3.7,3.2-3.7c2.2,0,2.8,2,2.8,3.2c0,0.2,0,0.4,0,0.6
	H121.6z M125.2,520.2c0.1-1-0.5-1.8-1.5-2c-0.1,0-0.2,0-0.2,0c-1.1,0.1-1.9,0.9-1.9,2H125.2z"/>
<path class="st0" d="M127.9,519.6c0-0.8,0-1.5-0.1-2.1h1.1v1.3h0.1c0.2-0.9,1-1.5,1.9-1.5c0.1,0,0.2,0,0.4,0v1.2c-0.1,0-0.3,0-0.4,0
	c-0.9,0-1.6,0.7-1.6,1.6c0,0.2,0,0.4,0,0.6v3.6h-1.2L127.9,519.6z"/>
<path class="st0" d="M132.5,519.3c0-0.7,0-1.3-0.1-1.8h1.1l0.1,1.1l0,0c0.5-0.8,1.3-1.3,2.2-1.3c0.9,0,2.4,0.6,2.4,2.9v4H137v-3.9
	c0-1.1-0.4-2-1.6-2c-0.8,0-1.4,0.5-1.6,1.3c-0.1,0.2-0.1,0.4-0.1,0.6v4.1h-1.2L132.5,519.3z"/>
<path class="st0" d="M140.2,524.2c0-0.5,0.1-1.2,0.1-1.8v-8.2h1.2v4.3l0,0c0.5-0.8,1.4-1.3,2.3-1.2c1.7,0,2.9,1.4,2.9,3.5
	c0,2.4-1.5,3.6-3,3.6c-0.9,0.1-1.8-0.4-2.3-1.3h-0.1v1.1H140.2z M141.5,521.5c0,0.2,0,0.3,0.1,0.5c0.2,0.9,1,1.4,1.9,1.5
	c1.3,0,2.1-1,2.1-2.6c0-1.4-0.7-2.5-2-2.5c-0.9,0-1.7,0.6-1.9,1.5c0,0.2-0.1,0.3-0.1,0.5L141.5,521.5z"/>
<path class="st0" d="M153.9,522.4c0,0.7,0,1.3,0,1.8h-1.1l-0.1-1.1l0,0c-0.5,0.8-1.3,1.3-2.2,1.3c-1.1,0-2.3-0.6-2.3-3v-4h1.2v3.8
	c0,1.3,0.4,2.2,1.5,2.2c1,0,1.7-0.8,1.7-1.8v-4.2h1.2L153.9,522.4z"/>
<path class="st0" d="M155.8,523c0.5,0.3,1.1,0.5,1.6,0.5c0.9,0,1.3-0.5,1.3-1s-0.4-0.9-1.3-1.2c-1.2-0.4-1.8-1.1-1.8-1.9
	c0-1.2,1-2.1,2.2-2c0.1,0,0.1,0,0.2,0c0.6,0,1.2,0.1,1.7,0.4l-0.3,0.9c-0.4-0.3-0.9-0.4-1.4-0.4c-0.7,0-1.1,0.4-1.1,0.9
	s0.4,0.8,1.3,1.2c1.2,0.5,1.8,1,1.8,2c0,1.2-0.9,2-2.5,2c-0.7,0-1.3-0.1-1.9-0.5L155.8,523z"/>
<path class="st0" d="M118.5,428c0.7-0.1,1.5-0.2,2.2-0.2c0.9-0.1,1.8,0.2,2.6,0.7c0.5,0.4,0.8,1,0.8,1.7c0,1-0.7,1.8-1.6,2.1l0,0
	c1.1,0.2,1.9,1.2,1.9,2.4c0,0.7-0.3,1.4-0.8,1.9c-0.9,0.7-2.1,1-3.3,0.9c-0.6,0-1.3,0-1.9-0.1L118.5,428z M119.8,431.8h1.1
	c1.3,0,2-0.7,2-1.6c0-1.1-0.8-1.5-2.1-1.5c-0.4,0-0.7,0-1.1,0.1L119.8,431.8z M119.8,436.3c0.3,0,0.7,0,1,0c1.3,0,2.4-0.5,2.4-1.8
	s-1.1-1.8-2.4-1.8h-1L119.8,436.3z"/>
<path class="st0" d="M129.8,437.2l-0.1-0.9l0,0c-0.5,0.6-1.3,1-2.1,1c-1.1,0.1-2-0.7-2.1-1.8c0-0.1,0-0.1,0-0.2
	c0-1.6,1.5-2.5,4.1-2.5v-0.1c0.1-0.8-0.4-1.5-1.2-1.6c-0.1,0-0.2,0-0.3,0c-0.6,0-1.2,0.2-1.8,0.5l-0.3-0.8c0.7-0.4,1.4-0.6,2.2-0.6
	c2.1,0,2.6,1.4,2.6,2.8v2.5c0,0.5,0,1.1,0.1,1.6L129.8,437.2z M129.7,433.8c-1.4,0-2.9,0.2-2.9,1.5c-0.1,0.6,0.4,1.1,1,1.2
	c0.1,0,0.1,0,0.2,0c0.7,0,1.4-0.4,1.6-1.1c0-0.1,0.1-0.3,0.1-0.4L129.7,433.8z"/>
<path class="st0" d="M132.8,427.3h1.2v4.2l0,0c0.2-0.4,0.5-0.7,0.9-0.9c0.4-0.2,0.8-0.3,1.3-0.4c0.9,0,2.4,0.6,2.4,2.9v4h-1.2v-3.9
	c0-1.1-0.4-2-1.6-2c-0.8,0-1.4,0.5-1.6,1.2c-0.1,0.2-0.1,0.4-0.1,0.6v4.1h-1.2L132.8,427.3z"/>
<path class="st0" d="M140.6,432.3c0-0.7,0-1.3-0.1-1.8h1.1l0.1,1.1l0,0c0.5-0.8,1.3-1.3,2.2-1.3c0.9,0,2.4,0.6,2.4,2.9v4h-1.2v-3.9
	c0-1.1-0.4-2-1.6-2c-0.8,0-1.4,0.5-1.6,1.3c-0.1,0.2-0.1,0.4-0.1,0.6v4.1h-1.2L140.6,432.3z"/>
<path class="st0" d="M131.2,337.9v5.6c0,2.1,0.9,3,2.2,3s2.3-0.9,2.3-3v-5.6h1.3v5.5c0,2.9-1.5,4.1-3.6,4.1s-3.4-1.1-3.4-4v-5.6
	L131.2,337.9z"/>
<path class="st0" d="M141.9,343.1v0.9h-3.5V343L141.9,343.1z"/>
<path class="st0" d="M143.4,338c0.7-0.1,1.5-0.2,2.2-0.2c0.9-0.1,1.8,0.2,2.6,0.7c0.5,0.4,0.8,1,0.8,1.7c0,1-0.7,1.8-1.6,2.1l0,0
	c1.1,0.2,2,1.2,2,2.4c0,0.7-0.3,1.4-0.8,1.9c-0.9,0.7-2.1,1-3.3,0.9c-0.6,0-1.3,0-1.9-0.1L143.4,338z M144.6,341.8h1.1
	c1.3,0,2-0.7,2-1.6c0-1.1-0.8-1.5-2.1-1.5c-0.4,0-0.7,0-1.1,0.1L144.6,341.8z M144.6,346.4c0.3,0,0.7,0.1,1,0c1.3,0,2.4-0.5,2.4-1.8
	s-1.1-1.8-2.4-1.8h-1L144.6,346.4z"/>
<path class="st0" d="M154.7,347.3l-0.1-0.9l0,0c-0.5,0.6-1.3,1-2.1,1c-1.1,0.1-2-0.7-2.1-1.8c0-0.1,0-0.1,0-0.2
	c0-1.6,1.4-2.5,4.1-2.5v-0.1c0.1-0.8-0.4-1.5-1.2-1.6c-0.1,0-0.2,0-0.4,0c-0.6,0-1.2,0.2-1.8,0.5l-0.3-0.8c0.7-0.4,1.4-0.6,2.2-0.6
	c2.1,0,2.6,1.4,2.6,2.8v2.5c0,0.5,0,1.1,0.1,1.6L154.7,347.3z M154.5,343.9c-1.3,0-2.9,0.2-2.9,1.5c0,0.6,0.4,1.1,1,1.2
	c0.1,0,0.1,0,0.2,0c0.7,0,1.4-0.4,1.6-1.1c0-0.1,0.1-0.3,0.1-0.4L154.5,343.9z"/>
<path class="st0" d="M157.7,337.4h1.2v4.2l0,0c0.2-0.4,0.5-0.7,0.9-0.9c0.4-0.2,0.8-0.3,1.3-0.4c0.9,0,2.4,0.6,2.4,2.9v4h-1.2v-3.9
	c0-1.1-0.4-2-1.6-2c-0.8,0-1.4,0.5-1.7,1.2c-0.1,0.2-0.1,0.4-0.1,0.6v4.1h-1.2L157.7,337.4z"/>
<path class="st0" d="M165.4,342.4c0-0.7,0-1.3-0.1-1.8h1.1l0.1,1.1l0,0c0.5-0.8,1.3-1.3,2.2-1.3c0.9,0,2.4,0.6,2.4,2.9v4H170v-3.9
	c0-1.1-0.4-2-1.6-2c-0.8,0-1.4,0.5-1.7,1.3c-0.1,0.2-0.1,0.4-0.1,0.6v4.1h-1.2L165.4,342.4z"/>
<path class="st0" d="M156.2,246.9h1.2v8.4h4v1h-5.3L156.2,246.9z"/>
<path class="st0" d="M164.1,247.6c0,0.4-0.3,0.8-0.8,0.8c-0.4,0-0.8-0.3-0.8-0.8c0-0.4,0.3-0.8,0.7-0.8c0,0,0,0,0,0
	C163.8,246.8,164.1,247.2,164.1,247.6C164.1,247.6,164.1,247.6,164.1,247.6z M162.7,256.3v-6.8h1.3v6.8H162.7z"/>
<path class="st0" d="M166,251.4c0-0.7,0-1.3-0.1-1.8h1.1l0.1,1.1l0,0c0.5-0.8,1.3-1.3,2.2-1.3c0.9,0,2.4,0.6,2.4,2.9v4h-1.2v-3.9
	c0-1.1-0.4-2-1.6-2c-0.8,0-1.4,0.5-1.7,1.3c-0.1,0.2-0.1,0.4-0.1,0.6v4.1H166V251.4z"/>
<path class="st0" d="M175.2,247.6c0,0.4-0.3,0.7-0.7,0.8c0,0-0.1,0-0.1,0c-0.4,0-0.7-0.3-0.8-0.7c0,0,0,0,0,0c0-0.4,0.3-0.8,0.7-0.8
	c0,0,0,0,0,0C174.8,246.8,175.1,247.2,175.2,247.6C175.2,247.6,175.2,247.6,175.2,247.6z M173.8,256.3v-6.8h1.2v6.8H173.8z"/>
<path class="st0" d="M177.8,253.1c-0.1,1.2,0.8,2.2,2,2.4c0.1,0,0.2,0,0.4,0c0.6,0,1.3-0.1,1.9-0.4l0.2,0.9
	c-0.7,0.3-1.5,0.4-2.2,0.4c-1.7,0.1-3.2-1.2-3.3-2.9c0-0.2,0-0.3,0-0.5c0-2,1.2-3.6,3.2-3.6c2.2,0,2.8,1.9,2.8,3.2
	c0,0.2,0,0.4,0,0.6H177.8z M181.4,252.3c0.1-1-0.5-1.8-1.5-2c-0.1,0-0.2,0-0.2,0c-1.1,0.1-1.9,0.9-1.9,2H181.4z"/>
<path class="st0" d="M184.1,251.4c0-0.7,0-1.3-0.1-1.8h1.1l0.1,1.1l0,0c0.5-0.8,1.3-1.3,2.2-1.3c0.9,0,2.4,0.6,2.4,2.9v4h-1.2v-3.9
	c0-1.1-0.4-2-1.6-2c-0.8,0-1.4,0.5-1.7,1.3c-0.1,0.2-0.1,0.4-0.1,0.6v4.1h-1.2L184.1,251.4z"/>
<path class="st0" d="M191.8,256.3c0-0.5,0.1-1.1,0.1-1.8v-8.2h1.2v4.3l0,0c0.5-0.8,1.4-1.3,2.3-1.2c1.7,0,2.9,1.4,2.9,3.5
	c0,2.4-1.5,3.6-3,3.6c-0.9,0.1-1.8-0.4-2.3-1.3l0,0v1.1H191.8z M193.1,253.6c0,0.2,0,0.3,0.1,0.5c0.2,0.9,1,1.4,1.9,1.4
	c1.3,0,2.1-1,2.1-2.6c0-1.4-0.7-2.5-2-2.5c-0.9,0-1.7,0.6-1.9,1.5c0,0.2-0.1,0.3-0.1,0.5L193.1,253.6z"/>
<path class="st0" d="M205.5,254.5c0,0.7,0,1.3,0,1.9h-1.1l-0.1-1.1l0,0c-0.5,0.8-1.3,1.3-2.2,1.3c-1.1,0-2.3-0.6-2.3-3v-4h1.2v3.8
	c0,1.3,0.4,2.2,1.5,2.2c0.7,0,1.4-0.5,1.6-1.1c0.1-0.2,0.1-0.4,0.1-0.6v-4.2h1.2V254.5z"/>
<path class="st0" d="M207.4,255.1c0.5,0.3,1,0.5,1.6,0.5c0.9,0,1.3-0.5,1.3-1s-0.4-0.9-1.3-1.2c-1.2-0.4-1.8-1.1-1.8-1.9
	c0-1.1,1-2,2.1-2c0.1,0,0.1,0,0.2,0c0.6,0,1.2,0.1,1.7,0.4l-0.3,0.9c-0.4-0.3-0.9-0.4-1.4-0.4c-0.7,0-1.1,0.4-1.1,0.9
	s0.4,0.8,1.3,1.1c1.2,0.5,1.8,1,1.8,2c0,1.2-0.9,2-2.5,2c-0.7,0-1.3-0.1-1.9-0.5L207.4,255.1z"/>
<path class="st0" d="M238,159.3l-1,3h-1.3l3.2-9.4h1.5l3.2,9.4h-1.3l-1-3H238z M241.1,158.4l-0.9-2.7c-0.2-0.6-0.4-1.2-0.5-1.7l0,0
	c-0.1,0.6-0.3,1.1-0.5,1.7l-0.9,2.7H241.1z"/>
<path class="st0" d="M250.5,160.5c0,0.7,0,1.3,0.1,1.9h-1.1l-0.1-1.1l0,0c-0.5,0.8-1.3,1.3-2.2,1.3c-1.1,0-2.3-0.6-2.3-3v-4h1.2v3.8
	c0,1.3,0.4,2.2,1.5,2.2c0.7,0,1.4-0.5,1.6-1.1c0.1-0.2,0.1-0.4,0.1-0.6v-4.2h1.2L250.5,160.5z"/>
<path class="st0" d="M254,153.6v2h1.8v0.9H254v3.6c0,0.8,0.2,1.3,0.9,1.3c0.2,0,0.5,0,0.7-0.1l0.1,0.9c-0.3,0.1-0.7,0.2-1.1,0.2
	c-0.5,0-1-0.2-1.3-0.5c-0.4-0.5-0.5-1.1-0.5-1.8v-3.7h-1v-0.9h1V154L254,153.6z"/>
<path class="st0" d="M263.2,158.9c0.2,1.8-1.2,3.4-3,3.6c-0.1,0-0.2,0-0.4,0c-1.8,0-3.2-1.4-3.3-3.2c0-0.1,0-0.2,0-0.3
	c-0.2-1.8,1.2-3.4,3-3.6c0.1,0,0.2,0,0.4,0c1.8,0,3.2,1.4,3.3,3.1C263.2,158.6,263.2,158.7,263.2,158.9z M257.9,158.9
	c0,1.5,0.9,2.6,2.1,2.6s2-1.1,2-2.6c0-1.1-0.6-2.6-2-2.6S257.9,157.7,257.9,158.9L257.9,158.9z"/>
<path class="st0" d="M364.7,71.9h5.1v1h-3.9V76h3.6v1h-3.6v4.3h-1.2V71.9z"/>
<path class="st0" d="M371.2,71.4h1.2v10h-1.2V71.4z"/>
<path class="st0" d="M380.2,79.5c0,0.7,0,1.3,0.1,1.9h-1.1l-0.1-1.1l0,0c-0.5,0.8-1.3,1.3-2.2,1.3c-1.1,0-2.3-0.6-2.3-3v-4h1.2v3.8
	c0,1.3,0.4,2.2,1.5,2.2c0.7,0,1.4-0.5,1.6-1.1c0.1-0.2,0.1-0.4,0.1-0.6v-4.2h1.2L380.2,79.5z"/>
<path class="st0" d="M388.1,74.5c0,0.5,0,1,0,1.9v3.9c0,1.6-0.3,2.5-1,3.1c-0.7,0.6-1.6,0.9-2.5,0.8c-0.8,0-1.6-0.2-2.3-0.6l0.3-0.9
	c0.6,0.4,1.3,0.5,2,0.5c1.3,0,2.2-0.7,2.2-2.4v-0.8l0,0c-0.5,0.7-1.3,1.2-2.2,1.1c-1.7-0.1-3-1.4-2.9-3.1c0-0.1,0-0.1,0-0.2
	c0-2.3,1.5-3.6,3.1-3.6c0.9-0.1,1.7,0.4,2.1,1.2l0,0l0.1-1L388.1,74.5z M386.8,77.2c0-0.2,0-0.4-0.1-0.6c-0.2-0.8-0.9-1.3-1.7-1.3
	c-1.2,0-2,1-2,2.6c0,1.3,0.7,2.4,2,2.4c0.8,0,1.5-0.5,1.7-1.3c0.1-0.2,0.1-0.4,0.1-0.7L386.8,77.2z"/>
<path class="st0" d="M389.3,80.6l3.1-4c0.3-0.4,0.6-0.7,0.9-1.1l0,0h-3.7v-1h5.2v0.8l-3,3.9c-0.3,0.4-0.6,0.7-0.9,1.1l0,0h4v1h-5.5
	L389.3,80.6z"/>
<path class="st0" d="M396.7,78.1c-0.1,1.2,0.8,2.3,2,2.4c0.1,0,0.2,0,0.3,0c0.6,0,1.3-0.1,1.9-0.4l0.2,0.9c-0.7,0.3-1.5,0.4-2.2,0.4
	c-1.7,0.1-3.2-1.2-3.3-2.9c0-0.2,0-0.3,0-0.5c0-2,1.2-3.6,3.2-3.6c2.2,0,2.8,1.9,2.8,3.2c0,0.2,0,0.4,0,0.6L396.7,78.1z M400.3,77.3
	c0.1-1-0.5-1.8-1.5-2c-0.1,0-0.2,0-0.2,0c-1.1,0.1-1.9,0.9-1.9,2H400.3z"/>
<path class="st0" d="M408.7,79.5c0,0.7,0,1.3,0.1,1.9h-1.1l-0.1-1.1l0,0c-0.5,0.8-1.3,1.3-2.2,1.3c-1.1,0-2.3-0.6-2.3-3v-4h1.2v3.8
	c0,1.3,0.4,2.2,1.5,2.2c0.7,0,1.4-0.5,1.6-1.1c0.1-0.2,0.1-0.4,0.1-0.6v-4.2h1.2L408.7,79.5z"/>
<path class="st0" d="M416.5,74.5c0,0.5,0,1,0,1.9v3.9c0,1.6-0.3,2.5-1,3.1c-0.7,0.6-1.6,0.9-2.5,0.8c-0.8,0-1.6-0.2-2.2-0.6l0.3-0.9
	c0.6,0.4,1.3,0.5,2,0.5c1.3,0,2.2-0.7,2.2-2.4v-0.8l0,0c-0.5,0.7-1.3,1.2-2.1,1.1c-1.7-0.1-3-1.4-2.9-3.1c0-0.1,0-0.1,0-0.2
	c0-2.3,1.5-3.6,3-3.6c0.9-0.1,1.7,0.4,2.1,1.2l0,0l0-1L416.5,74.5z M415.3,77.2c0-0.2,0-0.4-0.1-0.6c-0.2-0.8-0.9-1.3-1.7-1.3
	c-1.2,0-2,1-2,2.6c0,1.3,0.7,2.4,2,2.4c0.8,0,1.5-0.5,1.7-1.3c0.1-0.2,0.1-0.4,0.1-0.7L415.3,77.2z"/>
<path class="st0" d="M412.3,51c0.2-0.1,0.2-0.4,0.2-0.6l-5.4-27.9c0-0.1-0.1-0.2-0.2-0.3l7.2-7.2c5.4-5.4,7.7-10.3,4.5-13.5
	s-8.1-0.9-13.5,4.5l-7.2,7.2c-0.1-0.1-0.2-0.2-0.3-0.2l-27.8-5.4c-0.2,0-0.4,0-0.6,0.2l-3.6,3.6c-0.1,0.1-0.2,0.3-0.2,0.6
	c0,0.2,0.2,0.4,0.3,0.5l21.9,11.2c-4.8,5.2-9.2,10.8-13.3,16.7l-9.9-2c-0.2,0-0.4,0-0.6,0.2l-2.7,2.7c-0.1,0.1-0.2,0.3-0.2,0.5
	c0,0.2,0.1,0.4,0.3,0.5l8.7,5.3c-0.9,1.8-1.3,3.1-0.8,3.6s1.7,0.1,3.5-0.8l5.2,8.7c0.1,0.2,0.3,0.3,0.5,0.3h0.1c0.2,0,0.3,0,0.5-0.1
	l2.7-2.7c0.2-0.2,0.2-0.4,0.2-0.6l-2-9.9c5.9-4,11.4-8.5,16.6-13.3l11.1,21.9c0.1,0.2,0.3,0.3,0.5,0.3h0.1c0.2,0,0.3-0.1,0.4-0.2
	L412.3,51z"/>
<path class="st0" d="M271.9,108.7h-3.2l-2.1-7.2c-0.9-3.5-4-6-7.6-6.1h-18.2c-3.6,0.1-6.7,2.6-7.6,6.1l-2.1,7.2H228
	c-1.5,0.1-2.6,1.3-2.5,2.8v1.6c-0.1,1.5,1.1,2.7,2.5,2.8h0.9c-0.5,2.6-0.8,5.2-0.8,7.9v13.5c-0.1,1.5,1.1,2.7,2.5,2.8h4.2
	c1.5-0.1,2.6-1.3,2.5-2.8V133h25.2v4.3c-0.1,1.5,1,2.7,2.5,2.8h4.2c1.5-0.1,2.6-1.3,2.5-2.8v-13.5c0-2.6-0.3-5.3-0.8-7.9h0.9
	c1.5-0.1,2.6-1.3,2.5-2.8v-1.6C274.5,110,273.3,108.8,271.9,108.7z M235.6,111.6l2.4-8.4c0.3-1.3,1.4-2.2,2.8-2.3H259
	c1.3,0,2.5,1,2.8,2.3l2.4,8.4c0.1,0.3-0.1,0.6-0.4,0.7c-0.1,0-0.1,0-0.2,0h-27.6C235.8,112.4,235.5,112,235.6,111.6L235.6,111.6z
	 M240.9,125.3h-5.1c-0.9,0-1.6-0.8-1.5-1.7c0,0,0,0,0,0V121c0-0.9,0.7-1.7,1.6-1.7c0.1,0,0.2,0,0.2,0l4.7,0.9
	c0.6,0.2,1.1,0.7,1.3,1.3l0.4,1.8c0.2,0.9-0.4,1.8-1.3,2C241,125.3,241,125.3,240.9,125.3L240.9,125.3z M265.6,123.6
	c0.1,0.9-0.6,1.6-1.5,1.7c0,0,0,0-0.1,0h-5.1c-0.9-0.1-1.6-0.9-1.5-1.8c0-0.1,0-0.2,0-0.2l0.4-1.8c0.1-0.7,0.6-1.2,1.3-1.3l4.7-0.9
	c0.9-0.1,1.7,0.5,1.8,1.4c0,0.1,0,0.2,0,0.3L265.6,123.6L265.6,123.6z"/>
<path class="st0" d="M142.9,409.8c-1.1,0.1-2.3,0.1-3.7,0.2l1.1,1.7H125l1.1-1.7c-1.4,0-2.6-0.1-3.7-0.2l-5.8,9.2
	c-0.5,0.8-0.2,1.8,0.5,2.2c0.3,0.2,0.6,0.2,0.9,0.2c0.6,0,1.1-0.3,1.4-0.8l0.5-0.9h25.4l0.5,0.9c0.3,0.5,0.8,0.8,1.4,0.8
	c0.9,0,1.6-0.7,1.6-1.6c0-0.3-0.1-0.6-0.2-0.8L142.9,409.8z M122,416.6l1-1.6h19.3l1,1.6H122z"/>
<path class="st0" d="M148.9,371.1c-1.6-1.6-7.3-1.6-16.2-1.6s-14.6,0-16.2,1.6s-1.6,8-1.6,17.9c0,7.9,0,13.6,0.8,16.3
	c0.1,0.6,0.4,1.1,0.8,1.5c0.2,0.2,0.4,0.3,0.6,0.5c2.2,1.2,7.6,1.2,15.6,1.2s13.4,0,15.6-1.2c0.2-0.1,0.5-0.3,0.6-0.5
	c0.4-0.4,0.7-1,0.8-1.5c0.8-2.8,0.8-8.4,0.8-16.3C150.6,379.1,150.6,372.7,148.9,371.1z M123.7,402c-2.2,0-4.1-1.8-4.1-4.1
	c0-2.2,1.8-4.1,4.1-4.1c2.2,0,4.1,1.8,4.1,4.1c0,0,0,0,0,0.1C127.8,400.2,126,402,123.7,402z M141.6,402c-2.2,0-4.1-1.8-4.1-4.1
	c0-2.2,1.8-4.1,4.1-4.1c2.2,0,4.1,1.8,4.1,4.1c0,0,0,0,0,0C145.7,400.1,143.9,402,141.6,402z M145.7,389c-1.6,1.6-5.8,1.6-13,1.6
	s-11.4,0-13-1.6s-1.6-3.3-1.6-7.3s0-5.7,1.6-7.3s5.8-1.6,13-1.6c7.2,0,11.4,0,13,1.6s1.6,3.3,1.6,7.3S147.3,387.3,145.7,389z"/>
<circle class="st0" cx="141.6" cy="397.9" r="2.4"/>
<circle class="st0" cx="123.7" cy="397.9" r="2.4"/>
<path class="st1" d="M119,486.6h30.5v-12.1c0-0.8-0.7-1.5-1.5-1.5h-27.5c-0.8,0-1.5,0.7-1.5,1.5L119,486.6z M130.6,495.8h7.4
	c0.2,0,0.3,0.1,0.3,0.3v2.4c0,0.2-0.2,0.3-0.3,0.3h-7.4c-0.2,0-0.3-0.1-0.3-0.3v-2.4C130.3,495.9,130.4,495.8,130.6,495.8
	L130.6,495.8z M152.6,498.3c0,1.7-1.4,3.1-3.1,3.1l-0.1,2.3c0,1.6-1.3,2.9-2.9,2.8h-1.6c-1.6,0-2.9-1.2-2.9-2.8c0,0,0-0.1,0-0.1
	v-2.3h-15.7v2.3c0,1.6-1.3,2.8-2.8,2.8h-1.6c-1.6,0-2.9-1.2-2.9-2.8c0,0,0,0,0-0.1v-2.3c-1.7,0-3.1-1.4-3.2-3.1v-27.7
	c0.4-5.2,4.7-9.3,9.9-9.3h16.8c5.2,0,9.6,4.1,9.9,9.3L152.6,498.3z M127.5,464.9H141c0.5,0,0.9,0.4,0.9,0.9v1.7
	c0,0.5-0.4,0.9-0.9,0.9c0,0,0,0,0,0h-13.6c-0.5,0-0.9-0.3-0.9-0.8c0,0,0-0.1,0-0.1v-1.7C126.5,465.3,126.9,464.9,127.5,464.9
	C127.4,464.9,127.4,464.9,127.5,464.9L127.5,464.9z M146.2,493.9c-1.3,0-2.3,1-2.3,2.3c0,1.3,1,2.3,2.3,2.3c1.3,0,2.3-1,2.3-2.3
	C148.5,495,147.4,493.9,146.2,493.9C146.2,494,146.2,494,146.2,493.9L146.2,493.9z M122.3,493.9c1.3,0,2.3,1,2.4,2.3
	c0,1.3-1,2.3-2.3,2.4c-1.3,0-2.3-1-2.4-2.3C120,495,121,494,122.3,493.9L122.3,493.9z"/>
<path class="st0" d="M202,204c-0.1,0-0.1,0-0.2,0v-5.5c0-0.3,0-0.5-0.1-0.8c0-0.1,0-0.1,0-0.2c0-3-9.1-5.3-20.4-5.3
	s-20.5,2.4-20.5,5.3v0.2c-0.1,0.3-0.1,0.5-0.1,0.8v5.5c-0.1,0-0.1,0-0.2,0c-1.1,0-2.1,2.8-2.1,6.2s0.9,6.2,2.1,6.2h0.2v12.4
	c0,2,1.6,3.5,3.5,3.5h0.6v2.2c0,1.3,1,2.3,2.3,2.3h2.2c1.3,0,2.3-1,2.3-2.3v-2.2h19.2v2.2c0,1.3,1,2.3,2.3,2.3h2.2
	c1.3,0,2.3-1,2.3-2.3c0,0,0,0,0,0v-2.2h0.6c1.9,0,3.5-1.6,3.6-3.5c0,0,0,0,0,0l0,0v-12.5h0.2c1.2,0,2.1-2.8,2.1-6.2
	S203.1,204,202,204z M173.4,195H189c0.7,0,1.3,0.6,1.3,1.3s-0.6,1.3-1.3,1.3h-15.6c-0.7,0-1.3-0.6-1.3-1.3S172.7,195,173.4,195
	L173.4,195L173.4,195z M168.2,228.8c-1.4,0-2.5-1.1-2.5-2.5c0-1.4,1.1-2.5,2.5-2.5s2.5,1.1,2.5,2.5l0,0
	C170.7,227.7,169.6,228.8,168.2,228.8C168.2,228.8,168.2,228.8,168.2,228.8L168.2,228.8z M194.2,228.8c-1.4,0-2.5-1.1-2.5-2.5
	c0-1.4,1.1-2.5,2.5-2.5s2.5,1.1,2.5,2.5l0,0C196.8,227.7,195.6,228.8,194.2,228.8L194.2,228.8L194.2,228.8z M198,218
	c0,1.5-1.2,2.7-2.7,2.7l0,0h-28.2c-1.5,0-2.7-1.2-2.7-2.7l0,0v-15.6c0-1.5,1.2-2.7,2.7-2.7l0,0h28.3c1.5,0,2.7,1.2,2.7,2.7l0,0
	L198,218L198,218z"/>
<path class="st0" d="M179,305v24.4h-3.8V305c0-13.3-10.4-24.1-23.1-24.1S129,291.6,129,305v24.4h-3.8V305c0-15.4,12.1-28,26.9-28
	S179,289.5,179,305z"/>
<path class="st0" d="M170.6,325c1.1,0,1.9,0.9,1.9,1.9c0,1.1-0.9,1.9-1.9,1.9h-36.8c-1.1,0-1.9-0.9-1.9-1.9c0-1.1,0.9-1.9,1.9-1.9
	H170.6z"/>
<path class="st0" d="M170.6,305.7v15.2c0,1-0.8,1.9-1.9,1.9c0,0,0,0,0,0h-33.1c-1.1,0-1.9-0.9-1.9-1.9v-15.2c0-0.2,0-0.4,0.1-0.6
	l4.9-15.2c0.2-0.8,1-1.3,1.8-1.3h23.3c0.8,0,1.6,0.5,1.8,1.3l4.9,15.2C170.5,305.3,170.6,305.5,170.6,305.7z M166.7,305.7l-3.9-12.1
	h-21.3l-3.9,12.1H166.7z M166.7,313.5c0-2.5-2.1-4.5-4.5-4.4c-2.5,0-4.5,2.1-4.4,4.5c0,2.5,2,4.4,4.5,4.4
	C164.7,318,166.7,316,166.7,313.5L166.7,313.5z M146.6,313.5c0-2.5-2.1-4.5-4.5-4.4s-4.5,2.1-4.4,4.5c0,2.5,2,4.4,4.5,4.4
	C144.6,318,146.6,316,146.6,313.5L146.6,313.5z"/>
</svg>
