<svg id="Layer_1" data-name="Layer 1" xmlns="http://www.w3.org/2000/svg" viewBox="0 0 451 605"><defs><style>.cls-1,.cls-2{fill:#fff;}.cls-2{fill-rule:evenodd;}</style></defs><title>Artboard 5</title><path class="cls-1" d="M201.13,102c-1.93,0-3.31,1.63-3.31,4.21,0,2.18,1.1,4,3.29,4a3,3,0,0,0,2.8-2.07,3.41,3.41,0,0,0,.16-1.08v-2a2.95,2.95,0,0,0-2.94-3.06Z"/><path class="cls-1" d="M189,98.11c-1.77,0-3.06,2.16-3.06,6.23,0,3.89,1.2,6.09,3,6.09,2.07,0,3.06-2.41,3.06-6.23S191.1,98.11,189,98.11Z"/><path class="cls-1" d="M31.44,72.91v63h300v-63Zm138.64,38.83h-9.54V110.5l1.58-1.54c3.82-3.63,5.54-5.56,5.57-7.82a2.67,2.67,0,0,0-3-2.92,5,5,0,0,0-3.17,1.27l-.65-1.43a6.6,6.6,0,0,1,4.23-1.52,4.21,4.21,0,0,1,4.58,4.35c0,2.76-2,5-5.15,8l-1.2,1.1v0h6.72Zm6.07.26a7.47,7.47,0,0,1-3.88-1l.55-1.56a6.73,6.73,0,0,0,3.31.94c2.6,0,3.4-1.65,3.38-2.89,0-2.1-1.91-3-3.86-3h-1.13V103h1.13c1.47,0,3.33-.76,3.33-2.53,0-1.2-.76-2.25-2.62-2.25a5.47,5.47,0,0,0-3,1l-.53-1.48a7.14,7.14,0,0,1,3.91-1.15c2.94,0,4.28,1.75,4.28,3.57a3.72,3.72,0,0,1-2.76,3.52v0a3.89,3.89,0,0,1,3.33,3.84C181.6,109.9,179.74,112,176.15,112Zm12.72,0c-2.92,0-4.9-2.74-4.94-7.68s2.16-7.78,5.19-7.78,4.95,2.81,4.95,7.57C194.07,109.19,192.18,112,188.87,112Zm17.2-8.33v6.46c0,2.56-.5,4.12-1.58,5.09a5.92,5.92,0,0,1-4.05,1.33,7.12,7.12,0,0,1-3.7-.92l.5-1.54a6.31,6.31,0,0,0,3.27.87c2.07,0,3.58-1.08,3.58-3.88v-1.25h0a4,4,0,0,1-3.54,1.87c-2.76,0-4.74-2.35-4.74-5.43,0-3.77,2.46-5.91,5-5.91a3.72,3.72,0,0,1,3.48,1.93h0l.09-1.68h1.77C206.12,101.42,206.07,102.32,206.07,103.67Z"/><path class="cls-1" d="M133.6,192.3c-1.93,0-3.31,1.64-3.31,4.21,0,2.19,1.1,4,3.29,4a2.94,2.94,0,0,0,2.8-2.07,3.33,3.33,0,0,0,.16-1.08v-2a3,3,0,0,0-.11-.92A2.92,2.92,0,0,0,133.6,192.3Z"/><path class="cls-1" d="M109.82,191.32l-3.66,5.08v0h4.9v-5c0-.78,0-1.56.07-2.34h-.07C110.6,190,110.23,190.62,109.82,191.32Z"/><path class="cls-1" d="M31.44,162.91v63h171v-63ZM99.35,202.1H97.4V189h-.05l-2.6,1.4-.39-1.54,3.27-1.75h1.72ZM115.06,198H113v4.07h-1.91V198h-6.94V196.7l6.67-9.55H113v9.29h2.09Zm11.25-9.54L119.8,202.1h-2.09l6.48-13.22v0h-7.31v-1.68h9.43ZM138.54,194v6.46c0,2.55-.5,4.12-1.58,5.08a5.92,5.92,0,0,1-4.05,1.34,7.24,7.24,0,0,1-3.7-.92l.5-1.54a6.31,6.31,0,0,0,3.27.87c2.07,0,3.59-1.08,3.59-3.89v-1.24h0a4,4,0,0,1-3.54,1.86c-2.76,0-4.74-2.34-4.74-5.42,0-3.77,2.46-5.91,5-5.91a3.71,3.71,0,0,1,3.48,1.93h0l.1-1.68h1.77C138.59,191.78,138.54,192.67,138.54,194Z"/><path class="cls-1" d="M68.76,459.37c-1.93,0-3.31,1.63-3.31,4.21,0,2.18,1.1,4,3.29,4a2.94,2.94,0,0,0,2.8-2.07,3.34,3.34,0,0,0,.17-1.08v-2a3,3,0,0,0-2.95-3.06Z"/><path class="cls-1" d="M31.44,427.91v63H81v-63Zm12.35,41.51a7.62,7.62,0,0,1-3.89-1l.55-1.57a6.76,6.76,0,0,0,3.31,1c2.6,0,3.41-1.66,3.38-2.9,0-2.09-1.91-3-3.86-3H42.15v-1.52h1.13c1.47,0,3.33-.76,3.33-2.53,0-1.19-.76-2.25-2.62-2.25a5.53,5.53,0,0,0-3,1l-.53-1.47A7.06,7.06,0,0,1,44.38,454c2.95,0,4.28,1.74,4.28,3.56a3.72,3.72,0,0,1-2.76,3.52v.05a3.88,3.88,0,0,1,3.33,3.84C49.23,467.33,47.37,469.42,43.79,469.42Zm17.52-.25H51.77v-1.24l1.58-1.55c3.82-3.63,5.54-5.56,5.57-7.81a2.67,2.67,0,0,0-3-2.92,5.1,5.1,0,0,0-3.17,1.26l-.65-1.42A6.55,6.55,0,0,1,56.37,454a4.2,4.2,0,0,1,4.57,4.34c0,2.76-2,5-5.15,8l-1.2,1.1v.05h6.72Zm12.4-8.07v6.46c0,2.55-.51,4.11-1.59,5.08A5.92,5.92,0,0,1,68.07,474a7.17,7.17,0,0,1-3.7-.92l.51-1.54a6.23,6.23,0,0,0,3.26.88c2.07,0,3.59-1.08,3.59-3.89v-1.24h0a4,4,0,0,1-3.54,1.86c-2.76,0-4.74-2.34-4.74-5.43,0-3.77,2.46-5.9,5-5.9a3.7,3.7,0,0,1,3.47,1.93h0L72,458H73.8C73.75,458.84,73.71,459.74,73.71,461.1Z"/><path class="cls-1" d="M68,549.14c-1.93,0-3.31,1.63-3.31,4.21,0,2.18,1.11,4,3.29,4a3,3,0,0,0,2.81-2.07,3.72,3.72,0,0,0,.16-1.08v-2a2.89,2.89,0,0,0-.12-.92A2.92,2.92,0,0,0,68,549.14Z"/><path class="cls-1" d="M55.85,545.28c-1.72,0-2.94,1.51-2.94,3.63a2.87,2.87,0,0,0,2.87,3.17,3.32,3.32,0,0,0,2.94-1.56,1.28,1.28,0,0,0,.19-.74C58.91,547.23,58,545.28,55.85,545.28Z"/><path class="cls-1" d="M31.44,516.91v63H80v-63Zm17.3,42H39.2v-1.25l1.59-1.54c3.81-3.63,5.54-5.56,5.56-7.82a2.67,2.67,0,0,0-3-2.92,5.07,5.07,0,0,0-3.17,1.27l-.64-1.43a6.55,6.55,0,0,1,4.23-1.51,4.2,4.2,0,0,1,4.58,4.34c0,2.76-2,5-5.16,8L42,557.21v0h6.71Zm9.64-1.89a7.44,7.44,0,0,1-4.35,2,9.29,9.29,0,0,1-1.86.12v-1.66a8,8,0,0,0,1.63-.07A5.58,5.58,0,0,0,56.93,556a6.54,6.54,0,0,0,2-4h-.07a4.49,4.49,0,0,1-7.93-3,5.12,5.12,0,0,1,5.1-5.31c3.06,0,5,2.48,5,6.3A9.46,9.46,0,0,1,58.38,557.05Zm14.56-6.19v6.47c0,2.55-.51,4.11-1.59,5.08a5.9,5.9,0,0,1-4,1.33,7.17,7.17,0,0,1-3.7-.92l.51-1.54a6.24,6.24,0,0,0,3.26.87c2.07,0,3.59-1.08,3.59-3.88V557h0a4,4,0,0,1-3.54,1.86c-2.76,0-4.73-2.35-4.73-5.43,0-3.77,2.46-5.91,5-5.91a3.7,3.7,0,0,1,3.47,1.93h0l.09-1.67H73C73,548.61,72.94,549.51,72.94,550.86Z"/><path class="cls-1" d="M67.81,288.75a3.25,3.25,0,0,0-2.69,3.08,2.76,2.76,0,0,0,3,2.85,2.71,2.71,0,0,0,3-2.67C71.1,290.2,69.84,289.32,67.81,288.75Z"/><path class="cls-1" d="M79.91,282.26c-1.77,0-3.06,2.16-3.06,6.23,0,3.89,1.2,6.1,3,6.1,2.07,0,3.06-2.42,3.06-6.23S82,282.26,79.91,282.26Z"/><path class="cls-1" d="M92,286.1c-1.93,0-3.31,1.64-3.31,4.21,0,2.19,1.1,4,3.29,4a2.94,2.94,0,0,0,2.8-2.07,3.33,3.33,0,0,0,.16-1.08v-2a3,3,0,0,0-.11-.92A2.92,2.92,0,0,0,92,286.1Z"/><path class="cls-1" d="M31.44,255.91v63h101v-63Zm36.63,40.24c-3.13,0-5-1.86-5-4a4.28,4.28,0,0,1,3-4l0-.07a3.69,3.69,0,0,1-2.37-3.35c0-2.37,2-4,4.62-4,2.9,0,4.35,1.82,4.35,3.68a3.8,3.8,0,0,1-2.47,3.49v.07c1.87.74,3,2.05,3,3.86C73.15,294.4,70.92,296.15,68.07,296.15Zm11.7,0c-2.92,0-4.89-2.73-4.94-7.68S77,280.7,80,280.7,85,283.5,85,288.26C85,293.35,83.08,296.15,79.77,296.15ZM97,287.83v6.46c0,2.55-.5,4.11-1.58,5.08a5.92,5.92,0,0,1-4,1.34,7.27,7.27,0,0,1-3.7-.92l.5-1.55a6.3,6.3,0,0,0,3.27.88c2.07,0,3.59-1.08,3.59-3.89V294h0a4,4,0,0,1-3.54,1.86c-2.76,0-4.74-2.34-4.74-5.42,0-3.78,2.46-5.91,5-5.91a3.71,3.71,0,0,1,3.47,1.93h0l.1-1.68h1.77C97,285.57,97,286.47,97,287.83Z"/><path class="cls-1" d="M68.39,287.3a3,3,0,0,0,2.27-2.72,2.32,2.32,0,0,0-2.53-2.43,2.37,2.37,0,0,0-2.59,2.39C65.54,286,66.66,286.84,68.39,287.3Z"/><path class="cls-1" d="M71.58,371.59c-1.93,0-3.31,1.63-3.31,4.21,0,2.18,1.1,4,3.29,4a2.94,2.94,0,0,0,2.8-2.07,3.41,3.41,0,0,0,.16-1.08v-2a2.95,2.95,0,0,0-2.94-3.06Z"/><path class="cls-1" d="M59.74,372.79A3,3,0,0,0,62,370.07a2.33,2.33,0,0,0-2.53-2.44,2.38,2.38,0,0,0-2.6,2.4C56.88,371.52,58,372.33,59.74,372.79Z"/><path class="cls-1" d="M59.16,374.23a3.25,3.25,0,0,0-2.69,3.09,2.77,2.77,0,0,0,3,2.85,2.71,2.71,0,0,0,3-2.67C62.45,375.68,61.18,374.81,59.16,374.23Z"/><path class="cls-1" d="M31.44,341.91v63h63v-63Zm15,39.73a7.29,7.29,0,0,1-3.72-.92l.5-1.54a6.67,6.67,0,0,0,3.2.83A3.3,3.3,0,0,0,50,376.76c0-1.93-1.31-3.31-4.3-3.31a15.31,15.31,0,0,0-2.07.16l1-7.17h7.15v1.7H46L45.43,372a7.63,7.63,0,0,1,1.22-.09,6.34,6.34,0,0,1,3.22.8A4.28,4.28,0,0,1,52,376.53C52,379.45,49.68,381.64,46.44,381.64Zm13,0c-3.12,0-5-1.86-5-4.05a4.28,4.28,0,0,1,3-4l0-.07A3.7,3.7,0,0,1,55,370.16c0-2.36,2-4,4.62-4,2.89,0,4.34,1.81,4.34,3.68a3.79,3.79,0,0,1-2.46,3.49v.07c1.87.74,3,2.05,3,3.86C64.5,379.89,62.27,381.64,59.41,381.64Zm17.11-8.33v6.47c0,2.55-.5,4.11-1.58,5.08a5.92,5.92,0,0,1-4,1.33,7.15,7.15,0,0,1-3.7-.92l.5-1.54a6.31,6.31,0,0,0,3.27.87c2.07,0,3.59-1.08,3.59-3.88v-1.24h0A4,4,0,0,1,71,381.34c-2.76,0-4.74-2.35-4.74-5.43,0-3.77,2.46-5.91,5-5.91a3.71,3.71,0,0,1,3.48,1.93h0l.1-1.67h1.77C76.57,371.06,76.52,372,76.52,373.31Z"/><path class="cls-1" d="M114.53,572.83h5.09v1h-3.87V577h3.57v1h-3.57v4.27h-1.22Z"/><path class="cls-1" d="M121.56,579.11a2.17,2.17,0,0,0,2.32,2.35,4.38,4.38,0,0,0,1.88-.35l.21.88a5.41,5.41,0,0,1-2.25.42,3.15,3.15,0,0,1-3.34-3.42c0-2,1.21-3.65,3.18-3.65,2.22,0,2.8,1.95,2.8,3.19a3.8,3.8,0,0,1,0,.58Zm3.61-.89a1.75,1.75,0,0,0-1.71-2,2,2,0,0,0-1.89,2Z"/><path class="cls-1" d="M127.89,577.61c0-.8,0-1.49-.06-2.12h1.08l0,1.33H129a2,2,0,0,1,1.87-1.48,1.25,1.25,0,0,1,.35,0v1.16a2.39,2.39,0,0,0-.42,0,1.74,1.74,0,0,0-1.65,1.58,3.39,3.39,0,0,0,0,.58v3.61h-1.22Z"/><path class="cls-1" d="M132.52,577.33c0-.7,0-1.28-.06-1.84h1.1l.07,1.12h0a2.52,2.52,0,0,1,2.25-1.27c.93,0,2.39.56,2.39,2.88v4h-1.23v-3.91c0-1.09-.41-2-1.57-2a1.76,1.76,0,0,0-1.65,1.26,1.72,1.72,0,0,0-.09.58v4.07h-1.23Z"/><path class="cls-1" d="M140.23,582.27c0-.46.06-1.15.06-1.75v-8.19h1.22v4.26h0a2.52,2.52,0,0,1,2.31-1.25c1.68,0,2.87,1.4,2.86,3.46,0,2.42-1.53,3.63-3,3.63a2.41,2.41,0,0,1-2.27-1.28h-.05l0,1.12Zm1.28-2.72a3.1,3.1,0,0,0,.05.45,1.91,1.91,0,0,0,1.85,1.45c1.29,0,2.06-1.05,2.06-2.61,0-1.36-.7-2.52-2-2.52a2,2,0,0,0-1.88,1.51,2.32,2.32,0,0,0-.07.51Z"/><path class="cls-1" d="M153.93,580.42c0,.7,0,1.32,0,1.85h-1.09l-.07-1.1h0a2.55,2.55,0,0,1-2.24,1.26c-1.06,0-2.34-.59-2.34-3v-4h1.24v3.76c0,1.29.39,2.15,1.51,2.15a1.76,1.76,0,0,0,1.74-1.75v-4.16h1.23Z"/><path class="cls-1" d="M155.8,581a3.24,3.24,0,0,0,1.63.49c.89,0,1.31-.45,1.31-1s-.35-.91-1.26-1.24c-1.22-.44-1.79-1.11-1.79-1.92a2.09,2.09,0,0,1,2.34-2,3.47,3.47,0,0,1,1.67.42l-.31.9a2.64,2.64,0,0,0-1.39-.4c-.73,0-1.13.42-1.13.93s.4.81,1.28,1.15c1.18.45,1.78,1,1.78,2,0,1.19-.92,2-2.53,2a3.91,3.91,0,0,1-1.91-.46Z"/><path class="cls-1" d="M118.53,486a11.91,11.91,0,0,1,2.23-.2,3.88,3.88,0,0,1,2.59.69,2,2,0,0,1,.78,1.67,2.24,2.24,0,0,1-1.59,2.07v0a2.42,2.42,0,0,1,1.94,2.36,2.54,2.54,0,0,1-.79,1.89,4.72,4.72,0,0,1-3.27.89,13.35,13.35,0,0,1-1.89-.12Zm1.22,3.86h1.11c1.28,0,2-.67,2-1.58,0-1.11-.84-1.54-2.07-1.54a5.54,5.54,0,0,0-1.08.08Zm0,4.53a6.93,6.93,0,0,0,1,0c1.26,0,2.43-.46,2.43-1.83s-1.11-1.82-2.44-1.82h-1Z"/><path class="cls-1" d="M129.83,495.27l-.1-.85h0a2.54,2.54,0,0,1-2.07,1,1.94,1.94,0,0,1-2.08-1.95c0-1.64,1.46-2.54,4.08-2.52v-.14a1.4,1.4,0,0,0-1.54-1.57,3.48,3.48,0,0,0-1.77.5l-.28-.81a4.27,4.27,0,0,1,2.23-.6c2.07,0,2.58,1.41,2.58,2.77v2.54a9.9,9.9,0,0,0,.11,1.62Zm-.18-3.46c-1.35,0-2.87.21-2.87,1.53a1.09,1.09,0,0,0,1.16,1.18,1.69,1.69,0,0,0,1.64-1.14,1.28,1.28,0,0,0,.07-.39Z"/><path class="cls-1" d="M132.82,485.33h1.24v4.23h0a2.33,2.33,0,0,1,.89-.87,2.53,2.53,0,0,1,1.26-.35c.91,0,2.37.56,2.37,2.9v4h-1.24v-3.89c0-1.09-.4-2-1.57-2a1.78,1.78,0,0,0-1.65,1.23,1.51,1.51,0,0,0-.08.59v4.09h-1.24Z"/><path class="cls-1" d="M140.59,490.33c0-.7,0-1.28-.05-1.84h1.09l.07,1.12h0a2.49,2.49,0,0,1,2.24-1.27c.94,0,2.4.56,2.4,2.88v4h-1.24v-3.91c0-1.09-.4-2-1.57-2a1.76,1.76,0,0,0-1.65,1.26,2,2,0,0,0-.08.58v4.07h-1.24Z"/><path class="cls-1" d="M131.25,395.92v5.59c0,2.11.93,3,2.2,3s2.29-.93,2.29-3v-5.59H137v5.5c0,2.9-1.52,4.09-3.57,4.09s-3.39-1.1-3.39-4v-5.56Z"/><path class="cls-1" d="M141.9,401.12V402h-3.46v-.91Z"/><path class="cls-1" d="M143.38,396a12.19,12.19,0,0,1,2.23-.19,3.88,3.88,0,0,1,2.59.69,2,2,0,0,1,.79,1.66,2.24,2.24,0,0,1-1.6,2.07v0a2.44,2.44,0,0,1,2,2.37,2.57,2.57,0,0,1-.8,1.89,4.78,4.78,0,0,1-3.27.88,13.69,13.69,0,0,1-1.89-.11Zm1.22,3.87h1.11c1.29,0,2-.67,2-1.58,0-1.11-.84-1.54-2.07-1.54a5.54,5.54,0,0,0-1.08.08Zm0,4.53a6.93,6.93,0,0,0,1,.05c1.26,0,2.43-.46,2.43-1.83s-1.11-1.83-2.44-1.83h-1Z"/><path class="cls-1" d="M154.68,405.36l-.1-.86h0a2.5,2.5,0,0,1-2.07,1,1.93,1.93,0,0,1-2.07-1.94c0-1.64,1.45-2.54,4.07-2.53v-.13a1.39,1.39,0,0,0-1.54-1.57,3.33,3.33,0,0,0-1.76.5l-.28-.81a4.14,4.14,0,0,1,2.22-.6c2.08,0,2.58,1.41,2.58,2.77v2.53a10,10,0,0,0,.11,1.63Zm-.18-3.46c-1.34,0-2.87.21-2.87,1.53a1.09,1.09,0,0,0,1.16,1.17,1.7,1.7,0,0,0,1.64-1.13,1.4,1.4,0,0,0,.07-.39Z"/><path class="cls-1" d="M157.68,395.41h1.23v4.23h0a2.21,2.21,0,0,1,.88-.86,2.53,2.53,0,0,1,1.26-.35c.91,0,2.37.56,2.37,2.9v4h-1.24v-3.89c0-1.1-.4-2-1.56-2a1.79,1.79,0,0,0-1.66,1.23,1.51,1.51,0,0,0-.08.59v4.09h-1.23Z"/><path class="cls-1" d="M165.45,400.42c0-.71,0-1.28-.06-1.84h1.09l.07,1.12h0a2.5,2.5,0,0,1,2.24-1.27c.94,0,2.4.56,2.4,2.88v4.05H170v-3.91c0-1.09-.41-2-1.57-2a1.75,1.75,0,0,0-1.66,1.26,1.91,1.91,0,0,0-.08.57v4.08h-1.23Z"/><path class="cls-1" d="M156.17,304.92h1.22v8.42h4v1h-5.26Z"/><path class="cls-1" d="M164.11,305.67a.76.76,0,1,1-1.52,0,.75.75,0,0,1,.77-.77A.73.73,0,0,1,164.11,305.67Zm-1.37,8.69v-6.78H164v6.78Z"/><path class="cls-1" d="M166,309.42c0-.71,0-1.28-.06-1.84h1.09l.07,1.12h0a2.5,2.5,0,0,1,2.24-1.27c.94,0,2.4.56,2.4,2.88v4.05h-1.24v-3.91c0-1.09-.4-2-1.56-2a1.75,1.75,0,0,0-1.66,1.26,1.91,1.91,0,0,0-.08.57v4.08H166Z"/><path class="cls-1" d="M175.16,305.67a.73.73,0,0,1-.78.76.74.74,0,0,1-.75-.76.76.76,0,0,1,.77-.77A.73.73,0,0,1,175.16,305.67Zm-1.37,8.69v-6.78H175v6.78Z"/><path class="cls-1" d="M177.75,311.19a2.17,2.17,0,0,0,2.32,2.36,4.54,4.54,0,0,0,1.88-.35l.21.88a5.41,5.41,0,0,1-2.25.42,3.15,3.15,0,0,1-3.34-3.42c0-2,1.21-3.65,3.18-3.65,2.21,0,2.8,1.94,2.8,3.19a3.65,3.65,0,0,1,0,.57Zm3.61-.88a1.75,1.75,0,0,0-1.71-2,2,2,0,0,0-1.89,2Z"/><path class="cls-1" d="M184.08,309.42c0-.71,0-1.28-.06-1.84h1.09l.07,1.12h0a2.5,2.5,0,0,1,2.24-1.27c.94,0,2.4.56,2.4,2.88v4.05h-1.23v-3.91c0-1.09-.41-2-1.57-2a1.75,1.75,0,0,0-1.66,1.26,1.91,1.91,0,0,0-.08.57v4.08h-1.23Z"/><path class="cls-1" d="M191.79,314.36c0-.46.06-1.15.06-1.75v-8.2h1.21v4.26h0a2.54,2.54,0,0,1,2.31-1.24c1.68,0,2.88,1.4,2.86,3.46,0,2.42-1.53,3.62-3,3.62a2.41,2.41,0,0,1-2.27-1.27h0l0,1.12Zm1.27-2.72a2.13,2.13,0,0,0,.06.45,1.89,1.89,0,0,0,1.85,1.44c1.29,0,2.06-1,2.06-2.6,0-1.36-.7-2.52-2-2.52a2,2,0,0,0-1.88,1.51,3.17,3.17,0,0,0-.07.5Z"/><path class="cls-1" d="M205.49,312.51c0,.7,0,1.32,0,1.85h-1.09l-.07-1.11h0a2.54,2.54,0,0,1-2.24,1.26c-1.07,0-2.34-.58-2.34-3v-4H201v3.75c0,1.29.39,2.16,1.52,2.16a1.77,1.77,0,0,0,1.62-1.12,1.81,1.81,0,0,0,.11-.63v-4.16h1.24Z"/><path class="cls-1" d="M207.36,313.1a3.2,3.2,0,0,0,1.62.49c.9,0,1.32-.45,1.32-1s-.35-.91-1.26-1.25c-1.22-.43-1.79-1.1-1.79-1.91a2.08,2.08,0,0,1,2.33-2,3.33,3.33,0,0,1,1.67.42l-.31.89a2.58,2.58,0,0,0-1.38-.39c-.73,0-1.14.42-1.14.92s.41.82,1.29,1.15c1.18.45,1.78,1,1.78,2.05,0,1.19-.92,2-2.53,2a3.88,3.88,0,0,1-1.91-.46Z"/><path class="cls-1" d="M238,217.39l-1,3h-1.26l3.21-9.44h1.47l3.22,9.44h-1.3l-1-3Zm3.09-.95-.92-2.72c-.21-.62-.35-1.18-.49-1.72h0q-.21.84-.48,1.71l-.92,2.73Z"/><path class="cls-1" d="M250.5,218.51c0,.7,0,1.32.05,1.85h-1.09l-.07-1.11h0a2.56,2.56,0,0,1-2.25,1.26c-1.06,0-2.34-.58-2.34-3v-4H246v3.75c0,1.29.39,2.16,1.51,2.16a1.76,1.76,0,0,0,1.62-1.12,1.81,1.81,0,0,0,.12-.63v-4.16h1.23Z"/><path class="cls-1" d="M254,211.63v2h1.76v.94H254v3.65c0,.84.23,1.32.92,1.32a2.82,2.82,0,0,0,.71-.08l.06.92a3,3,0,0,1-1.09.17,1.68,1.68,0,0,1-1.33-.52,2.5,2.5,0,0,1-.48-1.76v-3.7h-1v-.94h1V212Z"/><path class="cls-1" d="M263.23,216.91a3.31,3.31,0,0,1-3.38,3.6A3.22,3.22,0,0,1,256.6,217a3.31,3.31,0,0,1,3.36-3.6A3.21,3.21,0,0,1,263.23,216.91Zm-5.38.07c0,1.49.85,2.61,2.06,2.61s2-1.11,2-2.63c0-1.15-.57-2.61-2-2.61S257.85,215.7,257.85,217Z"/><path class="cls-1" d="M364.71,129.92h5.08v1h-3.86v3.14h3.57v1h-3.57v4.27h-1.22Z"/><path class="cls-1" d="M371.25,129.41h1.23v10h-1.23Z"/><path class="cls-1" d="M380.22,137.51c0,.7,0,1.32.06,1.85h-1.09l-.07-1.11h0a2.54,2.54,0,0,1-2.24,1.26c-1.07,0-2.34-.58-2.34-3v-4h1.23v3.75c0,1.29.39,2.16,1.51,2.16a1.79,1.79,0,0,0,1.63-1.12,1.81,1.81,0,0,0,.11-.63v-4.16h1.23Z"/><path class="cls-1" d="M388.1,132.58c0,.49-.05,1-.05,1.86v3.94c0,1.55-.31,2.51-1,3.09a3.58,3.58,0,0,1-2.46.82,4.43,4.43,0,0,1-2.26-.56l.31-.94a3.84,3.84,0,0,0,2,.53c1.26,0,2.18-.66,2.18-2.37v-.75h0a2.43,2.43,0,0,1-2.16,1.13,3,3,0,0,1-2.89-3.3c0-2.3,1.5-3.6,3.06-3.6a2.25,2.25,0,0,1,2.11,1.17h0l.06-1Zm-1.27,2.68a1.59,1.59,0,0,0-.07-.56,1.77,1.77,0,0,0-1.72-1.31c-1.18,0-2,1-2,2.57,0,1.33.67,2.43,2,2.43a1.8,1.8,0,0,0,1.71-1.26,2.16,2.16,0,0,0,.1-.66Z"/><path class="cls-1" d="M389.32,138.65l3.07-4c.29-.36.57-.68.88-1.05v0H389.6v-1h5.17l0,.77-3,3.94c-.28.38-.56.71-.87,1.06v0h4v1h-5.5Z"/><path class="cls-1" d="M396.67,136.19a2.18,2.18,0,0,0,2.33,2.36,4.52,4.52,0,0,0,1.87-.35l.21.88a5.38,5.38,0,0,1-2.25.42,3.15,3.15,0,0,1-3.34-3.42c0-2,1.21-3.65,3.18-3.65,2.22,0,2.8,1.94,2.8,3.19a3.65,3.65,0,0,1,0,.57Zm3.61-.88a1.75,1.75,0,0,0-1.71-2,2,2,0,0,0-1.89,2Z"/><path class="cls-1" d="M408.67,137.51c0,.7,0,1.32.06,1.85h-1.1l-.07-1.11h0a2.56,2.56,0,0,1-2.25,1.26c-1.06,0-2.33-.58-2.33-3v-4h1.23v3.75c0,1.29.39,2.16,1.51,2.16a1.79,1.79,0,0,0,1.63-1.12,1.81,1.81,0,0,0,.11-.63v-4.16h1.23Z"/><path class="cls-1" d="M416.55,132.58c0,.49-.05,1-.05,1.86v3.94c0,1.55-.31,2.51-1,3.09a3.59,3.59,0,0,1-2.47.82,4.41,4.41,0,0,1-2.25-.56l.31-.94a3.84,3.84,0,0,0,2,.53c1.26,0,2.18-.66,2.18-2.37v-.75h0a2.41,2.41,0,0,1-2.15,1.13,3,3,0,0,1-2.89-3.3c0-2.3,1.5-3.6,3-3.6a2.25,2.25,0,0,1,2.12,1.17h0l.05-1Zm-1.27,2.68a1.86,1.86,0,0,0-.07-.56,1.79,1.79,0,0,0-1.73-1.31c-1.17,0-2,1-2,2.57,0,1.33.67,2.43,2,2.43a1.8,1.8,0,0,0,1.71-1.26,2.16,2.16,0,0,0,.1-.66Z"/><path class="cls-1" d="M46.74,40.12a16.62,16.62,0,0,1-5.42,1,9,9,0,0,1-6.59-2.33,9.07,9.07,0,0,1-2.46-6.57c0-5.26,3.63-9.11,9.55-9.11a11,11,0,0,1,4.39.81l-.54,1.86a9.19,9.19,0,0,0-3.9-.76c-4.3,0-7.1,2.67-7.1,7.09s2.7,7.12,6.81,7.12a7.42,7.42,0,0,0,3-.47V33.47H40.93V31.64h5.81Z"/><path class="cls-1" d="M50.14,32.19c0-1.49,0-2.77-.11-3.95h2l.08,2.48h.1A3.81,3.81,0,0,1,55.74,28a2.57,2.57,0,0,1,.65.08V30.2a3.53,3.53,0,0,0-.78-.08,3.23,3.23,0,0,0-3.09,3,6.72,6.72,0,0,0-.1,1.07V40.9H50.14Z"/><path class="cls-1" d="M65.58,40.9l-.18-1.59h-.08a4.74,4.74,0,0,1-3.88,1.88,3.61,3.61,0,0,1-3.87-3.64c0-3.06,2.72-4.73,7.62-4.71v-.26a2.61,2.61,0,0,0-2.88-2.93,6.37,6.37,0,0,0-3.3.94l-.52-1.51A7.75,7.75,0,0,1,62.65,28c3.87,0,4.81,2.64,4.81,5.18v4.74a18.47,18.47,0,0,0,.21,3Zm-.34-6.46c-2.51,0-5.37.39-5.37,2.85a2,2,0,0,0,2.18,2.2,3.16,3.16,0,0,0,3.06-2.12,2.39,2.39,0,0,0,.13-.73Z"/><path class="cls-1" d="M71.18,31.67c0-1.31,0-2.39-.11-3.43h2l.1,2h.08a4.38,4.38,0,0,1,4-2.33,3.73,3.73,0,0,1,3.58,2.54h.06a5.16,5.16,0,0,1,1.41-1.65A4.31,4.31,0,0,1,85.1,28c1.68,0,4.16,1.1,4.16,5.5V40.9H87V33.73c0-2.43-.89-3.9-2.75-3.9a3,3,0,0,0-2.72,2.1,3.91,3.91,0,0,0-.18,1.15V40.9H79.11V33.31c0-2-.89-3.48-2.65-3.48a3.43,3.43,0,0,0-3,3.43V40.9H71.18Z"/><path class="cls-1" d="M93,31.67c0-1.31,0-2.39-.1-3.43h2l.11,2h.08a4.36,4.36,0,0,1,4-2.33,3.75,3.75,0,0,1,3.59,2.54h0a5.16,5.16,0,0,1,1.41-1.65,4.31,4.31,0,0,1,2.8-.89c1.68,0,4.17,1.1,4.17,5.5V40.9h-2.26V33.73c0-2.43-.88-3.9-2.74-3.9a3,3,0,0,0-2.72,2.1,3.59,3.59,0,0,0-.19,1.15V40.9h-2.25V33.31c0-2-.89-3.48-2.64-3.48a3.47,3.47,0,0,0-3,3.43V40.9H93Z"/><path class="cls-1" d="M132.78,40.33a11.28,11.28,0,0,1-4.66.84c-5,0-8.71-3.14-8.71-8.93,0-5.52,3.74-9.26,9.21-9.26a9.48,9.48,0,0,1,4.18.78l-.55,1.86a8.24,8.24,0,0,0-3.55-.73c-4.14,0-6.89,2.64-6.89,7.27,0,4.32,2.49,7.09,6.78,7.09a9.05,9.05,0,0,0,3.72-.73Z"/><path class="cls-1" d="M150.15,31.9c0,6.07-3.69,9.29-8.19,9.29-4.66,0-7.93-3.61-7.93-8.95,0-5.6,3.48-9.26,8.19-9.26S150.15,26.67,150.15,31.9Zm-13.68.29c0,3.77,2,7.14,5.62,7.14S147.75,36,147.75,32c0-3.51-1.84-7.17-5.63-7.17S136.47,28.32,136.47,32.19Z"/><path class="cls-1" d="M152.3,40.9V39.49l1.81-1.75c4.34-4.14,6.3-6.34,6.33-8.9a3,3,0,0,0-3.38-3.32A5.78,5.78,0,0,0,153.45,27l-.73-1.63a7.48,7.48,0,0,1,4.81-1.72c3.67,0,5.21,2.51,5.21,4.94,0,3.14-2.28,5.68-5.86,9.13l-1.36,1.26V39h7.64V40.9Z"/><path class="cls-1" d="M172,32.37c0-1.62-.05-2.93-.1-4.13H174l.1,2.17h.05a5,5,0,0,1,4.5-2.46c3.07,0,5.37,2.59,5.37,6.44,0,4.55-2.78,6.8-5.76,6.8a4.44,4.44,0,0,1-3.9-2h-.05v6.88H172Zm2.28,3.38a5.42,5.42,0,0,0,.1.94,3.56,3.56,0,0,0,3.46,2.7c2.43,0,3.85-2,3.85-4.9,0-2.54-1.34-4.71-3.77-4.71a4,4,0,0,0-3.64,3.8Z"/><path class="cls-1" d="M186.89,32.19c0-1.49,0-2.77-.1-3.95h2l.08,2.48H189a3.79,3.79,0,0,1,3.5-2.77,2.65,2.65,0,0,1,.66.08V30.2a3.63,3.63,0,0,0-.79-.08,3.24,3.24,0,0,0-3.09,3,6.72,6.72,0,0,0-.1,1.07V40.9h-2.28Z"/><path class="cls-1" d="M206.65,34.47c0,4.68-3.24,6.72-6.31,6.72-3.42,0-6.07-2.51-6.07-6.51,0-4.24,2.78-6.73,6.28-6.73S206.65,30.59,206.65,34.47Zm-10.05.13c0,2.77,1.6,4.86,3.85,4.86s3.84-2.06,3.84-4.92c0-2.14-1.07-4.86-3.79-4.86S196.6,32.19,196.6,34.6Z"/><path class="cls-1" d="M215.18,23.47a26.77,26.77,0,0,1,4.37-.34,7.27,7.27,0,0,1,4.95,1.47A4.77,4.77,0,0,1,226,28.29a5.2,5.2,0,0,1-1.36,3.77A7.31,7.31,0,0,1,219.29,34a7.88,7.88,0,0,1-1.83-.15V40.9h-2.28ZM217.46,32a7.61,7.61,0,0,0,1.88.18c2.75,0,4.42-1.33,4.42-3.77s-1.64-3.45-4.16-3.45a9.85,9.85,0,0,0-2.14.18Z"/><path class="cls-1" d="M229.65,35c0,3.11,2,4.4,4.35,4.4a8.24,8.24,0,0,0,3.5-.66l.39,1.65a10.14,10.14,0,0,1-4.21.79c-3.9,0-6.23-2.57-6.23-6.39S229.7,28,233.39,28c4.14,0,5.24,3.64,5.24,6a8,8,0,0,1-.08,1.07Zm6.75-1.65c0-1.46-.6-3.74-3.19-3.74-2.33,0-3.35,2.14-3.53,3.74Z"/><path class="cls-1" d="M241.48,32.19c0-1.49,0-2.77-.1-3.95h2l.08,2.48h.1A3.81,3.81,0,0,1,247.08,28a2.57,2.57,0,0,1,.65.08V30.2a3.53,3.53,0,0,0-.78-.08,3.23,3.23,0,0,0-3.09,3,6.72,6.72,0,0,0-.1,1.07V40.9h-2.28Z"/><path class="cls-1" d="M249.72,38.55a6.1,6.1,0,0,0,3,.91c1.67,0,2.46-.83,2.46-1.88s-.66-1.7-2.36-2.33c-2.27-.81-3.35-2.07-3.35-3.58,0-2.05,1.65-3.72,4.37-3.72a6.43,6.43,0,0,1,3.12.78l-.58,1.68a5,5,0,0,0-2.59-.73c-1.36,0-2.12.78-2.12,1.72s.76,1.52,2.41,2.15c2.2.84,3.32,1.94,3.32,3.82,0,2.22-1.73,3.8-4.73,3.8a7.26,7.26,0,0,1-3.56-.87Z"/><path class="cls-1" d="M271.86,34.47c0,4.68-3.24,6.72-6.31,6.72-3.42,0-6.07-2.51-6.07-6.51,0-4.24,2.78-6.73,6.28-6.73S271.86,30.59,271.86,34.47Zm-10.05.13c0,2.77,1.6,4.86,3.85,4.86s3.84-2.06,3.84-4.92c0-2.14-1.07-4.86-3.79-4.86S261.81,32.19,261.81,34.6Z"/><path class="cls-1" d="M274.76,31.67c0-1.31,0-2.39-.1-3.43h2l.13,2.09h.05A4.68,4.68,0,0,1,281.07,28c1.76,0,4.48,1.05,4.48,5.39V40.9h-2.31V33.6c0-2-.76-3.74-2.93-3.74a3.28,3.28,0,0,0-3.09,2.35,3.52,3.52,0,0,0-.15,1.08V40.9h-2.31Z"/><path class="cls-1" d="M290.57,35c.05,3.11,2,4.4,4.34,4.4a8.26,8.26,0,0,0,3.51-.66l.39,1.65a10.14,10.14,0,0,1-4.21.79c-3.9,0-6.23-2.57-6.23-6.39S290.62,28,294.31,28c4.14,0,5.24,3.64,5.24,6a10.09,10.09,0,0,1-.08,1.07Zm6.75-1.65c0-1.46-.6-3.74-3.19-3.74-2.33,0-3.35,2.14-3.53,3.74Z"/><path class="cls-1" d="M302.4,31.67c0-1.31,0-2.39-.11-3.43h2l.14,2.09h0A4.66,4.66,0,0,1,308.71,28c1.75,0,4.47,1.05,4.47,5.39V40.9h-2.3V33.6c0-2-.76-3.74-2.93-3.74a3.27,3.27,0,0,0-3.09,2.35,3.23,3.23,0,0,0-.16,1.08V40.9h-2.3Z"/><path class="cls-1" d="M319.2,34.05h.05c.32-.45.76-1,1.13-1.44l3.71-4.37h2.78L322,33.45l5.58,7.45h-2.8l-4.37-6.07-1.18,1.31V40.9h-2.28V22.32h2.28Z"/><path class="cls-1" d="M332.2,24.68a1.36,1.36,0,0,1-1.46,1.41,1.37,1.37,0,0,1-1.39-1.41,1.4,1.4,0,0,1,1.44-1.44A1.37,1.37,0,0,1,332.2,24.68ZM329.64,40.9V28.24h2.3V40.9Z"/><path class="cls-1" d="M335.76,22.32h2.3V40.9h-2.3Z"/><path class="cls-1" d="M353.4,34.47c0,4.68-3.25,6.72-6.31,6.72-3.42,0-6.07-2.51-6.07-6.51,0-4.24,2.78-6.73,6.28-6.73S353.4,30.59,353.4,34.47Zm-10,.13c0,2.77,1.6,4.86,3.85,4.86S351,37.4,351,34.54c0-2.14-1.07-4.86-3.79-4.86S343.35,32.19,343.35,34.6Z"/><path class="cls-1" d="M356.3,31.67c0-1.31,0-2.39-.1-3.43h2l.11,2h.08a4.36,4.36,0,0,1,4-2.33A3.75,3.75,0,0,1,366,30.49H366a5.18,5.18,0,0,1,1.42-1.65,4.27,4.27,0,0,1,2.8-.89c1.67,0,4.16,1.1,4.16,5.5V40.9h-2.25V33.73c0-2.43-.89-3.9-2.75-3.9a3,3,0,0,0-2.72,2.1,3.59,3.59,0,0,0-.19,1.15V40.9h-2.25V33.31c0-2-.89-3.48-2.64-3.48a3.47,3.47,0,0,0-3,3.43V40.9H356.3Z"/><path class="cls-1" d="M379.41,35c0,3.11,2,4.4,4.34,4.4a8.26,8.26,0,0,0,3.51-.66l.39,1.65a10.14,10.14,0,0,1-4.21.79c-3.9,0-6.23-2.57-6.23-6.39S379.46,28,383.15,28c4.14,0,5.24,3.64,5.24,6a10.09,10.09,0,0,1-.08,1.07Zm6.75-1.65c0-1.46-.6-3.74-3.19-3.74-2.33,0-3.35,2.14-3.53,3.74Z"/><path class="cls-1" d="M394,24.6v3.64h3.3V30H394v6.83c0,1.57.45,2.46,1.73,2.46a5,5,0,0,0,1.33-.16l.11,1.73a5.7,5.7,0,0,1-2,.32,3.22,3.22,0,0,1-2.49-1,4.72,4.72,0,0,1-.89-3.3V30h-2V28.24h2v-3Z"/><path class="cls-1" d="M401,35c.05,3.11,2,4.4,4.34,4.4a8.29,8.29,0,0,0,3.51-.66l.39,1.65a10.18,10.18,0,0,1-4.21.79c-3.9,0-6.23-2.57-6.23-6.39S401.08,28,404.77,28c4.13,0,5.23,3.64,5.23,6a8,8,0,0,1-.08,1.07Zm6.75-1.65c0-1.46-.61-3.74-3.2-3.74-2.32,0-3.34,2.14-3.53,3.74Z"/><path class="cls-1" d="M412.85,32.19c0-1.49,0-2.77-.1-3.95h2l.08,2.48H415a3.79,3.79,0,0,1,3.5-2.77,2.59,2.59,0,0,1,.66.08V30.2a3.63,3.63,0,0,0-.79-.08,3.22,3.22,0,0,0-3.08,3,5.68,5.68,0,0,0-.11,1.07V40.9h-2.28Z"/><path class="cls-1" d="M412.29,109a.64.64,0,0,0,.18-.57l-5.39-27.87a.61.61,0,0,0-.18-.32L414.09,73c5.39-5.4,7.71-10.27,4.49-13.49s-8.08-.89-13.47,4.5l-7.19,7.19a.67.67,0,0,0-.32-.18l-27.83-5.39a.64.64,0,0,0-.57.18l-3.59,3.59a.63.63,0,0,0-.18.55.66.66,0,0,0,.34.47l21.85,11.16a150.92,150.92,0,0,0-13.27,16.67l-9.89-2a.63.63,0,0,0-.57.17l-2.7,2.7a.68.68,0,0,0-.18.53.65.65,0,0,0,.31.46l8.7,5.26c-.9,1.83-1.26,3.12-.82,3.56s1.72.08,3.55-.82l5.25,8.71a.69.69,0,0,0,.47.31h.08A.64.64,0,0,0,379,117l2.69-2.69a.65.65,0,0,0,.18-.58l-2-9.9a150.54,150.54,0,0,0,16.65-13.28l11.15,21.87a.64.64,0,0,0,.47.34h.1a.67.67,0,0,0,.44-.18Z"/><path class="cls-1" d="M271.85,166.78h-3.19l-2.06-7.17a8.09,8.09,0,0,0-7.56-6.14H240.82a8.05,8.05,0,0,0-7.57,6.14l-2.06,7.17H228a2.68,2.68,0,0,0-2.52,2.81v1.61A2.68,2.68,0,0,0,228,174h.88a39.83,39.83,0,0,0-.78,7.86v13.48a2.7,2.7,0,0,0,2.53,2.82h4.22a2.69,2.69,0,0,0,2.52-2.82v-4.3h25.22v4.3a2.69,2.69,0,0,0,2.52,2.82h4.22a2.69,2.69,0,0,0,2.52-2.82V181.81a39.9,39.9,0,0,0-.77-7.86H272a2.68,2.68,0,0,0,2.52-2.81v-1.6A2.83,2.83,0,0,0,271.85,166.78Zm-36.23,2.87,2.42-8.38a3,3,0,0,1,2.78-2.29H259a2.94,2.94,0,0,1,2.78,2.29l2.42,8.38a.57.57,0,0,1-.52.75H236.13C235.77,170.45,235.52,170.05,235.62,169.65Zm5.25,13.71h-5.1a1.61,1.61,0,0,1-1.54-1.72V179a1.65,1.65,0,0,1,1.8-1.73l4.74.86a1.7,1.7,0,0,1,1.28,1.32l.36,1.84A1.7,1.7,0,0,1,240.87,183.36Zm24.7-1.72a1.6,1.6,0,0,1-1.54,1.72h-5.1a1.68,1.68,0,0,1-1.49-2.06l.36-1.84a1.63,1.63,0,0,1,1.29-1.32l4.73-.86a1.63,1.63,0,0,1,1.81,1.72v2.64Z"/><path class="cls-1" d="M142.92,467.82c-1.07.08-2.31.15-3.7.2l1.08,1.74H125l1.09-1.74c-1.4,0-2.63-.12-3.71-.2l-5.75,9.2a1.63,1.63,0,0,0,1.38,2.49,1.6,1.6,0,0,0,1.37-.76l.54-.87h25.42l.54.87a1.63,1.63,0,0,0,1.38.76,1.63,1.63,0,0,0,1.37-2.49ZM122,474.63l1-1.62h19.33l1,1.62Z"/><path class="cls-1" d="M148.92,429.13c-1.62-1.62-7.27-1.62-16.25-1.62s-14.62,0-16.25,1.62-1.62,8-1.62,17.88c0,7.91,0,13.57.84,16.34a3.58,3.58,0,0,0,.78,1.53,2.6,2.6,0,0,0,.64.45c2.2,1.18,7.56,1.18,15.61,1.18s13.42,0,15.61-1.18a2.43,2.43,0,0,0,.64-.45,3.58,3.58,0,0,0,.79-1.53c.84-2.77.84-8.43.84-16.34C150.55,437.14,150.55,430.76,148.92,429.13ZM123.73,460A4.07,4.07,0,1,1,127.8,456,4.06,4.06,0,0,1,123.73,460Zm17.88,0a4.07,4.07,0,1,1,4.06-4.06A4.06,4.06,0,0,1,141.61,460Zm4.06-13c-1.62,1.62-5.82,1.62-13,1.62s-11.37,0-13-1.62-1.62-3.27-1.62-7.31,0-5.69,1.62-7.32,5.82-1.62,13-1.62,11.38,0,13,1.62,1.63,3.28,1.63,7.32S147.3,445.38,145.67,447Z"/><circle class="cls-1" cx="141.61" cy="455.95" r="2.44"/><circle class="cls-1" cx="123.73" cy="455.95" r="2.44"/><path class="cls-2" d="M119,544.61h30.49V532.55a1.54,1.54,0,0,0-1.52-1.51H120.47a1.54,1.54,0,0,0-1.52,1.51Zm11.58,9.21H138a.34.34,0,0,1,.31.31v2.36a.4.4,0,0,1-.31.3h-7.45a.4.4,0,0,1-.31-.3v-2.36A.34.34,0,0,1,130.53,553.82Zm22,2.49a3.1,3.1,0,0,1-3.09,3.09l-.06,2.3a2.9,2.9,0,0,1-2.91,2.85h-1.58A2.85,2.85,0,0,1,142,561.7v-2.3H126.35v2.3a2.85,2.85,0,0,1-2.85,2.85h-1.58A2.86,2.86,0,0,1,119,561.7v-2.3a3.16,3.16,0,0,1-3.15-3.09v-27.7a10,10,0,0,1,9.94-9.33h16.79a10,10,0,0,1,9.94,9.33Zm-25.09-33.4H141a.93.93,0,0,1,.91.91v1.7a.89.89,0,0,1-.91.91H127.44a.86.86,0,0,1-.91-.91v-1.7A.89.89,0,0,1,127.44,522.91Zm18.72,29a2.33,2.33,0,1,0,2.31,2.36A2.31,2.31,0,0,0,146.16,552Zm-23.94,0a2.33,2.33,0,1,1-2.3,2.36A2.32,2.32,0,0,1,122.22,552Z"/><path class="cls-1" d="M202,262a.78.78,0,0,0-.21,0v-5.51a3.46,3.46,0,0,0-.09-.78.43.43,0,0,0,0-.16c0-3-9.14-5.34-20.44-5.34s-20.46,2.39-20.46,5.34v.17a4,4,0,0,0-.1.77V262a.65.65,0,0,0-.2,0c-1.14,0-2.08,2.79-2.08,6.23s.94,6.24,2.1,6.24l.18,0V286.9a3.54,3.54,0,0,0,3.54,3.53h.6v2.17a2.32,2.32,0,0,0,2.31,2.31h2.23a2.33,2.33,0,0,0,2.29-2.31v-2.17h19.18v2.17a2.31,2.31,0,0,0,2.29,2.31h2.19a2.3,2.3,0,0,0,2.31-2.31v-2.17h.61a3.53,3.53,0,0,0,3.56-3.52h0V274.43l.21,0c1.16,0,2.1-2.79,2.1-6.23S203.13,262,202,262Zm-28.56-9H189a1.3,1.3,0,0,1,0,2.6H173.41a1.3,1.3,0,0,1,0-2.6Zm-5.2,33.86a2.51,2.51,0,1,1,2.51-2.51h0A2.51,2.51,0,0,1,168.21,286.84Zm26,0a2.51,2.51,0,1,1,2.51-2.51h0a2.51,2.51,0,0,1-2.51,2.51h0ZM198,276a2.66,2.66,0,0,1-2.66,2.66H167.1a2.66,2.66,0,0,1-2.66-2.66V260.42a2.66,2.66,0,0,1,2.66-2.66h28.26a2.66,2.66,0,0,1,2.66,2.66V276Z"/><path class="cls-1" d="M179,363v24.41h-3.78V363c0-13.29-10.36-24.11-23.08-24.11S129,349.66,129,363v24.41h-3.78V363c0-15.41,12.06-27.95,26.88-27.95S179,347.54,179,363Z"/><path class="cls-1" d="M170.55,383a1.92,1.92,0,0,1,0,3.84H133.72a1.92,1.92,0,0,1,0-3.84Z"/><path class="cls-1" d="M170.57,363.77v15.17a1.9,1.9,0,0,1-1.89,1.92h-33.1a1.91,1.91,0,0,1-1.89-1.92V363.77a1.76,1.76,0,0,1,.1-.6L138.71,348a1.88,1.88,0,0,1,1.79-1.33h23.26a1.9,1.9,0,0,1,1.8,1.33l4.92,15.17A2,2,0,0,1,170.57,363.77Zm-3.88,0-3.93-12.11H141.5l-3.92,12.11Zm0,7.75a4.49,4.49,0,1,0-4.49,4.55A4.52,4.52,0,0,0,166.65,371.52Zm-20.07,0a4.49,4.49,0,1,0-4.48,4.55A4.52,4.52,0,0,0,146.58,371.52Z"/></svg>