<?xml version="1.0" encoding="utf-8"?>
<!-- Generator: Adobe Illustrator 24.0.2, SVG Export Plug-In . SVG Version: 6.00 Build 0)  -->
<svg version="1.1" id="Layer_1" xmlns="http://www.w3.org/2000/svg" xmlns:xlink="http://www.w3.org/1999/xlink" x="0px" y="0px"
	 viewBox="0 0 396 547" style="enable-background:new 0 0 396 547;" xml:space="preserve">
<style type="text/css">
	.st0{fill:#FFFFFF;}
	.st1{fill-rule:evenodd;clip-rule:evenodd;fill:#FFFFFF;}
</style>
<path class="st0" d="M170.1,57c-1.9,0-3.3,1.6-3.3,4.2c0,2.2,1.1,4,3.3,4c1.3,0,2.4-0.9,2.8-2.1c0.1-0.3,0.2-0.7,0.2-1.1v-2
	c0.1-1.6-1.2-3-2.8-3.1C170.2,57,170.2,57,170.1,57z"/>
<path class="st0" d="M158,53.1c-1.8,0-3.1,2.2-3.1,6.2c0,3.9,1.2,6.1,3,6.1c2.1,0,3.1-2.4,3.1-6.2S160.1,53.1,158,53.1z"/>
<path class="st0" d="M0.4,27.9v63h300v-63C300.4,27.9,0.4,27.9,0.4,27.9z M139.1,66.7h-9.5v-1.2l1.6-1.5c3.8-3.6,5.5-5.6,5.6-7.8
	c0.2-1.5-0.9-2.8-2.4-2.9c-0.2,0-0.4,0-0.6,0c-1.2,0-2.3,0.5-3.2,1.3l-0.6-1.4c1.2-1,2.7-1.5,4.2-1.5c2.3-0.2,4.4,1.5,4.6,3.8
	c0,0.2,0,0.4,0,0.5c0,2.8-2,5-5.1,8l-1.2,1.1l0,0h6.7L139.1,66.7z M145.2,67c-1.4,0-2.7-0.3-3.9-1l0.6-1.6c1,0.6,2.1,0.9,3.3,0.9
	c2.6,0,3.4-1.7,3.4-2.9c0-2.1-1.9-3-3.9-3h-1.1V58h1.1c1.5,0,3.3-0.8,3.3-2.5c0-1.2-0.8-2.2-2.6-2.2c-1.1,0-2.1,0.4-3,1l-0.5-1.5
	c1.2-0.8,2.5-1.2,3.9-1.2c2.9,0,4.3,1.8,4.3,3.6c0,1.7-1.2,3.1-2.8,3.5l0,0c1.9,0.3,3.3,1.9,3.3,3.8C150.6,64.9,148.7,67,145.2,67
	L145.2,67z M157.9,67c-2.9,0-4.9-2.7-4.9-7.7s2.2-7.8,5.2-7.8s4.9,2.8,4.9,7.6C163.1,64.1,161.2,67,157.9,67L157.9,67z M175.1,58.6
	v6.5c0,2.6-0.5,4.1-1.6,5.1c-1.1,0.9-2.6,1.4-4.1,1.3c-1.3,0-2.6-0.3-3.7-0.9l0.5-1.5c1,0.6,2.1,0.9,3.3,0.9c2.1,0,3.6-1.1,3.6-3.9
	v-1.2l0,0c-0.8,1.2-2.1,1.9-3.5,1.9c-2.8,0-4.7-2.3-4.7-5.4c0-3.8,2.5-5.9,5-5.9c1.4-0.1,2.8,0.7,3.5,1.9l0,0l0.1-1.7h1.8
	C175.1,56.4,175.1,57.3,175.1,58.6z"/>
<path class="st0" d="M102.6,147.3c-1.9,0-3.3,1.6-3.3,4.2c0,2.2,1.1,4,3.3,4c1.3,0,2.4-0.8,2.8-2.1c0.1-0.3,0.2-0.7,0.2-1.1v-2
	c0-0.3,0-0.6-0.1-0.9C105.1,148.1,103.9,147.3,102.6,147.3z"/>
<path class="st0" d="M78.8,146.3l-3.7,5.1l0,0H80v-5c0-0.8,0-1.6,0.1-2.3H80C79.6,145,79.2,145.6,78.8,146.3z"/>
<path class="st0" d="M0.4,117.9v63h171v-63C171.4,117.9,0.4,117.9,0.4,117.9z M68.3,157.1h-1.9V144h-0.1l-2.6,1.4l-0.4-1.5l3.3-1.8
	h1.7V157.1z M84.1,153H82v4.1h-1.9V153h-6.9v-1.3l6.7-9.6h2.2v9.3h2.1L84.1,153z M95.3,143.4L88.8,157h-2.1l6.5-13.2l0,0h-7.3v-1.7
	h9.4V143.4z M107.5,149v6.5c0,2.6-0.5,4.1-1.6,5.1c-1.1,0.9-2.6,1.4-4.1,1.3c-1.3,0-2.6-0.3-3.7-0.9l0.5-1.5c1,0.6,2.1,0.9,3.3,0.9
	c2.1,0,3.6-1.1,3.6-3.9v-1.2l0,0c-0.8,1.2-2.1,1.9-3.5,1.9c-2.8,0-4.7-2.3-4.7-5.4c0-3.8,2.5-5.9,5-5.9c1.4-0.1,2.8,0.7,3.5,1.9l0,0
	l0.1-1.7h1.8C107.6,146.7,107.5,147.6,107.5,149z"/>
<path class="st0" d="M37.8,414.3c-1.9,0-3.3,1.6-3.3,4.2c0,2.2,1.1,4,3.3,4c1.3,0,2.4-0.8,2.8-2.1c0.1-0.3,0.2-0.7,0.2-1.1v-2
	C40.7,415.7,39.4,414.4,37.8,414.3L37.8,414.3z"/>
<path class="st0" d="M0.4,382.9v63H50v-63H0.4z M12.8,424.4c-1.4,0-2.7-0.3-3.9-1l0.5-1.6c1,0.6,2.1,1,3.3,1c2.6,0,3.4-1.7,3.4-2.9
	c0-2.1-1.9-3-3.9-3h-1.1v-1.5h1.1c1.5,0,3.3-0.8,3.3-2.5c0-1.2-0.8-2.2-2.6-2.2c-1.1,0-2.1,0.4-3,1l-0.5-1.5
	c1.2-0.8,2.5-1.2,3.9-1.2c3,0,4.3,1.7,4.3,3.6c0,1.7-1.2,3.1-2.8,3.5l0,0c1.9,0.3,3.3,1.9,3.3,3.8C18.2,422.3,16.4,424.4,12.8,424.4
	z M30.3,424.1h-9.5v-1.2l1.6-1.5c3.8-3.6,5.5-5.6,5.6-7.8c0.2-1.5-0.9-2.8-2.4-2.9c-0.2,0-0.4,0-0.6,0c-1.2,0-2.3,0.5-3.2,1.3
	l-0.7-1.4c1.2-1,2.7-1.5,4.3-1.5c2.3-0.2,4.4,1.5,4.6,3.8c0,0.2,0,0.4,0,0.5c0,2.8-2,5-5.2,8l-1.2,1.1l0,0h6.7L30.3,424.1z
	 M42.7,416.1v6.5c0,2.5-0.5,4.1-1.6,5.1c-1.1,0.9-2.6,1.4-4.1,1.4c-1.3,0-2.6-0.3-3.7-0.9l0.5-1.5c1,0.6,2.1,0.9,3.3,0.9
	c2.1,0,3.6-1.1,3.6-3.9v-1.2l0,0c-0.8,1.2-2.1,1.9-3.5,1.9c-2.8,0-4.7-2.3-4.7-5.4c0-3.8,2.5-5.9,5-5.9c1.4-0.1,2.8,0.7,3.5,1.9l0,0
	v-2h1.8C42.8,413.8,42.7,414.7,42.7,416.1z"/>
<path class="st0" d="M37,504.1c-1.9,0-3.3,1.6-3.3,4.2c0,2.2,1.1,4,3.3,4c1.3,0,2.4-0.9,2.8-2.1c0.1-0.4,0.2-0.7,0.2-1.1v-2
	c0-0.3,0-0.6-0.1-0.9C39.5,505,38.3,504.1,37,504.1z"/>
<path class="st0" d="M24.8,500.2c-1.7,0-2.9,1.5-2.9,3.6c-0.2,1.6,1,3,2.6,3.2c0.1,0,0.2,0,0.3,0c1.2,0,2.3-0.6,2.9-1.6
	c0.1-0.2,0.2-0.5,0.2-0.7C27.9,502.2,27,500.2,24.8,500.2z"/>
<path class="st0" d="M0.4,471.9v63H49v-63L0.4,471.9L0.4,471.9z M17.7,513.9H8.2v-1.2l1.6-1.5c3.8-3.6,5.5-5.6,5.6-7.8
	c0.2-1.5-0.9-2.8-2.4-2.9c-0.2,0-0.4,0-0.6,0c-1.2,0-2.3,0.5-3.2,1.3l-0.6-1.4c1.2-1,2.7-1.5,4.2-1.5c2.3-0.2,4.4,1.5,4.6,3.8
	c0,0.2,0,0.4,0,0.5c0,2.8-2,5-5.2,8l-1.2,1.2l0,0h6.7L17.7,513.9z M27.4,512c-1.2,1.1-2.7,1.8-4.3,2c-0.6,0.1-1.2,0.1-1.9,0.1v-1.7
	c0.5,0,1.1,0,1.6-0.1c1.2-0.1,2.3-0.6,3.1-1.4c1.1-1.1,1.8-2.5,2-4h-0.1c-1.6,1.9-4.4,2.2-6.3,0.6c-1-0.9-1.6-2.2-1.6-3.6
	c-0.1-2.8,2.1-5.2,4.9-5.3c0.1,0,0.1,0,0.2,0c3.1,0,5,2.5,5,6.3C30.2,507.6,29.2,510.1,27.4,512L27.4,512z M41.9,505.8v6.5
	c0,2.5-0.5,4.1-1.6,5.1c-1.1,0.9-2.5,1.4-4,1.3c-1.3,0-2.6-0.3-3.7-0.9l0.5-1.5c1,0.6,2.1,0.9,3.3,0.9c2.1,0,3.6-1.1,3.6-3.9V512
	l0,0c-0.8,1.2-2.1,1.9-3.5,1.9c-2.8,0-4.7-2.3-4.7-5.4c0-3.8,2.5-5.9,5-5.9c1.4-0.1,2.8,0.7,3.5,1.9l0,0l0.1-1.7H42
	C42,503.6,41.9,504.5,41.9,505.8L41.9,505.8z"/>
<path class="st0" d="M36.8,243.7c-1.5,0.3-2.6,1.5-2.7,3.1c-0.1,1.5,1.1,2.8,2.7,2.9c0.1,0,0.2,0,0.3,0c1.5,0.2,2.8-0.9,3-2.4
	c0-0.1,0-0.2,0-0.3C40.1,245.2,38.8,244.3,36.8,243.7z"/>
<path class="st0" d="M48.9,237.2c-1.8,0-3.1,2.2-3.1,6.2c0,3.9,1.2,6.1,3,6.1c2.1,0,3.1-2.4,3.1-6.2S51,237.2,48.9,237.2z"/>
<path class="st0" d="M61,241.1c-1.9,0-3.3,1.6-3.3,4.2c0,2.2,1.1,4,3.3,4c1.3,0,2.4-0.8,2.8-2.1c0.1-0.3,0.2-0.7,0.2-1.1v-2
	c0-0.3,0-0.6-0.1-0.9C63.5,241.9,62.3,241.1,61,241.1z"/>
<path class="st0" d="M0.4,210.9v63h101v-63H0.4z M37.1,251.1c-3.1,0-5-1.9-5-4c0-1.8,1.2-3.5,3-4V243c-1.4-0.5-2.3-1.9-2.4-3.4
	c0-2.4,2-4,4.6-4c2.9,0,4.3,1.8,4.3,3.7c0,1.6-1,2.9-2.5,3.5v0.1c1.9,0.7,3,2,3,3.9C42.2,249.4,39.9,251.1,37.1,251.1z M48.8,251.1
	c-2.9,0-4.9-2.7-4.9-7.7s2.2-7.8,5.2-7.8s5,2.8,5,7.6C54,248.3,52.1,251.1,48.8,251.1z M66,242.8v6.5c0,2.5-0.5,4.1-1.6,5.1
	c-1.1,0.9-2.5,1.4-4,1.3c-1.3,0-2.6-0.3-3.7-0.9l0.5-1.5c1,0.6,2.1,0.9,3.3,0.9c2.1,0,3.6-1.1,3.6-3.9V249l0,0
	c-0.8,1.2-2.1,1.9-3.5,1.9c-2.8,0-4.7-2.3-4.7-5.4c0-3.8,2.5-5.9,5-5.9c1.4-0.1,2.8,0.7,3.5,1.9l0,0l0.1-1.7h1.8
	C66,240.5,66,241.4,66,242.8z"/>
<path class="st0" d="M37.4,242.3c1.3-0.3,2.2-1.4,2.3-2.7c0.1-1.3-0.9-2.4-2.2-2.4c-0.1,0-0.2,0-0.3,0c-1.3-0.1-2.5,0.8-2.6,2.1
	c0,0.1,0,0.2,0,0.3C34.5,241,35.7,241.8,37.4,242.3z"/>
<path class="st0" d="M40.6,326.5c-1.9,0-3.3,1.6-3.3,4.2c0,2.2,1.1,4,3.3,4c1.3,0,2.4-0.8,2.8-2.1c0.1-0.3,0.2-0.7,0.2-1.1v-2
	c0.1-1.6-1.2-3-2.8-3.1C40.6,326.5,40.6,326.5,40.6,326.5z"/>
<path class="st0" d="M28.7,327.7c1.3-0.3,2.2-1.4,2.3-2.7c0.1-1.3-0.9-2.4-2.2-2.4c-0.1,0-0.2,0-0.3,0c-1.3-0.1-2.5,0.8-2.6,2.1
	c0,0.1,0,0.2,0,0.3C25.9,326.5,27,327.3,28.7,327.7z"/>
<path class="st0" d="M28.2,329.2c-1.5,0.3-2.6,1.6-2.7,3.1c0,1.5,1.1,2.8,2.7,2.9c0.1,0,0.2,0,0.3,0c1.5,0.2,2.8-0.9,3-2.4
	c0-0.1,0-0.2,0-0.3C31.5,330.6,30.2,329.8,28.2,329.2z"/>
<path class="st0" d="M0.4,296.9v63h63v-63H0.4z M15.4,336.6c-1.3,0-2.6-0.3-3.7-0.9l0.5-1.5c1,0.5,2.1,0.8,3.2,0.8
	c1.8,0.2,3.4-1.2,3.6-3c0-0.1,0-0.2,0-0.2c0-1.9-1.3-3.3-4.3-3.3c-0.7,0-1.4,0.1-2.1,0.2l1-7.2h7.2v1.7H15l-0.6,3.9
	c0.4-0.1,0.8-0.1,1.2-0.1c1.1,0,2.2,0.3,3.2,0.8c1.4,0.8,2.2,2.3,2.1,3.8C21,334.4,18.7,336.6,15.4,336.6z M28.4,336.6
	c-3.1,0-5-1.9-5-4c0-1.8,1.2-3.5,3-4v-0.1c-1.4-0.5-2.4-1.8-2.4-3.4c0-2.4,2-4,4.6-4c2.9,0,4.3,1.8,4.3,3.7c0,1.6-1,2.9-2.5,3.5v0.1
	c1.9,0.7,3,2,3,3.9C33.5,334.8,31.3,336.6,28.4,336.6L28.4,336.6z M45.6,328.3v6.5c0,2.5-0.5,4.1-1.6,5.1c-1.1,0.9-2.5,1.4-4,1.3
	c-1.3,0-2.6-0.3-3.7-0.9l0.5-1.5c1,0.6,2.1,0.9,3.3,0.9c2.1,0,3.6-1.1,3.6-3.9v-1.2l0,0c-0.8,1.2-2.2,1.9-3.6,1.9
	c-2.8,0-4.7-2.4-4.7-5.4c0-3.8,2.5-5.9,5-5.9c1.4-0.1,2.8,0.7,3.5,1.9l0,0l0.1-1.7h1.8C45.6,326,45.5,327,45.6,328.3L45.6,328.3z"/>
<path class="st0" d="M83.5,527.8h5.1v1h-3.9v3.2h3.6v1h-3.6v4.3h-1.2V527.8z"/>
<path class="st0" d="M90.6,534.1c-0.1,1.2,0.8,2.2,2,2.3c0.1,0,0.2,0,0.3,0c0.6,0,1.3-0.1,1.9-0.3L95,537c-0.7,0.3-1.5,0.4-2.2,0.4
	c-1.7,0.1-3.2-1.2-3.3-2.9c0-0.2,0-0.3,0-0.5c0-2,1.2-3.7,3.2-3.7c2.2,0,2.8,2,2.8,3.2c0,0.2,0,0.4,0,0.6H90.6z M94.2,533.2
	c0.1-1-0.5-1.8-1.5-2c-0.1,0-0.2,0-0.2,0c-1.1,0.1-1.9,0.9-1.9,2H94.2z"/>
<path class="st0" d="M96.9,532.6c0-0.8,0-1.5-0.1-2.1h1.1v1.3H98c0.2-0.9,1-1.5,1.9-1.5c0.1,0,0.2,0,0.4,0v1.2c-0.1,0-0.3,0-0.4,0
	c-0.9,0-1.6,0.7-1.6,1.6c0,0.2,0,0.4,0,0.6v3.6h-1.2L96.9,532.6z"/>
<path class="st0" d="M101.5,532.3c0-0.7,0-1.3-0.1-1.8h1.1l0.1,1.1l0,0c0.5-0.8,1.3-1.3,2.2-1.3s2.4,0.6,2.4,2.9v4H106v-3.9
	c0-1.1-0.4-2-1.6-2c-0.8,0-1.4,0.5-1.6,1.3c-0.1,0.2-0.1,0.4-0.1,0.6v4.1h-1.2L101.5,532.3z"/>
<path class="st0" d="M109.2,537.2c0-0.5,0.1-1.2,0.1-1.8v-8.2h1.2v4.3l0,0c0.5-0.8,1.4-1.3,2.3-1.2c1.7,0,2.9,1.4,2.9,3.5
	c0,2.4-1.5,3.6-3,3.6c-0.9,0.1-1.8-0.4-2.3-1.3h-0.1v1.1L109.2,537.2L109.2,537.2z M110.5,534.5c0,0.2,0,0.3,0.1,0.5
	c0.2,0.9,1,1.4,1.9,1.5c1.3,0,2.1-1,2.1-2.6c0-1.4-0.7-2.5-2-2.5c-0.9,0-1.7,0.6-1.9,1.5c0,0.2-0.1,0.3-0.1,0.5L110.5,534.5z"/>
<path class="st0" d="M122.9,535.4c0,0.7,0,1.3,0,1.8h-1.1l-0.1-1.1l0,0c-0.5,0.8-1.3,1.3-2.2,1.3c-1.1,0-2.3-0.6-2.3-3v-4h1.2v3.8
	c0,1.3,0.4,2.2,1.5,2.2c1,0,1.7-0.8,1.7-1.8v-4.2h1.2L122.9,535.4z"/>
<path class="st0" d="M124.8,536c0.5,0.3,1.1,0.5,1.6,0.5c0.9,0,1.3-0.5,1.3-1s-0.4-0.9-1.3-1.2c-1.2-0.4-1.8-1.1-1.8-1.9
	c0-1.2,1-2.1,2.2-2c0.1,0,0.1,0,0.2,0c0.6,0,1.2,0.1,1.7,0.4l-0.3,0.9c-0.4-0.3-0.9-0.4-1.4-0.4c-0.7,0-1.1,0.4-1.1,0.9
	s0.4,0.8,1.3,1.2c1.2,0.5,1.8,1,1.8,2c0,1.2-0.9,2-2.5,2c-0.7,0-1.3-0.1-1.9-0.5L124.8,536z"/>
<path class="st0" d="M87.5,441c0.7-0.1,1.5-0.2,2.2-0.2c0.9-0.1,1.8,0.2,2.6,0.7c0.5,0.4,0.8,1,0.8,1.7c0,1-0.7,1.8-1.6,2.1l0,0
	c1.1,0.2,1.9,1.2,1.9,2.4c0,0.7-0.3,1.4-0.8,1.9c-0.9,0.7-2.1,1-3.3,0.9c-0.6,0-1.3,0-1.9-0.1L87.5,441z M88.8,444.8h1.1
	c1.3,0,2-0.7,2-1.6c0-1.1-0.8-1.5-2.1-1.5c-0.4,0-0.7,0-1.1,0.1L88.8,444.8z M88.8,449.3c0.3,0,0.7,0,1,0c1.3,0,2.4-0.5,2.4-1.8
	s-1.1-1.8-2.4-1.8h-1V449.3z"/>
<path class="st0" d="M98.8,450.2l-0.1-0.9l0,0c-0.5,0.6-1.3,1-2.1,1c-1.1,0.1-2-0.7-2.1-1.8c0-0.1,0-0.1,0-0.2
	c0-1.6,1.5-2.5,4.1-2.5v-0.1c0.1-0.8-0.4-1.5-1.2-1.6c-0.1,0-0.2,0-0.3,0c-0.6,0-1.2,0.2-1.8,0.5l-0.3-0.8c0.7-0.4,1.4-0.6,2.2-0.6
	c2.1,0,2.6,1.4,2.6,2.8v2.5c0,0.5,0,1.1,0.1,1.6L98.8,450.2z M98.7,446.8c-1.4,0-2.9,0.2-2.9,1.5c-0.1,0.6,0.4,1.1,1,1.2
	c0.1,0,0.1,0,0.2,0c0.7,0,1.4-0.4,1.6-1.1c0-0.1,0.1-0.3,0.1-0.4V446.8z"/>
<path class="st0" d="M101.8,440.3h1.2v4.2l0,0c0.2-0.4,0.5-0.7,0.9-0.9c0.4-0.2,0.8-0.3,1.3-0.4c0.9,0,2.4,0.6,2.4,2.9v4h-1.2v-3.9
	c0-1.1-0.4-2-1.6-2c-0.8,0-1.4,0.5-1.6,1.2c-0.1,0.2-0.1,0.4-0.1,0.6v4.1h-1.2L101.8,440.3z"/>
<path class="st0" d="M109.6,445.3c0-0.7,0-1.3-0.1-1.8h1.1l0.1,1.1l0,0c0.5-0.8,1.3-1.3,2.2-1.3s2.4,0.6,2.4,2.9v4h-1.2v-3.9
	c0-1.1-0.4-2-1.6-2c-0.8,0-1.4,0.5-1.6,1.3c-0.1,0.2-0.1,0.4-0.1,0.6v4.1h-1.2L109.6,445.3z"/>
<path class="st0" d="M100.2,350.9v5.6c0,2.1,0.9,3,2.2,3s2.3-0.9,2.3-3v-5.6h1.3v5.5c0,2.9-1.5,4.1-3.6,4.1s-3.4-1.1-3.4-4v-5.6
	H100.2z"/>
<path class="st0" d="M110.9,356.1v0.9h-3.5v-1L110.9,356.1z"/>
<path class="st0" d="M112.4,351c0.7-0.1,1.5-0.2,2.2-0.2c0.9-0.1,1.8,0.2,2.6,0.7c0.5,0.4,0.8,1,0.8,1.7c0,1-0.7,1.8-1.6,2.1l0,0
	c1.1,0.2,2,1.2,2,2.4c0,0.7-0.3,1.4-0.8,1.9c-0.9,0.7-2.1,1-3.3,0.9c-0.6,0-1.3,0-1.9-0.1V351z M113.6,354.8h1.1c1.3,0,2-0.7,2-1.6
	c0-1.1-0.8-1.5-2.1-1.5c-0.4,0-0.7,0-1.1,0.1L113.6,354.8z M113.6,359.4c0.3,0,0.7,0.1,1,0c1.3,0,2.4-0.5,2.4-1.8s-1.1-1.8-2.4-1.8
	h-1V359.4z"/>
<path class="st0" d="M123.7,360.3l-0.1-0.9l0,0c-0.5,0.6-1.3,1-2.1,1c-1.1,0.1-2-0.7-2.1-1.8c0-0.1,0-0.1,0-0.2
	c0-1.6,1.4-2.5,4.1-2.5v-0.1c0.1-0.8-0.4-1.5-1.2-1.6c-0.1,0-0.2,0-0.4,0c-0.6,0-1.2,0.2-1.8,0.5l-0.3-0.8c0.7-0.4,1.4-0.6,2.2-0.6
	c2.1,0,2.6,1.4,2.6,2.8v2.5c0,0.5,0,1.1,0.1,1.6L123.7,360.3z M123.5,356.9c-1.3,0-2.9,0.2-2.9,1.5c0,0.6,0.4,1.1,1,1.2
	c0.1,0,0.1,0,0.2,0c0.7,0,1.4-0.4,1.6-1.1c0-0.1,0.1-0.3,0.1-0.4L123.5,356.9z"/>
<path class="st0" d="M126.7,350.4h1.2v4.2l0,0c0.2-0.4,0.5-0.7,0.9-0.9c0.4-0.2,0.8-0.3,1.3-0.4c0.9,0,2.4,0.6,2.4,2.9v4h-1.2v-3.9
	c0-1.1-0.4-2-1.6-2c-0.8,0-1.4,0.5-1.7,1.2c-0.1,0.2-0.1,0.4-0.1,0.6v4.1h-1.2L126.7,350.4z"/>
<path class="st0" d="M134.4,355.4c0-0.7,0-1.3-0.1-1.8h1.1l0.1,1.1l0,0c0.5-0.8,1.3-1.3,2.2-1.3s2.4,0.6,2.4,2.9v4H139v-3.9
	c0-1.1-0.4-2-1.6-2c-0.8,0-1.4,0.5-1.7,1.3c-0.1,0.2-0.1,0.4-0.1,0.6v4.1h-1.2V355.4z"/>
<path class="st0" d="M125.2,259.9h1.2v8.4h4v1h-5.3L125.2,259.9z"/>
<path class="st0" d="M133.1,260.6c0,0.4-0.3,0.8-0.8,0.8c-0.4,0-0.8-0.3-0.8-0.8c0-0.4,0.3-0.8,0.7-0.8l0,0
	C132.8,259.8,133.1,260.2,133.1,260.6L133.1,260.6z M131.7,269.3v-6.8h1.3v6.8H131.7z"/>
<path class="st0" d="M135,264.4c0-0.7,0-1.3-0.1-1.8h1.1l0.1,1.1l0,0c0.5-0.8,1.3-1.3,2.2-1.3s2.4,0.6,2.4,2.9v4h-1.2v-3.9
	c0-1.1-0.4-2-1.6-2c-0.8,0-1.4,0.5-1.7,1.3c-0.1,0.2-0.1,0.4-0.1,0.6v4.1H135V264.4z"/>
<path class="st0" d="M144.2,260.6c0,0.4-0.3,0.7-0.7,0.8h-0.1c-0.4,0-0.7-0.3-0.8-0.7l0,0c0-0.4,0.3-0.8,0.7-0.8l0,0
	C143.8,259.8,144.1,260.2,144.2,260.6L144.2,260.6z M142.8,269.3v-6.8h1.2v6.8H142.8z"/>
<path class="st0" d="M146.8,266.1c-0.1,1.2,0.8,2.2,2,2.4c0.1,0,0.2,0,0.4,0c0.6,0,1.3-0.1,1.9-0.4l0.2,0.9
	c-0.7,0.3-1.5,0.4-2.2,0.4c-1.7,0.1-3.2-1.2-3.3-2.9c0-0.2,0-0.3,0-0.5c0-2,1.2-3.6,3.2-3.6c2.2,0,2.8,1.9,2.8,3.2
	c0,0.2,0,0.4,0,0.6h-5V266.1z M150.4,265.3c0.1-1-0.5-1.8-1.5-2c-0.1,0-0.2,0-0.2,0c-1.1,0.1-1.9,0.9-1.9,2H150.4z"/>
<path class="st0" d="M153.1,264.4c0-0.7,0-1.3-0.1-1.8h1.1l0.1,1.1l0,0c0.5-0.8,1.3-1.3,2.2-1.3s2.4,0.6,2.4,2.9v4h-1.2v-3.9
	c0-1.1-0.4-2-1.6-2c-0.8,0-1.4,0.5-1.7,1.3c-0.1,0.2-0.1,0.4-0.1,0.6v4.1H153L153.1,264.4z"/>
<path class="st0" d="M160.8,269.3c0-0.5,0.1-1.1,0.1-1.8v-8.2h1.2v4.3l0,0c0.5-0.8,1.4-1.3,2.3-1.2c1.7,0,2.9,1.4,2.9,3.5
	c0,2.4-1.5,3.6-3,3.6c-0.9,0.1-1.8-0.4-2.3-1.3l0,0v1.1H160.8z M162.1,266.6c0,0.2,0,0.3,0.1,0.5c0.2,0.9,1,1.4,1.9,1.4
	c1.3,0,2.1-1,2.1-2.6c0-1.4-0.7-2.5-2-2.5c-0.9,0-1.7,0.6-1.9,1.5c0,0.2-0.1,0.3-0.1,0.5L162.1,266.6z"/>
<path class="st0" d="M174.5,267.5c0,0.7,0,1.3,0,1.9h-1.1l-0.1-1.1l0,0c-0.5,0.8-1.3,1.3-2.2,1.3c-1.1,0-2.3-0.6-2.3-3v-4h1.2v3.8
	c0,1.3,0.4,2.2,1.5,2.2c0.7,0,1.4-0.5,1.6-1.1c0.1-0.2,0.1-0.4,0.1-0.6v-4.2h1.2v4.8H174.5z"/>
<path class="st0" d="M176.4,268.1c0.5,0.3,1,0.5,1.6,0.5c0.9,0,1.3-0.5,1.3-1s-0.4-0.9-1.3-1.2c-1.2-0.4-1.8-1.1-1.8-1.9
	c0-1.1,1-2,2.1-2c0.1,0,0.1,0,0.2,0c0.6,0,1.2,0.1,1.7,0.4l-0.3,0.9c-0.4-0.3-0.9-0.4-1.4-0.4c-0.7,0-1.1,0.4-1.1,0.9
	s0.4,0.8,1.3,1.1c1.2,0.5,1.8,1,1.8,2c0,1.2-0.9,2-2.5,2c-0.7,0-1.3-0.1-1.9-0.5L176.4,268.1z"/>
<path class="st0" d="M207,172.3l-1,3h-1.3l3.2-9.4h1.5l3.2,9.4h-1.3l-1-3H207z M210.1,171.4l-0.9-2.7c-0.2-0.6-0.4-1.2-0.5-1.7l0,0
	c-0.1,0.6-0.3,1.1-0.5,1.7l-0.9,2.7H210.1z"/>
<path class="st0" d="M219.5,173.5c0,0.7,0,1.3,0.1,1.9h-1.1l-0.1-1.1l0,0c-0.5,0.8-1.3,1.3-2.2,1.3c-1.1,0-2.3-0.6-2.3-3v-4h1.2v3.8
	c0,1.3,0.4,2.2,1.5,2.2c0.7,0,1.4-0.5,1.6-1.1c0.1-0.2,0.1-0.4,0.1-0.6v-4.2h1.2V173.5z"/>
<path class="st0" d="M223,166.6v2h1.8v0.9H223v3.6c0,0.8,0.2,1.3,0.9,1.3c0.2,0,0.5,0,0.7-0.1l0.1,0.9c-0.3,0.1-0.7,0.2-1.1,0.2
	c-0.5,0-1-0.2-1.3-0.5c-0.4-0.5-0.5-1.1-0.5-1.8v-3.7h-1v-0.9h1V167L223,166.6z"/>
<path class="st0" d="M232.2,171.9c0.2,1.8-1.2,3.4-3,3.6c-0.1,0-0.2,0-0.4,0c-1.8,0-3.2-1.4-3.3-3.2c0-0.1,0-0.2,0-0.3
	c-0.2-1.8,1.2-3.4,3-3.6c0.1,0,0.2,0,0.4,0c1.8,0,3.2,1.4,3.3,3.1C232.2,171.6,232.2,171.7,232.2,171.9z M226.9,171.9
	c0,1.5,0.9,2.6,2.1,2.6s2-1.1,2-2.6c0-1.1-0.6-2.6-2-2.6S226.9,170.7,226.9,171.9L226.9,171.9z"/>
<path class="st0" d="M333.7,84.9h5.1v1h-3.9V89h3.6v1h-3.6v4.3h-1.2V84.9z"/>
<path class="st0" d="M340.2,84.4h1.2v10h-1.2V84.4z"/>
<path class="st0" d="M349.2,92.5c0,0.7,0,1.3,0.1,1.9h-1.1l-0.1-1.1l0,0c-0.5,0.8-1.3,1.3-2.2,1.3c-1.1,0-2.3-0.6-2.3-3v-4h1.2v3.8
	c0,1.3,0.4,2.2,1.5,2.2c0.7,0,1.4-0.5,1.6-1.1c0.1-0.2,0.1-0.4,0.1-0.6v-4.2h1.2L349.2,92.5z"/>
<path class="st0" d="M357.1,87.5c0,0.5,0,1,0,1.9v3.9c0,1.6-0.3,2.5-1,3.1s-1.6,0.9-2.5,0.8c-0.8,0-1.6-0.2-2.3-0.6l0.3-0.9
	c0.6,0.4,1.3,0.5,2,0.5c1.3,0,2.2-0.7,2.2-2.4V93l0,0c-0.5,0.7-1.3,1.2-2.2,1.1c-1.7-0.1-3-1.4-2.9-3.1c0-0.1,0-0.1,0-0.2
	c0-2.3,1.5-3.6,3.1-3.6c0.9-0.1,1.7,0.4,2.1,1.2l0,0l0.1-1L357.1,87.5z M355.8,90.2c0-0.2,0-0.4-0.1-0.6c-0.2-0.8-0.9-1.3-1.7-1.3
	c-1.2,0-2,1-2,2.6c0,1.3,0.7,2.4,2,2.4c0.8,0,1.5-0.5,1.7-1.3c0.1-0.2,0.1-0.4,0.1-0.7V90.2z"/>
<path class="st0" d="M358.3,93.6l3.1-4c0.3-0.4,0.6-0.7,0.9-1.1l0,0h-3.7v-1h5.2v0.8l-3,3.9c-0.3,0.4-0.6,0.7-0.9,1.1l0,0h4v1h-5.5
	L358.3,93.6z"/>
<path class="st0" d="M365.7,91.1c-0.1,1.2,0.8,2.3,2,2.4c0.1,0,0.2,0,0.3,0c0.6,0,1.3-0.1,1.9-0.4l0.2,0.9c-0.7,0.3-1.5,0.4-2.2,0.4
	c-1.7,0.1-3.2-1.2-3.3-2.9c0-0.2,0-0.3,0-0.5c0-2,1.2-3.6,3.2-3.6c2.2,0,2.8,1.9,2.8,3.2c0,0.2,0,0.4,0,0.6L365.7,91.1z M369.3,90.3
	c0.1-1-0.5-1.8-1.5-2c-0.1,0-0.2,0-0.2,0c-1.1,0.1-1.9,0.9-1.9,2H369.3z"/>
<path class="st0" d="M377.7,92.5c0,0.7,0,1.3,0.1,1.9h-1.1l-0.1-1.1l0,0c-0.5,0.8-1.3,1.3-2.2,1.3c-1.1,0-2.3-0.6-2.3-3v-4h1.2v3.8
	c0,1.3,0.4,2.2,1.5,2.2c0.7,0,1.4-0.5,1.6-1.1c0.1-0.2,0.1-0.4,0.1-0.6v-4.2h1.2L377.7,92.5z"/>
<path class="st0" d="M385.5,87.5c0,0.5,0,1,0,1.9v3.9c0,1.6-0.3,2.5-1,3.1s-1.6,0.9-2.5,0.8c-0.8,0-1.6-0.2-2.2-0.6l0.3-0.9
	c0.6,0.4,1.3,0.5,2,0.5c1.3,0,2.2-0.7,2.2-2.4V93l0,0c-0.5,0.7-1.3,1.2-2.1,1.1c-1.7-0.1-3-1.4-2.9-3.1c0-0.1,0-0.1,0-0.2
	c0-2.3,1.5-3.6,3-3.6c0.9-0.1,1.7,0.4,2.1,1.2l0,0v-1L385.5,87.5z M384.3,90.2c0-0.2,0-0.4-0.1-0.6c-0.2-0.8-0.9-1.3-1.7-1.3
	c-1.2,0-2,1-2,2.6c0,1.3,0.7,2.4,2,2.4c0.8,0,1.5-0.5,1.7-1.3c0.1-0.2,0.1-0.4,0.1-0.7V90.2z"/>
<path class="st0" d="M381.3,64c0.2-0.1,0.2-0.4,0.2-0.6l-5.4-27.9c0-0.1-0.1-0.2-0.2-0.3l7.2-7.2c5.4-5.4,7.7-10.3,4.5-13.5
	s-8.1-0.9-13.5,4.5l-7.2,7.2c-0.1-0.1-0.2-0.2-0.3-0.2l-27.8-5.4c-0.2,0-0.4,0-0.6,0.2l-3.6,3.6c-0.1,0.1-0.2,0.3-0.2,0.6
	c0,0.2,0.2,0.4,0.3,0.5l21.9,11.2c-4.8,5.2-9.2,10.8-13.3,16.7l-9.9-2c-0.2,0-0.4,0-0.6,0.2l-2.7,2.7c-0.1,0.1-0.2,0.3-0.2,0.5
	s0.1,0.4,0.3,0.5l8.7,5.3c-0.9,1.8-1.3,3.1-0.8,3.6c0.5,0.5,1.7,0.1,3.5-0.8l5.2,8.7c0.1,0.2,0.3,0.3,0.5,0.3h0.1
	c0.2,0,0.3,0,0.5-0.1l2.7-2.7c0.2-0.2,0.2-0.4,0.2-0.6l-2-9.9c5.9-4,11.4-8.5,16.6-13.3l11.1,21.9c0.1,0.2,0.3,0.3,0.5,0.3h0.1
	c0.2,0,0.3-0.1,0.4-0.2L381.3,64z"/>
<path class="st0" d="M240.9,121.7h-3.2l-2.1-7.2c-0.9-3.5-4-6-7.6-6.1h-18.2c-3.6,0.1-6.7,2.6-7.6,6.1l-2.1,7.2H197
	c-1.5,0.1-2.6,1.3-2.5,2.8v1.6c-0.1,1.5,1.1,2.7,2.5,2.8h0.9c-0.5,2.6-0.8,5.2-0.8,7.9v13.5c-0.1,1.5,1.1,2.7,2.5,2.8h4.2
	c1.5-0.1,2.6-1.3,2.5-2.8V146h25.2v4.3c-0.1,1.5,1,2.7,2.5,2.8h4.2c1.5-0.1,2.6-1.3,2.5-2.8v-13.5c0-2.6-0.3-5.3-0.8-7.9h0.9
	c1.5-0.1,2.6-1.3,2.5-2.8v-1.6C243.5,123,242.3,121.8,240.9,121.7z M204.6,124.6l2.4-8.4c0.3-1.3,1.4-2.2,2.8-2.3H228
	c1.3,0,2.5,1,2.8,2.3l2.4,8.4c0.1,0.3-0.1,0.6-0.4,0.7c-0.1,0-0.1,0-0.2,0H205C204.8,125.4,204.5,125,204.6,124.6L204.6,124.6z
	 M209.9,138.3h-5.1c-0.9,0-1.6-0.8-1.5-1.7l0,0V134c0-0.9,0.7-1.7,1.6-1.7c0.1,0,0.2,0,0.2,0l4.7,0.9c0.6,0.2,1.1,0.7,1.3,1.3
	l0.4,1.8c0.2,0.9-0.4,1.8-1.3,2C210,138.3,210,138.3,209.9,138.3L209.9,138.3z M234.6,136.6c0.1,0.9-0.6,1.6-1.5,1.7c0,0,0,0-0.1,0
	h-5.1c-0.9-0.1-1.6-0.9-1.5-1.8c0-0.1,0-0.2,0-0.2l0.4-1.8c0.1-0.7,0.6-1.2,1.3-1.3l4.7-0.9c0.9-0.1,1.7,0.5,1.8,1.4
	c0,0.1,0,0.2,0,0.3L234.6,136.6L234.6,136.6z"/>
<path class="st0" d="M111.9,422.8c-1.1,0.1-2.3,0.1-3.7,0.2l1.1,1.7H94l1.1-1.7c-1.4,0-2.6-0.1-3.7-0.2l-5.8,9.2
	c-0.5,0.8-0.2,1.8,0.5,2.2c0.3,0.2,0.6,0.2,0.9,0.2c0.6,0,1.1-0.3,1.4-0.8l0.5-0.9h25.4l0.5,0.9c0.3,0.5,0.8,0.8,1.4,0.8
	c0.9,0,1.6-0.7,1.6-1.6c0-0.3-0.1-0.6-0.2-0.8L111.9,422.8z M91,429.6l1-1.6h19.3l1,1.6H91z"/>
<path class="st0" d="M117.9,384.1c-1.6-1.6-7.3-1.6-16.2-1.6s-14.6,0-16.2,1.6s-1.6,8-1.6,17.9c0,7.9,0,13.6,0.8,16.3
	c0.1,0.6,0.4,1.1,0.8,1.5c0.2,0.2,0.4,0.3,0.6,0.5c2.2,1.2,7.6,1.2,15.6,1.2s13.4,0,15.6-1.2c0.2-0.1,0.5-0.3,0.6-0.5
	c0.4-0.4,0.7-1,0.8-1.5c0.8-2.8,0.8-8.4,0.8-16.3C119.6,392.1,119.6,385.7,117.9,384.1z M92.7,415c-2.2,0-4.1-1.8-4.1-4.1
	c0-2.2,1.8-4.1,4.1-4.1c2.2,0,4.1,1.8,4.1,4.1c0,0,0,0,0,0.1C96.8,413.2,95,415,92.7,415z M110.6,415c-2.2,0-4.1-1.8-4.1-4.1
	c0-2.2,1.8-4.1,4.1-4.1c2.2,0,4.1,1.8,4.1,4.1l0,0C114.7,413.1,112.9,415,110.6,415z M114.7,402c-1.6,1.6-5.8,1.6-13,1.6
	s-11.4,0-13-1.6s-1.6-3.3-1.6-7.3s0-5.7,1.6-7.3s5.8-1.6,13-1.6s11.4,0,13,1.6s1.6,3.3,1.6,7.3S116.3,400.3,114.7,402z"/>
<circle class="st0" cx="110.6" cy="410.9" r="2.4"/>
<circle class="st0" cx="92.7" cy="410.9" r="2.4"/>
<path class="st1" d="M88,499.6h30.5v-12.1c0-0.8-0.7-1.5-1.5-1.5H89.5c-0.8,0-1.5,0.7-1.5,1.5V499.6z M99.6,508.8h7.4
	c0.2,0,0.3,0.1,0.3,0.3v2.4c0,0.2-0.2,0.3-0.3,0.3h-7.4c-0.2,0-0.3-0.1-0.3-0.3v-2.4C99.3,508.9,99.4,508.8,99.6,508.8L99.6,508.8z
	 M121.6,511.3c0,1.7-1.4,3.1-3.1,3.1l-0.1,2.3c0,1.6-1.3,2.9-2.9,2.8h-1.6c-1.6,0-2.9-1.2-2.9-2.8v-0.1v-2.3H95.3v2.3
	c0,1.6-1.3,2.8-2.8,2.8h-1.6c-1.6,0-2.9-1.2-2.9-2.8c0,0,0,0,0-0.1v-2.3c-1.7,0-3.1-1.4-3.2-3.1v-27.7c0.4-5.2,4.7-9.3,9.9-9.3h16.8
	c5.2,0,9.6,4.1,9.9,9.3L121.6,511.3z M96.5,477.9H110c0.5,0,0.9,0.4,0.9,0.9v1.7c0,0.5-0.4,0.9-0.9,0.9l0,0H96.4
	c-0.5,0-0.9-0.3-0.9-0.8v-0.1v-1.7C95.5,478.3,95.9,477.9,96.5,477.9C96.4,477.9,96.4,477.9,96.5,477.9L96.5,477.9z M115.2,506.9
	c-1.3,0-2.3,1-2.3,2.3s1,2.3,2.3,2.3s2.3-1,2.3-2.3C117.5,508,116.4,506.9,115.2,506.9C115.2,507,115.2,507,115.2,506.9L115.2,506.9
	z M91.3,506.9c1.3,0,2.3,1,2.4,2.3c0,1.3-1,2.3-2.3,2.4c-1.3,0-2.3-1-2.4-2.3C89,508,90,507,91.3,506.9L91.3,506.9z"/>
<path class="st0" d="M171,217c-0.1,0-0.1,0-0.2,0v-5.5c0-0.3,0-0.5-0.1-0.8c0-0.1,0-0.1,0-0.2c0-3-9.1-5.3-20.4-5.3
	s-20.5,2.4-20.5,5.3v0.2c-0.1,0.3-0.1,0.5-0.1,0.8v5.5c-0.1,0-0.1,0-0.2,0c-1.1,0-2.1,2.8-2.1,6.2s0.9,6.2,2.1,6.2h0.2v12.4
	c0,2,1.6,3.5,3.5,3.5h0.6v2.2c0,1.3,1,2.3,2.3,2.3h2.2c1.3,0,2.3-1,2.3-2.3v-2.2h19.2v2.2c0,1.3,1,2.3,2.3,2.3h2.2
	c1.3,0,2.3-1,2.3-2.3l0,0v-2.2h0.6c1.9,0,3.5-1.6,3.6-3.5l0,0l0,0v-12.5h0.2c1.2,0,2.1-2.8,2.1-6.2S172.1,217,171,217z M142.4,208
	H158c0.7,0,1.3,0.6,1.3,1.3s-0.6,1.3-1.3,1.3h-15.6c-0.7,0-1.3-0.6-1.3-1.3S141.7,208,142.4,208L142.4,208L142.4,208z M137.2,241.8
	c-1.4,0-2.5-1.1-2.5-2.5s1.1-2.5,2.5-2.5s2.5,1.1,2.5,2.5l0,0C139.7,240.7,138.6,241.8,137.2,241.8L137.2,241.8L137.2,241.8z
	 M163.2,241.8c-1.4,0-2.5-1.1-2.5-2.5s1.1-2.5,2.5-2.5s2.5,1.1,2.5,2.5l0,0C165.8,240.7,164.6,241.8,163.2,241.8L163.2,241.8
	L163.2,241.8z M167,231c0,1.5-1.2,2.7-2.7,2.7l0,0h-28.2c-1.5,0-2.7-1.2-2.7-2.7l0,0v-15.6c0-1.5,1.2-2.7,2.7-2.7l0,0h28.3
	c1.5,0,2.7,1.2,2.7,2.7l0,0L167,231L167,231z"/>
<path class="st0" d="M148,318v24.4h-3.8V318c0-13.3-10.4-24.1-23.1-24.1S98,304.6,98,318v24.4h-3.8V318c0-15.4,12.1-28,26.9-28
	S148,302.5,148,318z"/>
<path class="st0" d="M139.6,338c1.1,0,1.9,0.9,1.9,1.9c0,1.1-0.9,1.9-1.9,1.9h-36.8c-1.1,0-1.9-0.9-1.9-1.9c0-1.1,0.9-1.9,1.9-1.9
	H139.6z"/>
<path class="st0" d="M139.6,318.7v15.2c0,1-0.8,1.9-1.9,1.9l0,0h-33.1c-1.1,0-1.9-0.9-1.9-1.9v-15.2c0-0.2,0-0.4,0.1-0.6l4.9-15.2
	c0.2-0.8,1-1.3,1.8-1.3h23.3c0.8,0,1.6,0.5,1.8,1.3l4.9,15.2C139.5,318.3,139.6,318.5,139.6,318.7z M135.7,318.7l-3.9-12.1h-21.3
	l-3.9,12.1H135.7z M135.7,326.5c0-2.5-2.1-4.5-4.5-4.4c-2.5,0-4.5,2.1-4.4,4.5c0,2.5,2,4.4,4.5,4.4C133.7,331,135.7,329,135.7,326.5
	L135.7,326.5z M115.6,326.5c0-2.5-2.1-4.5-4.5-4.4s-4.5,2.1-4.4,4.5c0,2.5,2,4.4,4.5,4.4C113.6,331,115.6,329,115.6,326.5
	L115.6,326.5z"/>
</svg>
